  0
SECTION
  2
HEADER
  9
$ACADVER
  1
AC1009
  9
$INSBASE
 10
0.0
 20
0.0
 30
0.0
  9
$EXTMIN
 10
0.0
 20
0.0
 30
0.0
  9
$EXTMAX
 10
0.0
 20
0.0
 30
0.0
  0
ENDSEC
  0
SECTION
  2
TABLES
  0
TABLE
  2
VPORT
 70
0
  0
ENDTAB
  0
TABLE
  2
LTYPE
 70
1
  0
LTYPE
  2
CONTINUOUS
 70
0
  3
Solid line
 72
65
 73
0
 40
0.0
  0
ENDTAB
  0
TABLE
  2
LAYER
 70
1
  0
LAYER
  2
0
 70
64
 62
7
  6
continuous
  0
ENDTAB
  0
TABLE
  2
STYLE
 70
1
  0
STYLE
  2
STANDARD
 70
0
 40
0
 41
1.0
 50
0.0
 71
0
 42
1
 3
ARIAL.TTF
 4

  0
ENDTAB
  0
TABLE
  2
VIEW
 70
0
  0
ENDTAB
  0
ENDSEC
  0
SECTION
  2
BLOCKS
  0
BLOCK
  8
0
  2
BODY001
 70
0
 10
0.0
 20
0.0
 30
0.0
  3
BODY001
  0
LINE
  8
0
 62
0
 10
-18.999999999998785
 20
-12.000000000000004
 30
0.0
 11
-43.000000000000014
 21
-12.000000000000004
 31
0.0
  0
LINE
  8
0
 62
0
 10
-43.00000000000001
 20
-12.000000000000002
 30
0.0
 11
-45.00000000000001
 21
-10.000000000000002
 31
0.0
  0
LINE
  8
0
 62
0
 10
-15.000000000000007
 20
-16.000000000000007
 30
0.0
 11
-18.99999999999878
 21
-12.000000000000004
 31
0.0
  0
LINE
  8
0
 62
0
 10
-8.881784197001252e-16
 20
-16.000000000000007
 30
0.0
 11
-15.000000000000004
 21
-16.000000000000007
 31
0.0
  0
LINE
  8
0
 62
0
 10
-8.881784197001252e-16
 20
-12.000000000000007
 30
0.0
 11
-8.881784197001252e-16
 21
-16.000000000000007
 31
0.0
  0
LINE
  8
0
 62
0
 10
-8.881784197001252e-16
 20
-9.775000000000002
 30
0.0
 11
-8.881784197001252e-16
 21
-12.000000000000004
 31
0.0
  0
LINE
  8
0
 62
0
 10
-8.881784197001252e-16
 20
-9.775000000000002
 30
0.0
 11
-4.000000000000002
 21
-9.775000000000002
 31
0.0
  0
LINE
  8
0
 62
0
 10
-4.000000000000002
 20
-6.225000000000001
 30
0.0
 11
-4.000000000000002
 21
-9.775000000000002
 31
0.0
  0
LINE
  8
0
 62
0
 10
-8.881784197001252e-16
 20
-6.225000000000001
 30
0.0
 11
-4.000000000000002
 21
-6.225000000000001
 31
0.0
  0
LINE
  8
0
 62
0
 10
-8.881784197001252e-16
 20
0.0
 30
0.0
 11
-8.881784197001252e-16
 21
-6.225000000000001
 31
0.0
  0
LINE
  8
0
 62
0
 10
-8.881784197001252e-16
 20
0.0
 30
0.0
 11
-8.881784197001252e-16
 21
6.218203214605824
 31
0.0
  0
LINE
  8
0
 62
0
 10
-8.881784197001252e-16
 20
6.218203214605824
 30
0.0
 11
-4.000000000000002
 21
6.218203214605824
 31
0.0
  0
LINE
  8
0
 62
0
 10
-4.000000000000002
 20
6.218203214605824
 30
0.0
 11
-4.000000000000002
 21
9.768276507689713
 31
0.0
  0
LINE
  8
0
 62
0
 10
-8.881784197001252e-16
 20
9.768276507689711
 30
0.0
 11
-4.000000000000002
 21
9.768276507689711
 31
0.0
  0
LINE
  8
0
 62
0
 10
-8.881784197001252e-16
 20
9.768276507689711
 30
0.0
 11
-8.881784197001252e-16
 21
12.000000000000004
 31
0.0
  0
LINE
  8
0
 62
0
 10
-8.881784197001252e-16
 20
12.000000000000007
 30
0.0
 11
-8.881784197001252e-16
 21
16.000000000000007
 31
0.0
  0
LINE
  8
0
 62
0
 10
-8.881784197001252e-16
 20
16.000000000000007
 30
0.0
 11
-15.000000000000004
 21
16.000000000000007
 31
0.0
  0
LINE
  8
0
 62
0
 10
-15.000000000000007
 20
16.000000000000007
 30
0.0
 11
-18.916786194575767
 21
12.083213805551921
 31
0.0
  0
LINE
  8
0
 62
0
 10
-18.91678619457577
 20
12.083213805551923
 30
0.0
 11
-43.000000000000014
 21
12.083213805551923
 31
0.0
  0
LINE
  8
0
 62
0
 10
-45.000000000000014
 20
10.083213805551921
 30
0.0
 11
-43.000000000000014
 21
12.083213805551923
 31
0.0
  0
LINE
  8
0
 62
0
 10
-45.000000000000014
 20
10.083213805551923
 30
0.0
 11
-45.000000000000014
 21
-9.999999999999995
 31
0.0
  0
LINE
  8
0
 62
0
 10
-4.003125000000002
 20
-3.000011000000001
 30
0.0
 11
-4.003125000000002
 21
2.9999890000000007
 31
0.0
  0
LINE
  8
0
 62
0
 10
-4.003125000000002
 20
2.9999890000000002
 30
0.0
 11
-3.0031250000000016
 21
2.9999890000000002
 31
0.0
  0
LINE
  8
0
 62
0
 10
-3.0031250000000016
 20
2.9999890000000002
 30
0.0
 11
-3.0031250000000016
 21
-3.0000110000000015
 31
0.0
  0
LINE
  8
0
 62
0
 10
-3.0031250000000016
 20
-3.000011000000001
 30
0.0
 11
-4.003125000000002
 21
-3.000011000000001
 31
0.0
  0
LINE
  8
0
 62
0
 10
-6.006250000000002
 20
-3.000022000000001
 30
0.0
 11
-6.006250000000002
 21
2.999978000000001
 31
0.0
  0
LINE
  8
0
 62
0
 10
-6.006250000000002
 20
2.9999780000000005
 30
0.0
 11
-5.006250000000002
 21
2.9999780000000005
 31
0.0
  0
LINE
  8
0
 62
0
 10
-5.006250000000001
 20
2.9999780000000005
 30
0.0
 11
-5.006250000000001
 21
-3.0000220000000013
 31
0.0
  0
LINE
  8
0
 62
0
 10
-5.006250000000001
 20
-3.000022000000001
 30
0.0
 11
-6.006250000000001
 21
-3.000022000000001
 31
0.0
  0
LINE
  8
0
 62
0
 10
-44.00000000000001
 20
-7.500000000000002
 30
0.0
 11
-44.00000000000001
 21
-1.5
 31
0.0
  0
LINE
  8
0
 62
0
 10
-44.00000000000001
 20
-1.5000000000000004
 30
0.0
 11
-43.00000000000001
 21
-1.5000000000000004
 31
0.0
  0
LINE
  8
0
 62
0
 10
-43.00000000000001
 20
-1.5000000000000004
 30
0.0
 11
-43.00000000000001
 21
-7.500000000000002
 31
0.0
  0
LINE
  8
0
 62
0
 10
-43.00000000000001
 20
-7.500000000000002
 30
0.0
 11
-44.00000000000001
 21
-7.500000000000002
 31
0.0
  0
LINE
  8
0
 62
0
 10
-2.0000000000000013
 20
-3.000000000000001
 30
0.0
 11
-2.0000000000000013
 21
3.000000000000001
 31
0.0
  0
LINE
  8
0
 62
0
 10
-2.0000000000000013
 20
3.000000000000001
 30
0.0
 11
-1.000000000000001
 21
3.000000000000001
 31
0.0
  0
LINE
  8
0
 62
0
 10
-1.0000000000000009
 20
3.000000000000001
 30
0.0
 11
-1.0000000000000009
 21
-3.000000000000001
 31
0.0
  0
LINE
  8
0
 62
0
 10
-1.0000000000000009
 20
-3.000000000000001
 30
0.0
 11
-2.000000000000001
 21
-3.000000000000001
 31
0.0
  0
LINE
  8
0
 62
0
 10
-43.00000000000001
 20
7.500000000000002
 30
0.0
 11
-44.00000000000001
 21
7.500000000000002
 31
0.0
  0
LINE
  8
0
 62
0
 10
-43.00000000000001
 20
1.5000000000000004
 30
0.0
 11
-43.00000000000001
 21
7.500000000000002
 31
0.0
  0
LINE
  8
0
 62
0
 10
-44.00000000000001
 20
1.5000000000000004
 30
0.0
 11
-43.00000000000001
 21
1.5000000000000004
 31
0.0
  0
LINE
  8
0
 62
0
 10
-44.00000000000001
 20
7.500000000000002
 30
0.0
 11
-44.00000000000001
 21
1.5
 31
0.0
  0
ENDBLK
  0
ENDSEC
  0
SECTION
  2
ENTITIES
  0
INSERT
  2
BODY001
  8
0
 62
0
 10
0.0
 20
0.0
 30
0.0
  0
ENDSEC
  0
EOF
