  0
SECTION
  2
HEADER
  9
$ACADVER
  1
AC1009
  9
$INSBASE
 10
0.0
 20
0.0
 30
0.0
  9
$EXTMIN
 10
0.0
 20
0.0
 30
0.0
  9
$EXTMAX
 10
0.0
 20
0.0
 30
0.0
  0
ENDSEC
  0
SECTION
  2
TABLES
  0
TABLE
  2
VPORT
 70
0
  0
ENDTAB
  0
TABLE
  2
LTYPE
 70
1
  0
LTYPE
  2
CONTINUOUS
 70
0
  3
Solid line
 72
65
 73
0
 40
0.0
  0
ENDTAB
  0
TABLE
  2
LAYER
 70
1
  0
LAYER
  2
0
 70
64
 62
7
  6
continuous
  0
ENDTAB
  0
TABLE
  2
STYLE
 70
1
  0
STYLE
  2
STANDARD
 70
0
 40
0
 41
1.0
 50
0.0
 71
0
 42
1
 3
ARIAL.TTF
 4

  0
ENDTAB
  0
TABLE
  2
VIEW
 70
0
  0
ENDTAB
  0
ENDSEC
  0
SECTION
  2
BLOCKS
  0
BLOCK
  8
0
  2
TEST
 70
0
 10
0.0
 20
0.0
 30
0.0
  3
TEST
  0
LINE
  8
0
 62
0
 10
0.0
 20
4.0
 30
0.0
 11
0.0
 21
28.0
 31
0.0
  0
LINE
  8
0
 62
0
 10
13.75
 20
4.0
 30
0.0
 11
0.0
 21
4.0
 31
0.0
  0
LINE
  8
0
 62
0
 10
0.0
 20
28.0
 30
0.0
 11
13.75
 21
28.0
 31
0.0
  0
LINE
  8
0
 62
0
 10
13.75
 20
3.9999999999999996
 30
0.0
 11
13.75
 21
-4.440892098500626e-16
 31
0.0
  0
LINE
  8
0
 62
0
 10
13.75
 20
28.0
 30
0.0
 11
13.75
 21
32.0
 31
0.0
  0
LINE
  8
0
 62
0
 10
13.75
 20
0.0
 30
0.0
 11
18.25
 21
0.0
 31
0.0
  0
LINE
  8
0
 62
0
 10
18.25
 20
32.0
 30
0.0
 11
13.75
 21
32.0
 31
0.0
  0
LINE
  8
0
 62
0
 10
18.25
 20
28.0
 30
0.0
 11
18.25
 21
32.0
 31
0.0
  0
LINE
  8
0
 62
0
 10
18.25
 20
28.0
 30
0.0
 11
32.0
 21
28.0
 31
0.0
  0
LINE
  8
0
 62
0
 10
32.0
 20
28.0
 30
0.0
 11
32.0
 21
4.0
 31
0.0
  0
LINE
  8
0
 62
0
 10
32.0
 20
4.0
 30
0.0
 11
18.25
 21
4.0
 31
0.0
  0
LINE
  8
0
 62
0
 10
18.25
 20
3.9999999999999996
 30
0.0
 11
18.25
 21
-4.440892098500626e-16
 31
0.0
  0
ENDBLK
  0
BLOCK
  8
0
  2
TEST001
 70
0
 10
0.0
 20
0.0
 30
0.0
  3
TEST001
  0
LINE
  8
0
 62
0
 10
42.0
 20
4.0
 30
0.0
 11
42.0
 21
28.0
 31
0.0
  0
LINE
  8
0
 62
0
 10
55.75
 20
4.0
 30
0.0
 11
42.0
 21
4.0
 31
0.0
  0
LINE
  8
0
 62
0
 10
42.0
 20
28.0
 30
0.0
 11
55.75
 21
28.0
 31
0.0
  0
LINE
  8
0
 62
0
 10
55.75
 20
3.9999999999999996
 30
0.0
 11
55.75
 21
-4.440892098500626e-16
 31
0.0
  0
LINE
  8
0
 62
0
 10
55.75
 20
28.0
 30
0.0
 11
55.75
 21
32.0
 31
0.0
  0
LINE
  8
0
 62
0
 10
55.75
 20
0.0
 30
0.0
 11
60.25
 21
0.0
 31
0.0
  0
LINE
  8
0
 62
0
 10
60.25
 20
32.0
 30
0.0
 11
55.75
 21
32.0
 31
0.0
  0
LINE
  8
0
 62
0
 10
60.25
 20
28.0
 30
0.0
 11
60.25
 21
32.0
 31
0.0
  0
LINE
  8
0
 62
0
 10
60.25
 20
28.0
 30
0.0
 11
74.0
 21
28.0
 31
0.0
  0
LINE
  8
0
 62
0
 10
74.0
 20
28.0
 30
0.0
 11
74.0
 21
4.0
 31
0.0
  0
LINE
  8
0
 62
0
 10
74.0
 20
4.0
 30
0.0
 11
60.25
 21
4.0
 31
0.0
  0
LINE
  8
0
 62
0
 10
60.25
 20
3.9999999999999996
 30
0.0
 11
60.25
 21
-4.440892098500626e-16
 31
0.0
  0
ENDBLK
  0
BLOCK
  8
0
  2
TEST002
 70
0
 10
0.0
 20
0.0
 30
0.0
  3
TEST002
  0
LINE
  8
0
 62
0
 10
4.0
 20
42.0
 30
0.0
 11
28.0
 21
42.0
 31
0.0
  0
LINE
  8
0
 62
0
 10
4.0
 20
51.75
 30
0.0
 11
4.0
 21
42.0
 31
0.0
  0
LINE
  8
0
 62
0
 10
28.0
 20
42.0
 30
0.0
 11
28.0
 21
51.75
 31
0.0
  0
LINE
  8
0
 62
0
 10
3.999999999999999
 20
51.75
 30
0.0
 11
-8.881784197001252e-16
 21
51.75
 31
0.0
  0
LINE
  8
0
 62
0
 10
28.0
 20
51.75
 30
0.0
 11
32.0
 21
51.75
 31
0.0
  0
LINE
  8
0
 62
0
 10
-8.881784197001252e-16
 20
51.75
 30
0.0
 11
-8.881784197001252e-16
 21
56.25
 31
0.0
  0
LINE
  8
0
 62
0
 10
32.0
 20
56.25
 30
0.0
 11
32.0
 21
51.75
 31
0.0
  0
LINE
  8
0
 62
0
 10
28.0
 20
56.25
 30
0.0
 11
32.0
 21
56.25
 31
0.0
  0
LINE
  8
0
 62
0
 10
28.0
 20
56.25
 30
0.0
 11
28.0
 21
66.0
 31
0.0
  0
LINE
  8
0
 62
0
 10
28.0
 20
66.0
 30
0.0
 11
4.0
 21
66.0
 31
0.0
  0
LINE
  8
0
 62
0
 10
4.0
 20
66.0
 30
0.0
 11
4.0
 21
56.25
 31
0.0
  0
LINE
  8
0
 62
0
 10
3.999999999999999
 20
56.25
 30
0.0
 11
-8.881784197001252e-16
 21
56.25
 31
0.0
  0
ENDBLK
  0
BLOCK
  8
0
  2
TEST003
 70
0
 10
0.0
 20
0.0
 30
0.0
  3
TEST003
  0
LINE
  8
0
 62
0
 10
46.0
 20
42.0
 30
0.0
 11
70.0
 21
42.0
 31
0.0
  0
LINE
  8
0
 62
0
 10
46.0
 20
51.75
 30
0.0
 11
46.0
 21
42.0
 31
0.0
  0
LINE
  8
0
 62
0
 10
70.0
 20
42.0
 30
0.0
 11
70.0
 21
51.75
 31
0.0
  0
LINE
  8
0
 62
0
 10
46.0
 20
51.75
 30
0.0
 11
42.0
 21
51.75
 31
0.0
  0
LINE
  8
0
 62
0
 10
70.0
 20
51.75
 30
0.0
 11
74.0
 21
51.75
 31
0.0
  0
LINE
  8
0
 62
0
 10
42.0
 20
51.75
 30
0.0
 11
42.0
 21
56.25
 31
0.0
  0
LINE
  8
0
 62
0
 10
74.0
 20
56.25
 30
0.0
 11
74.0
 21
51.75
 31
0.0
  0
LINE
  8
0
 62
0
 10
70.0
 20
56.25
 30
0.0
 11
74.0
 21
56.25
 31
0.0
  0
LINE
  8
0
 62
0
 10
70.0
 20
56.25
 30
0.0
 11
70.0
 21
66.0
 31
0.0
  0
LINE
  8
0
 62
0
 10
70.0
 20
66.0
 30
0.0
 11
46.0
 21
66.0
 31
0.0
  0
LINE
  8
0
 62
0
 10
46.0
 20
66.0
 30
0.0
 11
46.0
 21
56.25
 31
0.0
  0
LINE
  8
0
 62
0
 10
46.0
 20
56.25
 30
0.0
 11
42.0
 21
56.25
 31
0.0
  0
ENDBLK
  0
BLOCK
  8
0
  2
TEST004
 70
0
 10
0.0
 20
0.0
 30
0.0
  3
TEST004
  0
LINE
  8
0
 62
0
 10
32.0
 20
76.0
 30
0.0
 11
32.0
 21
90.25
 31
0.0
  0
LINE
  8
0
 62
0
 10
17.75
 20
76.0
 30
0.0
 11
32.0
 21
76.0
 31
0.0
  0
LINE
  8
0
 62
0
 10
17.75
 20
79.75
 30
0.0
 11
17.75
 21
76.0
 31
0.0
  0
LINE
  8
0
 62
0
 10
17.75
 20
79.75
 30
0.0
 11
14.25
 21
79.75
 31
0.0
  0
LINE
  8
0
 62
0
 10
14.25
 20
79.75
 30
0.0
 11
14.25
 21
76.0
 31
0.0
  0
LINE
  8
0
 62
0
 10
0.0
 20
76.0
 30
0.0
 11
14.25
 21
76.0
 31
0.0
  0
LINE
  8
0
 62
0
 10
0.0
 20
90.25
 30
0.0
 11
0.0
 21
76.0
 31
0.0
  0
LINE
  8
0
 62
0
 10
3.749999999999999
 20
90.25
 30
0.0
 11
-8.881784197001252e-16
 21
90.25
 31
0.0
  0
LINE
  8
0
 62
0
 10
3.749999999999999
 20
90.25
 30
0.0
 11
3.749999999999999
 21
93.75
 31
0.0
  0
LINE
  8
0
 62
0
 10
3.749999999999999
 20
93.75
 30
0.0
 11
-8.881784197001252e-16
 21
93.75
 31
0.0
  0
LINE
  8
0
 62
0
 10
0.0
 20
108.0
 30
0.0
 11
0.0
 21
93.75
 31
0.0
  0
LINE
  8
0
 62
0
 10
14.25
 20
108.0
 30
0.0
 11
0.0
 21
108.0
 31
0.0
  0
LINE
  8
0
 62
0
 10
14.25
 20
108.0
 30
0.0
 11
14.25
 21
104.25
 31
0.0
  0
LINE
  8
0
 62
0
 10
17.75
 20
104.25
 30
0.0
 11
14.25
 21
104.25
 31
0.0
  0
LINE
  8
0
 62
0
 10
17.75
 20
108.0
 30
0.0
 11
17.75
 21
104.25
 31
0.0
  0
LINE
  8
0
 62
0
 10
32.0
 20
108.0
 30
0.0
 11
17.75
 21
108.0
 31
0.0
  0
LINE
  8
0
 62
0
 10
32.0
 20
93.75
 30
0.0
 11
32.0
 21
108.0
 31
0.0
  0
LINE
  8
0
 62
0
 10
32.0
 20
93.75
 30
0.0
 11
28.25
 21
93.75
 31
0.0
  0
LINE
  8
0
 62
0
 10
28.25
 20
90.25
 30
0.0
 11
28.25
 21
93.75
 31
0.0
  0
LINE
  8
0
 62
0
 10
32.0
 20
90.25
 30
0.0
 11
28.25
 21
90.25
 31
0.0
  0
ENDBLK
  0
BLOCK
  8
0
  2
TEST005
 70
0
 10
0.0
 20
0.0
 30
0.0
  3
TEST005
  0
LINE
  8
0
 62
0
 10
74.0
 20
76.0
 30
0.0
 11
74.0
 21
90.25
 31
0.0
  0
LINE
  8
0
 62
0
 10
59.75
 20
76.0
 30
0.0
 11
74.0
 21
76.0
 31
0.0
  0
LINE
  8
0
 62
0
 10
59.75
 20
79.75
 30
0.0
 11
59.75
 21
76.0
 31
0.0
  0
LINE
  8
0
 62
0
 10
56.25
 20
79.75
 30
0.0
 11
59.75
 21
79.75
 31
0.0
  0
LINE
  8
0
 62
0
 10
56.25
 20
79.75
 30
0.0
 11
56.25
 21
76.0
 31
0.0
  0
LINE
  8
0
 62
0
 10
42.0
 20
76.0
 30
0.0
 11
56.25
 21
76.0
 31
0.0
  0
LINE
  8
0
 62
0
 10
42.0
 20
90.25
 30
0.0
 11
42.0
 21
76.0
 31
0.0
  0
LINE
  8
0
 62
0
 10
45.75
 20
90.25
 30
0.0
 11
42.0
 21
90.25
 31
0.0
  0
LINE
  8
0
 62
0
 10
45.75
 20
93.75
 30
0.0
 11
45.75
 21
90.25
 31
0.0
  0
LINE
  8
0
 62
0
 10
45.75
 20
93.75
 30
0.0
 11
42.0
 21
93.75
 31
0.0
  0
LINE
  8
0
 62
0
 10
42.0
 20
108.0
 30
0.0
 11
42.0
 21
93.75
 31
0.0
  0
LINE
  8
0
 62
0
 10
56.25
 20
108.0
 30
0.0
 11
42.0
 21
108.0
 31
0.0
  0
LINE
  8
0
 62
0
 10
56.25
 20
108.0
 30
0.0
 11
56.25
 21
104.25
 31
0.0
  0
LINE
  8
0
 62
0
 10
56.25
 20
104.25
 30
0.0
 11
59.75
 21
104.25
 31
0.0
  0
LINE
  8
0
 62
0
 10
59.75
 20
108.0
 30
0.0
 11
59.75
 21
104.25
 31
0.0
  0
LINE
  8
0
 62
0
 10
74.0
 20
108.0
 30
0.0
 11
59.75
 21
108.0
 31
0.0
  0
LINE
  8
0
 62
0
 10
74.0
 20
93.75
 30
0.0
 11
74.0
 21
108.0
 31
0.0
  0
LINE
  8
0
 62
0
 10
74.0
 20
93.75
 30
0.0
 11
70.25
 21
93.75
 31
0.0
  0
LINE
  8
0
 62
0
 10
70.25
 20
93.75
 30
0.0
 11
70.25
 21
90.25
 31
0.0
  0
LINE
  8
0
 62
0
 10
74.0
 20
90.25
 30
0.0
 11
70.25
 21
90.25
 31
0.0
  0
ENDBLK
  0
ENDSEC
  0
SECTION
  2
ENTITIES
  0
INSERT
  2
TEST
  8
0
 62
0
 10
0.0
 20
0.0
 30
0.0
  0
INSERT
  2
TEST001
  8
0
 62
0
 10
0.0
 20
0.0
 30
0.0
  0
INSERT
  2
TEST002
  8
0
 62
0
 10
0.0
 20
0.0
 30
0.0
  0
INSERT
  2
TEST003
  8
0
 62
0
 10
0.0
 20
0.0
 30
0.0
  0
INSERT
  2
TEST004
  8
0
 62
0
 10
0.0
 20
0.0
 30
0.0
  0
INSERT
  2
TEST005
  8
0
 62
0
 10
0.0
 20
0.0
 30
0.0
  0
ENDSEC
  0
EOF
