  0
SECTION
  2
HEADER
  9
$ACADVER
  1
AC1009
  9
$INSBASE
 10
0.0
 20
0.0
 30
0.0
  9
$EXTMIN
 10
0.0
 20
0.0
 30
0.0
  9
$EXTMAX
 10
0.0
 20
0.0
 30
0.0
  0
ENDSEC
  0
SECTION
  2
TABLES
  0
TABLE
  2
VPORT
 70
0
  0
ENDTAB
  0
TABLE
  2
LTYPE
 70
1
  0
LTYPE
  2
CONTINUOUS
 70
0
  3
Solid line
 72
65
 73
0
 40
0.0
  0
ENDTAB
  0
TABLE
  2
LAYER
 70
1
  0
LAYER
  2
0
 70
64
 62
7
  6
continuous
  0
ENDTAB
  0
TABLE
  2
STYLE
 70
1
  0
STYLE
  2
STANDARD
 70
0
 40
0
 41
1.0
 50
0.0
 71
0
 42
1
 3
ARIAL.TTF
 4

  0
ENDTAB
  0
TABLE
  2
VIEW
 70
0
  0
ENDTAB
  0
ENDSEC
  0
SECTION
  2
BLOCKS
  0
BLOCK
  8
0
  2
BODY010
 70
0
 10
0.0
 20
0.0
 30
0.0
  3
BODY010
  0
POLYLINE
  8
0
 62
0
 70
0
 66
1
 10
0.0
 20
0.0
 30
0.0
  0
VERTEX
  8
0
 10
11.999990558340087
 20
-5.518966914055032e-16
 30
0.0
  0
VERTEX
  8
0
 10
11.086544948475533
 20
-4.592201188381078
 30
0.0
  0
VERTEX
  8
0
 10
8.48527193257867
 20
-8.485281374238573
 30
0.0
  0
VERTEX
  8
0
 10
4.592191746721191
 20
-11.086554390135444
 30
0.0
  0
VERTEX
  8
0
 10
-9.441659869752466e-06
 20
-12.000000000000004
 30
0.0
  0
VERTEX
  8
0
 10
-4.59221063004093
 20
-11.086554390135445
 30
0.0
  0
VERTEX
  8
0
 10
-8.48529081589841
 20
-8.485281374238573
 30
0.0
  0
VERTEX
  8
0
 10
-11.08656383179527
 20
-4.59220118838108
 30
0.0
  0
VERTEX
  8
0
 10
-12.000009441659827
 20
4.411391052678502e-15
 30
0.0
  0
VERTEX
  8
0
 10
-11.086563831795273
 20
4.592201188381077
 30
0.0
  0
VERTEX
  8
0
 10
-8.485290815898415
 20
8.485281374238568
 30
0.0
  0
VERTEX
  8
0
 10
-4.592210630040933
 20
11.086554390135444
 30
0.0
  0
VERTEX
  8
0
 10
-9.441659866258755e-06
 20
12.000000000000004
 30
0.0
  0
VERTEX
  8
0
 10
4.592191746721198
 20
11.086554390135442
 30
0.0
  0
VERTEX
  8
0
 10
8.485271932578666
 20
8.485281374238578
 30
0.0
  0
VERTEX
  8
0
 10
11.086544948475531
 20
4.592201188381082
 30
0.0
  0
VERTEX
  8
0
 10
11.999990558340087
 20
-2.9418148957507497e-15
 30
0.0
  0
SEQEND
  8
0
  0
POLYLINE
  8
0
 62
0
 70
0
 66
1
 10
0.0
 20
0.0
 30
0.0
  0
VERTEX
  8
0
 10
2.995223558340114
 20
-9.540889857644887
 30
0.0
  0
VERTEX
  8
0
 10
0.9999905583401218
 20
-9.949874371066201
 30
0.0
  0
SEQEND
  8
0
  0
LINE
  8
0
 62
0
 10
0.9999905583401242
 20
-9.949874371066201
 30
0.0
 11
0.9999905583401242
 21
9.949874371066201
 31
0.0
  0
POLYLINE
  8
0
 62
0
 70
0
 66
1
 10
0.0
 20
0.0
 30
0.0
  0
VERTEX
  8
0
 10
0.9999905583401316
 20
9.949874371066201
 30
0.0
  0
VERTEX
  8
0
 10
2.995223558340119
 20
9.540889857644885
 30
0.0
  0
SEQEND
  8
0
  0
LINE
  8
0
 62
0
 10
2.995223558340112
 20
-9.540889857644887
 30
0.0
 11
2.995223558340112
 21
9.540889857644887
 31
0.0
  0
POLYLINE
  8
0
 62
0
 70
0
 66
1
 10
0.0
 20
0.0
 30
0.0
  0
VERTEX
  8
0
 10
-1.0000094416598613
 20
-9.949874371066203
 30
0.0
  0
VERTEX
  8
0
 10
-2.961816441659851
 20
-9.5513192436831
 30
0.0
  0
SEQEND
  8
0
  0
LINE
  8
0
 62
0
 10
-1.000009441659865
 20
-9.949874371066201
 30
0.0
 11
-1.000009441659865
 21
9.949874371066201
 31
0.0
  0
POLYLINE
  8
0
 62
0
 70
0
 66
1
 10
0.0
 20
0.0
 30
0.0
  0
VERTEX
  8
0
 10
-2.9618164416598525
 20
9.551319243683098
 30
0.0
  0
VERTEX
  8
0
 10
-1.0000094416598628
 20
9.949874371066201
 30
0.0
  0
SEQEND
  8
0
  0
LINE
  8
0
 62
0
 10
-2.9618164416598574
 20
-9.551319243683098
 30
0.0
 11
-2.9618164416598574
 21
9.551319243683098
 31
0.0
  0
POLYLINE
  8
0
 62
0
 70
0
 66
1
 10
0.0
 20
0.0
 30
0.0
  0
VERTEX
  8
0
 10
-4.961816441659851
 20
-8.682192769960306
 30
0.0
  0
VERTEX
  8
0
 10
-6.9236234416598466
 20
-7.215508934164242
 30
0.0
  0
SEQEND
  8
0
  0
LINE
  8
0
 62
0
 10
-4.961816441659851
 20
-8.682192769960308
 30
0.0
 11
-4.961816441659851
 21
8.682192769960308
 31
0.0
  0
POLYLINE
  8
0
 62
0
 70
0
 66
1
 10
0.0
 20
0.0
 30
0.0
  0
VERTEX
  8
0
 10
-6.923623441659851
 20
7.215508934164237
 30
0.0
  0
VERTEX
  8
0
 10
-4.961816441659849
 20
8.68219276996031
 30
0.0
  0
SEQEND
  8
0
  0
LINE
  8
0
 62
0
 10
-6.923623441659847
 20
-7.215508934164243
 30
0.0
 11
-6.923623441659847
 21
7.215508934164241
 31
0.0
  0
POLYLINE
  8
0
 62
0
 70
0
 66
1
 10
0.0
 20
0.0
 30
0.0
  0
VERTEX
  8
0
 10
6.990456558340104
 20
-7.150761155488556
 30
0.0
  0
VERTEX
  8
0
 10
4.9952235583401166
 20
-8.663004517816608
 30
0.0
  0
SEQEND
  8
0
  0
LINE
  8
0
 62
0
 10
4.995223558340111
 20
-8.663004517816612
 30
0.0
 11
4.995223558340111
 21
8.663004517816612
 31
0.0
  0
POLYLINE
  8
0
 62
0
 70
0
 66
1
 10
0.0
 20
0.0
 30
0.0
  0
VERTEX
  8
0
 10
4.995223558340117
 20
8.663004517816608
 30
0.0
  0
VERTEX
  8
0
 10
6.9904565583401075
 20
7.150761155488554
 30
0.0
  0
SEQEND
  8
0
  0
LINE
  8
0
 62
0
 10
6.990456558340101
 20
-7.150761155488557
 30
0.0
 11
6.990456558340101
 21
7.150761155488559
 31
0.0
  0
POLYLINE
  8
0
 62
0
 70
0
 66
1
 10
0.0
 20
0.0
 30
0.0
  0
VERTEX
  8
0
 10
-8.92362344165984
 20
-4.513215392489482
 30
0.0
  0
VERTEX
  8
0
 10
-10.000009441659834
 20
3.6761592083596035e-15
 30
0.0
  0
VERTEX
  8
0
 10
-8.923623441659835
 20
4.513215392489489
 30
0.0
  0
SEQEND
  8
0
  0
LINE
  8
0
 62
0
 10
-8.923623441659839
 20
-4.513215392489486
 30
0.0
 11
-8.923623441659839
 21
4.5132153924894824
 31
0.0
  0
LINE
  8
0
 62
0
 10
8.990456558340098
 20
-4.378529559434769
 30
0.0
 11
8.990456558340098
 21
4.378529559434774
 31
0.0
  0
POLYLINE
  8
0
 62
0
 70
0
 66
1
 10
0.0
 20
0.0
 30
0.0
  0
VERTEX
  8
0
 10
8.990456558340103
 20
4.3785295594347575
 30
0.0
  0
VERTEX
  8
0
 10
9.999990558340095
 20
-4.900806008005212e-15
 30
0.0
  0
VERTEX
  8
0
 10
8.990456558340098
 20
-4.378529559434767
 30
0.0
  0
SEQEND
  8
0
  0
ENDBLK
  0
ENDSEC
  0
SECTION
  2
ENTITIES
  0
INSERT
  2
BODY010
  8
0
 62
0
 10
0.0
 20
0.0
 30
0.0
  0
ENDSEC
  0
EOF
