  0
SECTION
  2
HEADER
  9
$ACADVER
  1
AC1009
  9
$INSBASE
 10
0.0
 20
0.0
 30
0.0
  9
$EXTMIN
 10
0.0
 20
0.0
 30
0.0
  9
$EXTMAX
 10
0.0
 20
0.0
 30
0.0
  0
ENDSEC
  0
SECTION
  2
TABLES
  0
TABLE
  2
VPORT
 70
0
  0
ENDTAB
  0
TABLE
  2
LTYPE
 70
1
  0
LTYPE
  2
CONTINUOUS
 70
0
  3
Solid line
 72
65
 73
0
 40
0.0
  0
ENDTAB
  0
TABLE
  2
LAYER
 70
1
  0
LAYER
  2
0
 70
64
 62
7
  6
continuous
  0
ENDTAB
  0
TABLE
  2
STYLE
 70
1
  0
STYLE
  2
STANDARD
 70
0
 40
0
 41
1.0
 50
0.0
 71
0
 42
1
 3
ARIAL.TTF
 4

  0
ENDTAB
  0
TABLE
  2
VIEW
 70
0
  0
ENDTAB
  0
ENDSEC
  0
SECTION
  2
BLOCKS
  0
BLOCK
  8
0
  2
BODY003
 70
0
 10
0.0
 20
0.0
 30
0.0
  3
BODY003
  0
LINE
  8
0
 62
0
 10
-10.77501197692035
 20
15.99999999999589
 30
0.0
 11
-18.000015591963244
 21
15.99999999999589
 31
0.0
  0
LINE
  8
0
 62
0
 10
-18.000015591963244
 20
15.99999999999589
 30
0.0
 11
-18.000015591963244
 21
11.99999999999589
 31
0.0
  0
LINE
  8
0
 62
0
 10
-18.000015591963244
 20
11.99999999999589
 30
0.0
 11
-15.171584852175336
 21
9.171576490296049
 31
0.0
  0
LINE
  8
0
 62
0
 10
-15.171584852175336
 20
9.171576490296049
 30
0.0
 11
-10.5774495060504
 21
9.171576490296049
 31
0.0
  0
POLYLINE
  8
0
 62
0
 70
0
 66
1
 10
0.0
 20
0.0
 30
0.0
  0
VERTEX
  8
0
 10
-14.000011976920337
 20
5.146622896997401e-15
 30
0.0
  0
VERTEX
  8
0
 10
-13.605007124467598
 20
3.3021367378131936
 30
0.0
  0
VERTEX
  8
0
 10
-12.442282400460979
 20
6.417936327783714
 30
0.0
  0
VERTEX
  8
0
 10
-10.577449506050398
 20
9.17157649029605
 30
0.0
  0
SEQEND
  8
0
  0
LINE
  8
0
 62
0
 10
-14.000011976920337
 20
-1.71e-15
 30
0.0
 11
-10.000011976920351
 21
-1.2299999999999999e-15
 31
0.0
  0
POLYLINE
  8
0
 62
0
 70
0
 66
1
 10
0.0
 20
0.0
 30
0.0
  0
VERTEX
  8
0
 10
-10.000011976920353
 20
3.676159211668326e-15
 30
0.0
  0
VERTEX
  8
0
 10
-9.241802478942349
 20
3.819595307979118
 30
0.0
  0
VERTEX
  8
0
 10
-7.082150313573148
 20
7.059979927769833
 30
0.0
  0
VERTEX
  8
0
 10
-3.8485492376350923
 20
9.229775780206715
 30
0.0
  0
VERTEX
  8
0
 10
-0.03134866081780685
 20
9.999950900491578
 30
0.0
  0
SEQEND
  8
0
  0
POLYLINE
  8
0
 62
0
 70
0
 66
1
 10
0.0
 20
0.0
 30
0.0
  0
VERTEX
  8
0
 10
-0.03134866081780685
 20
9.999950900491578
 30
0.0
  0
VERTEX
  8
0
 10
3.805098271394645
 20
9.247763837716002
 30
0.0
  0
VERTEX
  8
0
 10
7.059967950849416
 20
7.0821383366527835
 30
0.0
  0
VERTEX
  8
0
 10
9.235782501025106
 20
3.8340709906248254
 30
0.0
  0
VERTEX
  8
0
 10
9.999988023079572
 20
-2.4515124120227173e-15
 30
0.0
  0
SEQEND
  8
0
  0
LINE
  8
0
 62
0
 10
9.999988023079572
 20
0.0
 30
0.0
 11
13.999988023079556
 21
3.44e-15
 31
0.0
  0
POLYLINE
  8
0
 62
0
 70
0
 66
1
 10
0.0
 20
0.0
 30
0.0
  0
VERTEX
  8
0
 10
10.577428686771178
 20
9.171572875253364
 30
0.0
  0
VERTEX
  8
0
 10
12.44225990892177
 20
6.417933492860502
 30
0.0
  0
VERTEX
  8
0
 10
13.604983546816252
 20
3.3021351878904865
 30
0.0
  0
VERTEX
  8
0
 10
13.999988023079556
 20
-6.861128411207297e-15
 30
0.0
  0
SEQEND
  8
0
  0
LINE
  8
0
 62
0
 10
15.180087735149092
 20
9.171572875253357
 30
0.0
 11
10.577428686770801
 21
9.171572875253357
 31
0.0
  0
LINE
  8
0
 62
0
 10
18.00840902307954
 20
12.000105832855123
 30
0.0
 11
15.180087735149092
 21
9.171572875253357
 31
0.0
  0
LINE
  8
0
 62
0
 10
18.00840902307954
 20
16.000002
 30
0.0
 11
18.00840902307954
 21
12.000105832855123
 31
0.0
  0
LINE
  8
0
 62
0
 10
10.774988023079569
 20
16.000002
 30
0.0
 11
18.00840902307954
 21
16.000002
 31
0.0
  0
LINE
  8
0
 62
0
 10
10.774988023079569
 20
16.000002
 30
0.0
 11
10.774988023079569
 21
11.99999999999589
 31
0.0
  0
LINE
  8
0
 62
0
 10
10.774988023079569
 20
11.99999999999589
 30
0.0
 11
7.224988023079582
 21
11.99999999999589
 31
0.0
  0
LINE
  8
0
 62
0
 10
7.224988023079582
 20
11.99999999999589
 30
0.0
 11
7.2249880230795815
 21
16.0
 31
0.0
  0
LINE
  8
0
 62
0
 10
7.2249880230795815
 20
16.0
 30
0.0
 11
-7.225011976920363
 21
16.0
 31
0.0
  0
LINE
  8
0
 62
0
 10
-7.225011976920364
 20
11.99999999999589
 30
0.0
 11
-7.225011976920363
 21
16.0
 31
0.0
  0
LINE
  8
0
 62
0
 10
-10.77501197692035
 20
11.99999999999589
 30
0.0
 11
-7.225011976920364
 21
11.99999999999589
 31
0.0
  0
LINE
  8
0
 62
0
 10
-10.77501197692035
 20
15.99999999999589
 30
0.0
 11
-10.77501197692035
 21
11.99999999999589
 31
0.0
  0
ENDBLK
  0
ENDSEC
  0
SECTION
  2
ENTITIES
  0
INSERT
  2
BODY003
  8
0
 62
0
 10
0.0
 20
0.0
 30
0.0
  0
ENDSEC
  0
EOF
