  0
SECTION
  2
HEADER
  9
$ACADVER
  1
AC1009
  9
$INSBASE
 10
0.0
 20
0.0
 30
0.0
  9
$EXTMIN
 10
0.0
 20
0.0
 30
0.0
  9
$EXTMAX
 10
0.0
 20
0.0
 30
0.0
  0
ENDSEC
  0
SECTION
  2
TABLES
  0
TABLE
  2
VPORT
 70
0
  0
ENDTAB
  0
TABLE
  2
LTYPE
 70
1
  0
LTYPE
  2
CONTINUOUS
 70
0
  3
Solid line
 72
65
 73
0
 40
0.0
  0
ENDTAB
  0
TABLE
  2
LAYER
 70
1
  0
LAYER
  2
0
 70
64
 62
7
  6
continuous
  0
ENDTAB
  0
TABLE
  2
STYLE
 70
1
  0
STYLE
  2
STANDARD
 70
0
 40
0
 41
1.0
 50
0.0
 71
0
 42
1
 3
ARIAL.TTF
 4

  0
ENDTAB
  0
TABLE
  2
VIEW
 70
0
  0
ENDTAB
  0
ENDSEC
  0
SECTION
  2
BLOCKS
  0
BLOCK
  8
0
  2
BODY009
 70
0
 10
0.0
 20
0.0
 30
0.0
  3
BODY009
  0
POLYLINE
  8
0
 62
0
 70
0
 66
1
 10
0.0
 20
0.0
 30
0.0
  0
VERTEX
  8
0
 10
11.99998818079364
 20
-1.0684226996257923e-13
 30
0.0
  0
VERTEX
  8
0
 10
11.086542570929085
 20
-4.592201188381184
 30
0.0
  0
VERTEX
  8
0
 10
8.485269555032227
 20
-8.485281374238678
 30
0.0
  0
VERTEX
  8
0
 10
4.592189369174761
 20
-11.086554390135545
 30
0.0
  0
VERTEX
  8
0
 10
-1.1819206295863376e-05
 20
-12.000000000000105
 30
0.0
  0
VERTEX
  8
0
 10
-4.592213007587342
 20
-11.086554390135547
 30
0.0
  0
VERTEX
  8
0
 10
-8.485293193444818
 20
-8.485281374238674
 30
0.0
  0
VERTEX
  8
0
 10
-11.08656620934167
 20
-4.592201188381186
 30
0.0
  0
VERTEX
  8
0
 10
-12.000011819206225
 20
-1.033492348106407e-13
 30
0.0
  0
VERTEX
  8
0
 10
-11.086566209341672
 20
4.592201188380969
 30
0.0
  0
VERTEX
  8
0
 10
-8.485293193444814
 20
8.485281374238467
 30
0.0
  0
VERTEX
  8
0
 10
-4.592213007587348
 20
11.086554390135335
 30
0.0
  0
VERTEX
  8
0
 10
-1.1819206291175384e-05
 20
11.999999999999895
 30
0.0
  0
VERTEX
  8
0
 10
4.592189369174765
 20
11.086554390135333
 30
0.0
  0
VERTEX
  8
0
 10
8.48526955503223
 20
8.485281374238467
 30
0.0
  0
VERTEX
  8
0
 10
11.086542570929085
 20
4.592201188380976
 30
0.0
  0
VERTEX
  8
0
 10
11.99998818079364
 20
-1.065676529078241e-13
 30
0.0
  0
SEQEND
  8
0
  0
POLYLINE
  8
0
 62
0
 70
0
 66
1
 10
0.0
 20
0.0
 30
0.0
  0
VERTEX
  8
0
 10
-7.2026651319827355
 20
8.263313484556196
 30
0.0
  0
VERTEX
  8
0
 10
-7.2026651319827355
 20
8.263313484556196
 30
0.0
  0
SEQEND
  8
0
  0
POLYLINE
  8
0
 62
0
 70
0
 66
1
 10
0.0
 20
0.0
 30
0.0
  0
VERTEX
  8
0
 10
-10.936101819206232
 20
0.7499999999998955
 30
0.0
  0
VERTEX
  8
0
 10
-10.936101819206232
 20
0.7499999999998955
 30
0.0
  0
SEQEND
  8
0
  0
POLYLINE
  8
0
 62
0
 70
0
 66
1
 10
0.0
 20
0.0
 30
0.0
  0
VERTEX
  8
0
 10
-8.26332530376255
 20
-7.202653312776585
 30
0.0
  0
VERTEX
  8
0
 10
-8.26332530376255
 20
-7.202653312776585
 30
0.0
  0
SEQEND
  8
0
  0
POLYLINE
  8
0
 62
0
 70
0
 66
1
 10
0.0
 20
0.0
 30
0.0
  0
VERTEX
  8
0
 10
0.749988180793703
 20
10.936089999999895
 30
0.0
  0
VERTEX
  8
0
 10
0.749988180793703
 20
10.936089999999895
 30
0.0
  0
SEQEND
  8
0
  0
POLYLINE
  8
0
 62
0
 70
0
 66
1
 10
0.0
 20
0.0
 30
0.0
  0
VERTEX
  8
0
 10
8.263301665349964
 20
7.2026533127763726
 30
0.0
  0
VERTEX
  8
0
 10
8.263301665349964
 20
7.202653312776372
 30
0.0
  0
SEQEND
  8
0
  0
POLYLINE
  8
0
 62
0
 70
0
 66
1
 10
0.0
 20
0.0
 30
0.0
  0
VERTEX
  8
0
 10
9.999988180793652
 20
-1.0665076362179001e-13
 30
0.0
  0
VERTEX
  8
0
 10
8.854548437325759
 20
-4.64723172043779
 30
0.0
  0
VERTEX
  8
0
 10
5.680635648105235
 20
-8.229838658936668
 30
0.0
  0
VERTEX
  8
0
 10
1.205354983346932
 20
-9.927088740980645
 30
0.0
  0
VERTEX
  8
0
 10
-3.546060689631629
 20
-9.350162426854252
 30
0.0
  0
VERTEX
  8
0
 10
-7.485119300917263
 20
-6.6312265824080585
 30
0.0
  0
VERTEX
  8
0
 10
-9.70942999346676
 20
-2.393156642875688
 30
0.0
  0
VERTEX
  8
0
 10
-9.709429993466761
 20
2.393156642875472
 30
0.0
  0
VERTEX
  8
0
 10
-7.485119300917266
 20
6.631226582407843
 30
0.0
  0
VERTEX
  8
0
 10
-3.5460606896316293
 20
9.350162426854043
 30
0.0
  0
VERTEX
  8
0
 10
1.205354983346927
 20
9.927088740980436
 30
0.0
  0
VERTEX
  8
0
 10
5.680635648105234
 20
8.229838658936458
 30
0.0
  0
VERTEX
  8
0
 10
8.854548437325755
 20
4.647231720437583
 30
0.0
  0
VERTEX
  8
0
 10
9.999988180793652
 20
-1.0642191607174911e-13
 30
0.0
  0
SEQEND
  8
0
  0
POLYLINE
  8
0
 62
0
 70
0
 66
1
 10
0.0
 20
0.0
 30
0.0
  0
VERTEX
  8
0
 10
-0.7500118192062899
 20
-10.936090000000105
 30
0.0
  0
VERTEX
  8
0
 10
-0.7500118192062899
 20
-10.936090000000103
 30
0.0
  0
SEQEND
  8
0
  0
POLYLINE
  8
0
 62
0
 70
0
 66
1
 10
0.0
 20
0.0
 30
0.0
  0
VERTEX
  8
0
 10
10.936078180793647
 20
-0.7500000000001081
 30
0.0
  0
VERTEX
  8
0
 10
10.936078180793647
 20
-0.7500000000001081
 30
0.0
  0
SEQEND
  8
0
  0
POLYLINE
  8
0
 62
0
 70
0
 66
1
 10
0.0
 20
0.0
 30
0.0
  0
VERTEX
  8
0
 10
7.202641493570148
 20
-8.26331348455641
 30
0.0
  0
VERTEX
  8
0
 10
7.202641493570148
 20
-8.26331348455641
 30
0.0
  0
SEQEND
  8
0
  0
POLYLINE
  8
0
 62
0
 70
0
 66
1
 10
0.0
 20
0.0
 30
0.0
  0
VERTEX
  8
0
 10
-10.936101871970546
 20
0.7499999999998952
 30
0.0
  0
VERTEX
  8
0
 10
-10.936101871970546
 20
0.7499999999998952
 30
0.0
  0
SEQEND
  8
0
  0
POLYLINE
  8
0
 62
0
 70
0
 66
1
 10
0.0
 20
0.0
 30
0.0
  0
VERTEX
  8
0
 10
-8.263325356526863
 20
-7.202653312776586
 30
0.0
  0
VERTEX
  8
0
 10
-8.263325356526863
 20
-7.202653312776586
 30
0.0
  0
SEQEND
  8
0
  0
POLYLINE
  8
0
 62
0
 70
0
 66
1
 10
0.0
 20
0.0
 30
0.0
  0
VERTEX
  8
0
 10
-0.7500118719706037
 20
-10.936090000000107
 30
0.0
  0
VERTEX
  8
0
 10
-0.7500118719706037
 20
-10.936090000000105
 30
0.0
  0
SEQEND
  8
0
  0
POLYLINE
  8
0
 62
0
 70
0
 66
1
 10
0.0
 20
0.0
 30
0.0
  0
VERTEX
  8
0
 10
7.202641440805834
 20
-8.26331348455641
 30
0.0
  0
VERTEX
  8
0
 10
7.202641440805834
 20
-8.26331348455641
 30
0.0
  0
SEQEND
  8
0
  0
ENDBLK
  0
ENDSEC
  0
SECTION
  2
ENTITIES
  0
INSERT
  2
BODY009
  8
0
 62
0
 10
0.0
 20
0.0
 30
0.0
  0
ENDSEC
  0
EOF
