  0
SECTION
  2
HEADER
  9
$ACADVER
  1
AC1009
  9
$INSBASE
 10
0.0
 20
0.0
 30
0.0
  9
$EXTMIN
 10
0.0
 20
0.0
 30
0.0
  9
$EXTMAX
 10
0.0
 20
0.0
 30
0.0
  0
ENDSEC
  0
SECTION
  2
TABLES
  0
TABLE
  2
VPORT
 70
0
  0
ENDTAB
  0
TABLE
  2
LTYPE
 70
1
  0
LTYPE
  2
CONTINUOUS
 70
0
  3
Solid line
 72
65
 73
0
 40
0.0
  0
ENDTAB
  0
TABLE
  2
LAYER
 70
1
  0
LAYER
  2
0
 70
64
 62
7
  6
continuous
  0
ENDTAB
  0
TABLE
  2
STYLE
 70
1
  0
STYLE
  2
STANDARD
 70
0
 40
0
 41
1.0
 50
0.0
 71
0
 42
1
 3
ARIAL.TTF
 4

  0
ENDTAB
  0
TABLE
  2
VIEW
 70
0
  0
ENDTAB
  0
ENDSEC
  0
SECTION
  2
BLOCKS
  0
BLOCK
  8
0
  2
BODY006
 70
0
 10
0.0
 20
0.0
 30
0.0
  3
BODY006
  0
LINE
  8
0
 62
0
 10
-112.46332435268488
 20
3.548549394101334
 30
0.0
 11
-114.46332435268486
 21
3.550000000154588
 31
0.0
  0
POLYLINE
  8
0
 62
0
 70
0
 66
1
 10
0.0
 20
0.0
 30
0.0
  0
VERTEX
  8
0
 10
-112.46332435268488
 20
3.54854939410133
 30
0.0
  0
VERTEX
  8
0
 10
-110.74120689376471
 20
7.00777390229518
 30
0.0
  0
VERTEX
  8
0
 10
-108.00898566043858
 20
9.740334948743822
 30
0.0
  0
VERTEX
  8
0
 10
-104.54997534969071
 20
11.462882599912424
 30
0.0
  0
SEQEND
  8
0
  0
LINE
  8
0
 62
0
 10
-104.5499753496907
 20
11.462882599912426
 30
0.0
 11
-104.5499753496907
 21
13.462882599912424
 31
0.0
  0
LINE
  8
0
 62
0
 10
-97.45002534969073
 20
13.462882599912424
 30
0.0
 11
-104.5499753496907
 21
13.462882599912424
 31
0.0
  0
LINE
  8
0
 62
0
 10
-97.45002534969073
 20
11.462882599912424
 30
0.0
 11
-97.45002534969073
 21
13.462882599912424
 31
0.0
  0
POLYLINE
  8
0
 62
0
 70
0
 66
1
 10
0.0
 20
0.0
 30
0.0
  0
VERTEX
  8
0
 10
-97.45002534969073
 20
11.46288259991242
 30
0.0
  0
VERTEX
  8
0
 10
-93.99143177049976
 20
9.740634808408371
 30
0.0
  0
VERTEX
  8
0
 10
-91.25939347477883
 20
7.008607401504132
 30
0.0
  0
VERTEX
  8
0
 10
-89.53713189868427
 20
3.550020686548166
 30
0.0
  0
SEQEND
  8
0
  0
LINE
  8
0
 62
0
 10
-89.53713189868427
 20
3.550020686548175
 30
0.0
 11
-87.53713189868428
 21
3.550020686548175
 31
0.0
  0
LINE
  8
0
 62
0
 10
-87.53713189868428
 20
3.550020686548175
 30
0.0
 11
-87.53713168606211
 21
-3.5500199999999995
 31
0.0
  0
LINE
  8
0
 62
0
 10
-89.5371316860621
 20
-3.5500199999999995
 30
0.0
 11
-87.53713168606211
 21
-3.5500199999999995
 31
0.0
  0
POLYLINE
  8
0
 62
0
 70
0
 66
1
 10
0.0
 20
0.0
 30
0.0
  0
VERTEX
  8
0
 10
-89.53713168606211
 20
-3.550020000000002
 30
0.0
  0
VERTEX
  8
0
 10
-91.25938809978847
 20
-7.008599931302502
 30
0.0
  0
VERTEX
  8
0
 10
-93.99141741346342
 20
-9.740624478236658
 30
0.0
  0
VERTEX
  8
0
 10
-97.45000034969074
 20
-11.462874857556459
 30
0.0
  0
SEQEND
  8
0
  0
LINE
  8
0
 62
0
 10
-97.45000034969074
 20
-13.462874857556459
 30
0.0
 11
-97.45000034969074
 21
-11.462874857556459
 31
0.0
  0
LINE
  8
0
 62
0
 10
-104.5500003496907
 20
-13.462874857556459
 30
0.0
 11
-97.45000034969073
 21
-13.462874857556459
 31
0.0
  0
LINE
  8
0
 62
0
 10
-104.5500003496907
 20
-11.462874857556457
 30
0.0
 11
-104.5500003496907
 21
-13.462874857556459
 31
0.0
  0
POLYLINE
  8
0
 62
0
 70
0
 66
1
 10
0.0
 20
0.0
 30
0.0
  0
VERTEX
  8
0
 10
-104.5500003496907
 20
-11.462874857556459
 30
0.0
  0
VERTEX
  8
0
 10
-108.00897980111819
 20
-9.740339165012031
 30
0.0
  0
VERTEX
  8
0
 10
-110.74118317900077
 20
-7.007806867055791
 30
0.0
  0
VERTEX
  8
0
 10
-112.46330247011565
 20
-3.5486200833366706
 30
0.0
  0
SEQEND
  8
0
  0
LINE
  8
0
 62
0
 10
-114.46330247011565
 20
-3.5499999998454097
 30
0.0
 11
-112.46330247011566
 21
-3.5486200833366666
 31
0.0
  0
LINE
  8
0
 62
0
 10
-114.46332435268488
 20
3.550000000154588
 30
0.0
 11
-114.46330247011565
 21
-3.5499999998454097
 31
0.0
  0
LINE
  8
0
 62
0
 10
-100.00000034969072
 20
-9.9498743710662
 30
0.0
 11
-100.00000034969072
 21
9.9498743710662
 31
0.0
  0
POLYLINE
  8
0
 62
0
 70
0
 66
1
 10
0.0
 20
0.0
 30
0.0
  0
VERTEX
  8
0
 10
-100.00000034969072
 20
9.9498743710662
 30
0.0
  0
VERTEX
  8
0
 10
-97.96586634969073
 20
9.528590182710346
 30
0.0
  0
SEQEND
  8
0
  0
LINE
  8
0
 62
0
 10
-97.96586634969074
 20
9.528590182710348
 30
0.0
 11
-97.96586634969074
 21
-9.528590182710348
 31
0.0
  0
POLYLINE
  8
0
 62
0
 70
0
 66
1
 10
0.0
 20
0.0
 30
0.0
  0
VERTEX
  8
0
 10
-97.96586634969074
 20
-9.528590182710348
 30
0.0
  0
VERTEX
  8
0
 10
-100.00000034969072
 20
-9.9498743710662
 30
0.0
  0
SEQEND
  8
0
  0
LINE
  8
0
 62
0
 10
-103.97248134969071
 20
-9.548002759982792
 30
0.0
 11
-103.97248134969071
 21
9.548002759982792
 31
0.0
  0
POLYLINE
  8
0
 62
0
 70
0
 66
1
 10
0.0
 20
0.0
 30
0.0
  0
VERTEX
  8
0
 10
-103.97248134969071
 20
9.548002759982792
 30
0.0
  0
VERTEX
  8
0
 10
-102.00000034969071
 20
9.9498743710662
 30
0.0
  0
SEQEND
  8
0
  0
LINE
  8
0
 62
0
 10
-102.00000034969072
 20
9.9498743710662
 30
0.0
 11
-102.00000034969072
 21
-9.9498743710662
 31
0.0
  0
POLYLINE
  8
0
 62
0
 70
0
 66
1
 10
0.0
 20
0.0
 30
0.0
  0
VERTEX
  8
0
 10
-102.00000034969072
 20
-9.9498743710662
 30
0.0
  0
VERTEX
  8
0
 10
-103.97248134969071
 20
-9.548002759982792
 30
0.0
  0
SEQEND
  8
0
  0
LINE
  8
0
 62
0
 10
-105.97248134969071
 20
8.67608394983814
 30
0.0
 11
-105.97248134969071
 21
-8.67608394983814
 31
0.0
  0
POLYLINE
  8
0
 62
0
 70
0
 66
1
 10
0.0
 20
0.0
 30
0.0
  0
VERTEX
  8
0
 10
-105.9724813496907
 20
-8.676083949838143
 30
0.0
  0
VERTEX
  8
0
 10
-107.9449623496907
 20
-7.194963712108351
 30
0.0
  0
SEQEND
  8
0
  0
LINE
  8
0
 62
0
 10
-107.9449623496907
 20
-7.194963712108352
 30
0.0
 11
-107.9449623496907
 21
7.194963712108349
 31
0.0
  0
POLYLINE
  8
0
 62
0
 70
0
 66
1
 10
0.0
 20
0.0
 30
0.0
  0
VERTEX
  8
0
 10
-107.9449623496907
 20
7.194963712108353
 30
0.0
  0
VERTEX
  8
0
 10
-105.9724813496907
 20
8.676083949838144
 30
0.0
  0
SEQEND
  8
0
  0
LINE
  8
0
 62
0
 10
-95.96586634969076
 20
-8.640456866974336
 30
0.0
 11
-95.96586634969076
 21
8.640456866974336
 31
0.0
  0
POLYLINE
  8
0
 62
0
 70
0
 66
1
 10
0.0
 20
0.0
 30
0.0
  0
VERTEX
  8
0
 10
-95.96586634969073
 20
8.640456866974333
 30
0.0
  0
VERTEX
  8
0
 10
-93.93173234969075
 20
7.073866515575199
 30
0.0
  0
SEQEND
  8
0
  0
LINE
  8
0
 62
0
 10
-93.93173234969075
 20
7.073866515575197
 30
0.0
 11
-93.93173234969075
 21
-7.073866515575197
 31
0.0
  0
POLYLINE
  8
0
 62
0
 70
0
 66
1
 10
0.0
 20
0.0
 30
0.0
  0
VERTEX
  8
0
 10
-93.93173234969075
 20
-7.0738665155751965
 30
0.0
  0
VERTEX
  8
0
 10
-95.96586634969074
 20
-8.640456866974338
 30
0.0
  0
SEQEND
  8
0
  0
POLYLINE
  8
0
 62
0
 70
0
 66
1
 10
0.0
 20
0.0
 30
0.0
  0
VERTEX
  8
0
 10
-109.94496234969068
 20
-4.4707555086982795
 30
0.0
  0
VERTEX
  8
0
 10
-111.00000034969068
 20
4.076638549725919e-15
 30
0.0
  0
VERTEX
  8
0
 10
-109.94496234969068
 20
4.470755508698279
 30
0.0
  0
SEQEND
  8
0
  0
LINE
  8
0
 62
0
 10
-109.9449623496907
 20
4.470755508698278
 30
0.0
 11
-109.9449623496907
 21
-4.4707555086982795
 31
0.0
  0
LINE
  8
0
 62
0
 10
-91.93173234969076
 20
-4.215034457768522
 30
0.0
 11
-91.93173234969076
 21
4.215034457768527
 31
0.0
  0
POLYLINE
  8
0
 62
0
 70
0
 66
1
 10
0.0
 20
0.0
 30
0.0
  0
VERTEX
  8
0
 10
-91.93173234969076
 20
4.215034457768527
 30
0.0
  0
VERTEX
  8
0
 10
-91.00000034969077
 20
3.5804988476297245e-15
 30
0.0
  0
VERTEX
  8
0
 10
-91.93173234969075
 20
-4.215034457768521
 30
0.0
  0
SEQEND
  8
0
  0
ENDBLK
  0
ENDSEC
  0
SECTION
  2
ENTITIES
  0
INSERT
  2
BODY006
  8
0
 62
0
 10
0.0
 20
0.0
 30
0.0
  0
ENDSEC
  0
EOF
