  0
SECTION
  2
HEADER
  9
$ACADVER
  1
AC1009
  9
$INSBASE
 10
0.0
 20
0.0
 30
0.0
  9
$EXTMIN
 10
0.0
 20
0.0
 30
0.0
  9
$EXTMAX
 10
0.0
 20
0.0
 30
0.0
  0
ENDSEC
  0
SECTION
  2
TABLES
  0
TABLE
  2
VPORT
 70
0
  0
ENDTAB
  0
TABLE
  2
LTYPE
 70
1
  0
LTYPE
  2
CONTINUOUS
 70
0
  3
Solid line
 72
65
 73
0
 40
0.0
  0
ENDTAB
  0
TABLE
  2
LAYER
 70
1
  0
LAYER
  2
0
 70
64
 62
7
  6
continuous
  0
ENDTAB
  0
TABLE
  2
STYLE
 70
1
  0
STYLE
  2
STANDARD
 70
0
 40
0
 41
1.0
 50
0.0
 71
0
 42
1
 3
ARIAL.TTF
 4

  0
ENDTAB
  0
TABLE
  2
VIEW
 70
0
  0
ENDTAB
  0
ENDSEC
  0
SECTION
  2
BLOCKS
  0
BLOCK
  8
0
  2
PAD001
 70
0
 10
0.0
 20
0.0
 30
0.0
  3
PAD001
  0
LINE
  8
0
 62
0
 10
-15.999999999999936
 20
3.5499999999998586
 30
0.0
 11
-15.999999999999936
 21
16.000008084003344
 31
0.0
  0
LINE
  8
0
 62
0
 10
-15.999999999999936
 20
16.000008084003344
 30
0.0
 11
-3.5499999999999865
 21
16.000008084003444
 31
0.0
  0
LINE
  8
0
 62
0
 10
-3.5499999999999856
 20
16.000008084003444
 30
0.0
 11
-3.5499999999999856
 21
12.00000808400346
 31
0.0
  0
LINE
  8
0
 62
0
 10
3.5499999999999856
 20
12.000008084003516
 30
0.0
 11
-3.5499999999999856
 21
12.00000808400346
 31
0.0
  0
LINE
  8
0
 62
0
 10
3.5499999999999856
 20
16.0000080840035
 30
0.0
 11
3.5499999999999856
 21
12.000008084003516
 31
0.0
  0
LINE
  8
0
 62
0
 10
3.5499999999999865
 20
16.0000080840035
 30
0.0
 11
15.999999999999936
 21
16.0000080840036
 31
0.0
  0
LINE
  8
0
 62
0
 10
15.999999999999936
 20
16.0000080840036
 30
0.0
 11
15.999999999999936
 21
3.5500000000001144
 31
0.0
  0
LINE
  8
0
 62
0
 10
11.999999999999952
 20
3.5500000000000815
 30
0.0
 11
15.999999999999936
 21
3.5500000000001135
 31
0.0
  0
LINE
  8
0
 62
0
 10
11.999999999999952
 20
-3.5499999999998906
 30
0.0
 11
11.999999999999952
 21
3.5500000000000824
 31
0.0
  0
LINE
  8
0
 62
0
 10
15.999999999999936
 20
-3.5499999999998586
 30
0.0
 11
11.999999999999952
 21
-3.5499999999998906
 31
0.0
  0
LINE
  8
0
 62
0
 10
15.999999999999936
 20
-16.000008084003344
 30
0.0
 11
15.999999999999936
 21
-3.5499999999998586
 31
0.0
  0
LINE
  8
0
 62
0
 10
15.999999999999936
 20
-16.000008084003344
 30
0.0
 11
3.5499999999999865
 21
-16.000008084003444
 31
0.0
  0
LINE
  8
0
 62
0
 10
3.5499999999999856
 20
-16.000008084003444
 30
0.0
 11
3.5499999999999856
 21
-12.00000808400346
 31
0.0
  0
LINE
  8
0
 62
0
 10
3.5499999999999856
 20
-12.00000808400346
 30
0.0
 11
-3.5499999999999856
 21
-12.000008084003516
 31
0.0
  0
LINE
  8
0
 62
0
 10
-3.5499999999999856
 20
-16.0000080840035
 30
0.0
 11
-3.5499999999999856
 21
-12.000008084003516
 31
0.0
  0
LINE
  8
0
 62
0
 10
-3.5499999999999856
 20
-16.0000080840035
 30
0.0
 11
-16.00000000000019
 21
-16.0000080840036
 31
0.0
  0
LINE
  8
0
 62
0
 10
-16.00000000000019
 20
-16.0000080840036
 30
0.0
 11
-16.00000000000019
 21
-3.5500000000001144
 31
0.0
  0
LINE
  8
0
 62
0
 10
-16.000000000000192
 20
-3.5500000000001135
 30
0.0
 11
-12.000000000000208
 21
-3.5500000000000815
 31
0.0
  0
LINE
  8
0
 62
0
 10
-12.000000000000208
 20
-3.5500000000000815
 30
0.0
 11
-12.000000000000208
 21
3.5499999999998897
 31
0.0
  0
LINE
  8
0
 62
0
 10
-16.000000000000192
 20
3.5499999999998577
 30
0.0
 11
-12.000000000000208
 21
3.5499999999998897
 31
0.0
  0
POLYLINE
  8
0
 62
0
 70
0
 66
1
 10
0.0
 20
0.0
 30
0.0
  0
VERTEX
  8
0
 10
-1.7763568394002505e-15
 20
9.999999999999961
 30
0.0
  0
VERTEX
  8
0
 10
4.6472317204376665
 20
8.854560256532103
 30
0.0
  0
VERTEX
  8
0
 10
8.229838658936531
 20
5.680647467311604
 30
0.0
  0
VERTEX
  8
0
 10
9.9270887409805
 20
1.2053668025533106
 30
0.0
  0
VERTEX
  8
0
 10
9.350162426854112
 20
-3.5460488704252655
 30
0.0
  0
VERTEX
  8
0
 10
6.631226582407931
 20
-7.4851074817109255
 30
0.0
  0
VERTEX
  8
0
 10
2.3931566428755784
 20
-9.70941817426046
 30
0.0
  0
VERTEX
  8
0
 10
-2.393156642875562
 20
-9.709418174260502
 30
0.0
  0
VERTEX
  8
0
 10
-6.631226582407926
 20
-7.485107481711036
 30
0.0
  0
VERTEX
  8
0
 10
-9.350162426854109
 20
-3.5460488704254223
 30
0.0
  0
VERTEX
  8
0
 10
-9.927088740980501
 20
1.2053668025531357
 30
0.0
  0
VERTEX
  8
0
 10
-8.229838658936535
 20
5.6806474673114655
 30
0.0
  0
VERTEX
  8
0
 10
-4.6472317204376665
 20
8.854560256532027
 30
0.0
  0
VERTEX
  8
0
 10
-5.329070518200751e-15
 20
9.999999999999961
 30
0.0
  0
SEQEND
  8
0
  0
ENDBLK
  0
ENDSEC
  0
SECTION
  2
ENTITIES
  0
INSERT
  2
PAD001
  8
0
 62
0
 10
0.0
 20
0.0
 30
0.0
  0
ENDSEC
  0
EOF
