  0
SECTION
  2
HEADER
  9
$ACADVER
  1
AC1009
  9
$INSBASE
 10
0.0
 20
0.0
 30
0.0
  9
$EXTMIN
 10
0.0
 20
0.0
 30
0.0
  9
$EXTMAX
 10
0.0
 20
0.0
 30
0.0
  0
ENDSEC
  0
SECTION
  2
TABLES
  0
TABLE
  2
VPORT
 70
0
  0
ENDTAB
  0
TABLE
  2
LTYPE
 70
1
  0
LTYPE
  2
CONTINUOUS
 70
0
  3
Solid line
 72
65
 73
0
 40
0.0
  0
ENDTAB
  0
TABLE
  2
LAYER
 70
1
  0
LAYER
  2
0
 70
64
 62
7
  6
continuous
  0
ENDTAB
  0
TABLE
  2
STYLE
 70
1
  0
STYLE
  2
STANDARD
 70
0
 40
0
 41
1.0
 50
0.0
 71
0
 42
1
 3
ARIAL.TTF
 4

  0
ENDTAB
  0
TABLE
  2
VIEW
 70
0
  0
ENDTAB
  0
ENDSEC
  0
SECTION
  2
BLOCKS
  0
BLOCK
  8
0
  2
BODY007
 70
0
 10
0.0
 20
0.0
 30
0.0
  3
BODY007
  0
LINE
  8
0
 62
0
 10
-12.100000000002533
 20
-82.50000000000001
 30
0.0
 11
-112.10000000000254
 21
-82.5
 31
0.0
  0
LINE
  8
0
 62
0
 10
-112.10000000000257
 20
-82.5
 30
0.0
 11
-112.10000000000257
 21
-100.5
 31
0.0
  0
LINE
  8
0
 62
0
 10
-12.099999999999996
 20
-100.50000000000001
 30
0.0
 11
-112.10000000000252
 21
-100.5
 31
0.0
  0
LINE
  8
0
 62
0
 10
-12.100000000002527
 20
-100.50000000000001
 30
0.0
 11
-1.9889876781186526
 21
-100.50000000000001
 31
0.0
  0
LINE
  8
0
 62
0
 10
-1.9889876781186473
 20
-98.52648200000002
 30
0.0
 11
-1.9889876781186466
 21
-100.50000000000001
 31
0.0
  0
LINE
  8
0
 62
0
 10
-9.98898767811865
 20
-98.52648200000002
 30
0.0
 11
-1.9889876781186508
 21
-98.52648200000002
 31
0.0
  0
LINE
  8
0
 62
0
 10
-9.988987678118656
 20
-84.47351800000001
 30
0.0
 11
-9.98898767811865
 21
-98.52648200000002
 31
0.0
  0
LINE
  8
0
 62
0
 10
-9.988987678118656
 20
-84.47351800000001
 30
0.0
 11
-1.9889876781186562
 21
-84.47351800000001
 31
0.0
  0
LINE
  8
0
 62
0
 10
-1.9889876781186508
 20
-84.47351800000001
 30
0.0
 11
-1.9889876781186515
 21
-82.50000000000001
 31
0.0
  0
LINE
  8
0
 62
0
 10
-12.100000000002533
 20
-82.50000000000001
 30
0.0
 11
-1.988987678118658
 21
-82.50000000000001
 31
0.0
  0
LINE
  8
0
 62
0
 10
-50.13094200000255
 20
-84.494906
 30
0.0
 11
-50.13094200000254
 21
-98.49508025998013
 31
0.0
  0
LINE
  8
0
 62
0
 10
-50.13094200000255
 20
-98.49508025998014
 30
0.0
 11
-42.130942000000516
 21
-98.49508025998014
 31
0.0
  0
LINE
  8
0
 62
0
 10
-42.130942000000516
 20
-84.494906
 30
0.0
 11
-42.13094200000051
 21
-98.49508025998013
 31
0.0
  0
LINE
  8
0
 62
0
 10
-50.13094200000255
 20
-84.494906
 30
0.0
 11
-42.130942000000516
 21
-84.494906
 31
0.0
  0
LINE
  8
0
 62
0
 10
-30.110314000002546
 20
-84.49830200000001
 30
0.0
 11
-30.110314000002543
 21
-98.49847625998014
 31
0.0
  0
LINE
  8
0
 62
0
 10
-30.11031400000254
 20
-98.49847625998014
 30
0.0
 11
-22.110314000000507
 21
-98.49847625998014
 31
0.0
  0
LINE
  8
0
 62
0
 10
-22.110314000000514
 20
-84.49830200000001
 30
0.0
 11
-22.11031400000051
 21
-98.49847625998014
 31
0.0
  0
LINE
  8
0
 62
0
 10
-30.110314000002546
 20
-84.49830200000001
 30
0.0
 11
-22.110314000000514
 21
-84.49830200000001
 31
0.0
  0
LINE
  8
0
 62
0
 10
-100.18251200000257
 20
-84.486416
 30
0.0
 11
-100.18251200000257
 21
-98.48659025998013
 31
0.0
  0
LINE
  8
0
 62
0
 10
-100.18251200000257
 20
-98.48659025998013
 30
0.0
 11
-92.18251200000054
 21
-98.48659025998013
 31
0.0
  0
LINE
  8
0
 62
0
 10
-92.18251200000054
 20
-84.486416
 30
0.0
 11
-92.18251200000054
 21
-98.48659025998013
 31
0.0
  0
LINE
  8
0
 62
0
 10
-100.18251200000257
 20
-84.486416
 30
0.0
 11
-92.18251200000054
 21
-84.486416
 31
0.0
  0
LINE
  8
0
 62
0
 10
-90.17219800000257
 20
-84.488114
 30
0.0
 11
-90.17219800000257
 21
-98.48828825998012
 31
0.0
  0
LINE
  8
0
 62
0
 10
-90.17219800000257
 20
-98.48828825998014
 30
0.0
 11
-82.17219800000053
 21
-98.48828825998014
 31
0.0
  0
LINE
  8
0
 62
0
 10
-82.17219800000053
 20
-84.488114
 30
0.0
 11
-82.17219800000053
 21
-98.48828825998012
 31
0.0
  0
LINE
  8
0
 62
0
 10
-90.17219800000257
 20
-84.488114
 30
0.0
 11
-82.17219800000053
 21
-84.488114
 31
0.0
  0
LINE
  8
0
 62
0
 10
-70.15157000000256
 20
-84.49151
 30
0.0
 11
-70.15157000000256
 21
-98.49168425998013
 31
0.0
  0
LINE
  8
0
 62
0
 10
-70.15157000000256
 20
-98.49168425998013
 30
0.0
 11
-62.15157000000053
 21
-98.49168425998013
 31
0.0
  0
LINE
  8
0
 62
0
 10
-62.151570000000525
 20
-84.49151
 30
0.0
 11
-62.15157000000052
 21
-98.49168425998013
 31
0.0
  0
LINE
  8
0
 62
0
 10
-70.15157000000256
 20
-84.49151
 30
0.0
 11
-62.15157000000053
 21
-84.49151
 31
0.0
  0
LINE
  8
0
 62
0
 10
-60.14125600000256
 20
-84.49320800000001
 30
0.0
 11
-60.14125600000255
 21
-98.49338225998014
 31
0.0
  0
LINE
  8
0
 62
0
 10
-60.14125600000256
 20
-98.49338225998014
 30
0.0
 11
-52.141256000000524
 21
-98.49338225998014
 31
0.0
  0
LINE
  8
0
 62
0
 10
-52.141256000000524
 20
-84.49320800000001
 30
0.0
 11
-52.14125600000052
 21
-98.49338225998014
 31
0.0
  0
LINE
  8
0
 62
0
 10
-60.14125600000256
 20
-84.49320800000001
 30
0.0
 11
-52.141256000000524
 21
-84.49320800000001
 31
0.0
  0
LINE
  8
0
 62
0
 10
-40.120628000002554
 20
-84.496604
 30
0.0
 11
-40.12062800000255
 21
-98.49677825998013
 31
0.0
  0
LINE
  8
0
 62
0
 10
-40.12062800000255
 20
-98.49677825998013
 30
0.0
 11
-32.12062800000052
 21
-98.49677825998013
 31
0.0
  0
LINE
  8
0
 62
0
 10
-32.12062800000052
 20
-84.496604
 30
0.0
 11
-32.120628000000515
 21
-98.49677825998013
 31
0.0
  0
LINE
  8
0
 62
0
 10
-40.120628000002554
 20
-84.496604
 30
0.0
 11
-32.12062800000052
 21
-84.496604
 31
0.0
  0
LINE
  8
0
 62
0
 10
-80.16188400000254
 20
-84.489812
 30
0.0
 11
-80.16188400000254
 21
-98.48998625998013
 31
0.0
  0
LINE
  8
0
 62
0
 10
-80.16188400000254
 20
-98.48998625998013
 30
0.0
 11
-72.16188400000053
 21
-98.48998625998013
 31
0.0
  0
LINE
  8
0
 62
0
 10
-72.16188400000053
 20
-84.489812
 30
0.0
 11
-72.16188400000053
 21
-98.48998625998013
 31
0.0
  0
LINE
  8
0
 62
0
 10
-80.16188400000254
 20
-84.489812
 30
0.0
 11
-72.16188400000053
 21
-84.489812
 31
0.0
  0
LINE
  8
0
 62
0
 10
-20.077326000002543
 20
-84.50409825998014
 30
0.0
 11
-20.07732600000254
 21
-98.50409825998014
 31
0.0
  0
LINE
  8
0
 62
0
 10
-20.07732600000254
 20
-98.50409825998014
 30
0.0
 11
-12.077326000000507
 21
-98.50409825998014
 31
0.0
  0
LINE
  8
0
 62
0
 10
-12.077326000000507
 20
-84.50409825998014
 30
0.0
 11
-12.077326000000502
 21
-98.50409825998014
 31
0.0
  0
LINE
  8
0
 62
0
 10
-20.077326000002543
 20
-84.50409825998014
 30
0.0
 11
-12.077326000000511
 21
-84.50409825998014
 31
0.0
  0
LINE
  8
0
 62
0
 10
-108.10000000000257
 20
-84.484718
 30
0.0
 11
-108.10000000000257
 21
-98.484718
 31
0.0
  0
LINE
  8
0
 62
0
 10
-108.10000000000257
 20
-98.484718
 30
0.0
 11
-102.18251200000257
 21
-98.484718
 31
0.0
  0
LINE
  8
0
 62
0
 10
-102.18251200000257
 20
-84.484718
 30
0.0
 11
-102.18251200000257
 21
-98.484718
 31
0.0
  0
LINE
  8
0
 62
0
 10
-108.10000000000257
 20
-84.484718
 30
0.0
 11
-102.18251200000257
 21
-84.484718
 31
0.0
  0
ENDBLK
  0
BLOCK
  8
0
  2
BODY008
 70
0
 10
0.0
 20
0.0
 30
0.0
  3
BODY008
  0
LINE
  8
0
 62
0
 10
-91.7153825710106
 20
-70.12444471773037
 30
0.0
 11
-95.26538257101059
 21
-70.12444471773037
 31
0.0
  0
LINE
  8
0
 62
0
 10
-95.26538257101059
 20
-70.12444471773037
 30
0.0
 11
-95.26538257101059
 21
-74.12444471773037
 31
0.0
  0
LINE
  8
0
 62
0
 10
-95.26538257101059
 20
-74.12444471773037
 30
0.0
 11
-115.26538257101059
 21
-74.12444471773037
 31
0.0
  0
LINE
  8
0
 62
0
 10
-115.26538257101059
 20
-74.12444471773037
 30
0.0
 11
-115.26538257101059
 21
-64.12444471773037
 31
0.0
  0
LINE
  8
0
 62
0
 10
-115.26538257101059
 20
-64.12444471773037
 30
0.0
 11
-87.7153825710106
 21
-64.12444471773037
 31
0.0
  0
LINE
  8
0
 62
0
 10
-87.7153825710106
 20
-64.12444471773037
 30
0.0
 11
-87.7153825710106
 21
-68.12444471773037
 31
0.0
  0
LINE
  8
0
 62
0
 10
-87.7153825710106
 20
-68.12444471773037
 30
0.0
 11
-84.2153825710106
 21
-68.12444471773037
 31
0.0
  0
LINE
  8
0
 62
0
 10
-84.2153825710106
 20
-68.12444471773037
 30
0.0
 11
-84.2153825710106
 21
-64.12444471773037
 31
0.0
  0
LINE
  8
0
 62
0
 10
-84.2153825710106
 20
-64.12444471773037
 30
0.0
 11
-80.2153825710106
 21
-64.12444471773037
 31
0.0
  0
LINE
  8
0
 62
0
 10
-80.2153825710106
 20
-64.12444471773037
 30
0.0
 11
-80.2153825710106
 21
-74.12444471773037
 31
0.0
  0
LINE
  8
0
 62
0
 10
-91.7153825710106
 20
-74.12444471773037
 30
0.0
 11
-80.2153825710106
 21
-74.12444471773037
 31
0.0
  0
LINE
  8
0
 62
0
 10
-91.7153825710106
 20
-70.12444471773037
 30
0.0
 11
-91.7153825710106
 21
-74.12444471773037
 31
0.0
  0
LINE
  8
0
 62
0
 10
-113.26538257101059
 20
-66.12444471773037
 30
0.0
 11
-113.26538257101059
 21
-72.12444471773037
 31
0.0
  0
LINE
  8
0
 62
0
 10
-113.26538257101059
 20
-72.12444471773037
 30
0.0
 11
-99.26538257101059
 21
-72.12444471773037
 31
0.0
  0
LINE
  8
0
 62
0
 10
-99.26538257101059
 20
-72.12444471773037
 30
0.0
 11
-99.26538257101059
 21
-66.12444471773037
 31
0.0
  0
LINE
  8
0
 62
0
 10
-99.26538257101059
 20
-66.12444471773037
 30
0.0
 11
-113.26538257101059
 21
-66.12444471773037
 31
0.0
  0
ENDBLK
  0
ENDSEC
  0
SECTION
  2
ENTITIES
  0
INSERT
  2
BODY007
  8
0
 62
0
 10
0.0
 20
0.0
 30
0.0
  0
INSERT
  2
BODY008
  8
0
 62
0
 10
0.0
 20
0.0
 30
0.0
  0
ENDSEC
  0
EOF
