  0
SECTION
  2
HEADER
  9
$ACADVER
  1
AC1009
  9
$INSBASE
 10
0.0
 20
0.0
 30
0.0
  9
$EXTMIN
 10
0.0
 20
0.0
 30
0.0
  9
$EXTMAX
 10
0.0
 20
0.0
 30
0.0
  0
ENDSEC
  0
SECTION
  2
TABLES
  0
TABLE
  2
VPORT
 70
0
  0
ENDTAB
  0
TABLE
  2
LTYPE
 70
1
  0
LTYPE
  2
CONTINUOUS
 70
0
  3
Solid line
 72
65
 73
0
 40
0.0
  0
ENDTAB
  0
TABLE
  2
LAYER
 70
1
  0
LAYER
  2
0
 70
64
 62
7
  6
continuous
  0
ENDTAB
  0
TABLE
  2
STYLE
 70
1
  0
STYLE
  2
STANDARD
 70
0
 40
0
 41
1.0
 50
0.0
 71
0
 42
1
 3
ARIAL.TTF
 4

  0
ENDTAB
  0
TABLE
  2
VIEW
 70
0
  0
ENDTAB
  0
ENDSEC
  0
SECTION
  2
BLOCKS
  0
BLOCK
  8
0
  2
BODY070
 70
0
 10
0.0
 20
0.0
 30
0.0
  3
BODY070
  0
LINE
  8
0
 62
0
 10
35.014765402235156
 20
-57.534843821941294
 30
0.0
 11
26.394920706743154
 21
-57.534843821941294
 31
0.0
  0
LINE
  8
0
 62
0
 10
26.39492070674316
 20
-57.534843821941294
 30
0.0
 11
25.633974818357864
 21
-55.96489321491867
 31
0.0
  0
LINE
  8
0
 62
0
 10
35.014765402235156
 20
-44.078908790624176
 30
0.0
 11
35.014765402235156
 21
-57.534843821941294
 31
0.0
  0
LINE
  8
0
 62
0
 10
25.633974818357856
 20
-55.96489321491867
 30
0.0
 11
35.014765402235156
 21
-44.078908790624176
 31
0.0
  0
LINE
  8
0
 62
0
 10
65.02201318556918
 20
-3.589629999999859
 30
0.0
 11
61.472013185569196
 21
-3.589629999999859
 31
0.0
  0
LINE
  8
0
 62
0
 10
61.47201318556919
 20
-3.589629999999859
 30
0.0
 11
61.47201418556918
 21
-0.03962999999999983
 31
0.0
  0
LINE
  8
0
 62
0
 10
61.47201418556918
 20
-0.0396299999999998
 30
0.0
 11
61.47201418556918
 21
5.204170427930421e-15
 31
0.0
  0
LINE
  8
0
 62
0
 10
61.04663649290471
 20
5.6e-15
 30
0.0
 11
61.472014185569186
 21
5.6e-15
 31
0.0
  0
LINE
  8
0
 62
0
 10
57.88745659929692
 20
-1.11e-14
 30
0.0
 11
61.0466364929047
 21
5.612061637185256e-15
 31
0.0
  0
LINE
  8
0
 62
0
 10
57.88745659929692
 20
-1.11e-14
 30
0.0
 11
13.011530185569399
 21
-57.50059900000001
 31
0.0
  0
LINE
  8
0
 62
0
 10
13.011530185569399
 20
-57.500599
 30
0.0
 11
13.011530185569399
 21
-60.99026192679033
 31
0.0
  0
LINE
  8
0
 62
0
 10
36.177854234633784
 20
-60.99026192679033
 30
0.0
 11
13.011530185569402
 21
-60.99026192679033
 31
0.0
  0
LINE
  8
0
 62
0
 10
65.0466364929047
 20
-24.000000000000007
 30
0.0
 11
36.177854234633784
 21
-60.990261926790325
 31
0.0
  0
LINE
  8
0
 62
0
 10
65.0466364929047
 20
-3.5896299999998593
 30
0.0
 11
65.0466364929047
 21
-24.000000000000007
 31
0.0
  0
LINE
  8
0
 62
0
 10
65.02201318556918
 20
-3.5896299999998593
 30
0.0
 11
65.0466364929047
 21
-3.5896299999998593
 31
0.0
  0
LINE
  8
0
 62
0
 10
36.591896497501025
 20
-44.07890879062418
 30
0.0
 11
47.20726128878143
 21
-44.07890879062418
 31
0.0
  0
LINE
  8
0
 62
0
 10
36.591896497501025
 20
-44.07890879062418
 30
0.0
 11
36.591896497501025
 21
-57.53484382194129
 31
0.0
  0
LINE
  8
0
 62
0
 10
47.207261288781424
 20
-44.07890879062417
 30
0.0
 11
36.59189649750101
 21
-57.53484382194129
 31
0.0
  0
LINE
  8
0
 62
0
 10
36.59189649750103
 20
-42.080595805616404
 30
0.0
 11
37.7786594514533
 21
-40.57690100933239
 31
0.0
  0
LINE
  8
0
 62
0
 10
37.7786594514533
 20
-40.57690100933239
 30
0.0
 11
47.20726128878143
 21
-28.629953402638463
 31
0.0
  0
LINE
  8
0
 62
0
 10
47.20726128878143
 20
-42.08059580561641
 30
0.0
 11
47.20726128878143
 21
-28.62995340263846
 31
0.0
  0
LINE
  8
0
 62
0
 10
36.591896497501025
 20
-42.08059580561641
 30
0.0
 11
47.20726128878143
 21
-42.08059580561641
 31
0.0
  0
LINE
  8
0
 62
0
 10
48.78372708277044
 20
-28.629953402638456
 30
0.0
 11
48.78372708277044
 21
-42.08059580561641
 31
0.0
  0
LINE
  8
0
 62
0
 10
59.39491652834694
 20
-28.629953402638456
 30
0.0
 11
48.783727082770426
 21
-42.080595805616404
 31
0.0
  0
LINE
  8
0
 62
0
 10
48.78372708277044
 20
-28.629953402638456
 30
0.0
 11
59.39491652834694
 21
-28.629953402638456
 31
0.0
  0
LINE
  8
0
 62
0
 10
48.78372708277044
 20
-26.63241924333527
 30
0.0
 11
59.39491652834695
 21
-26.63241924333527
 31
0.0
  0
LINE
  8
0
 62
0
 10
59.39491652834695
 20
-26.63241924333527
 30
0.0
 11
59.39491652834695
 21
-13.18701911527867
 31
0.0
  0
LINE
  8
0
 62
0
 10
48.78372708277044
 20
-26.63241924333527
 30
0.0
 11
59.394916528346954
 21
-13.187019115278675
 31
0.0
  0
LINE
  8
0
 62
0
 10
63.04663649290471
 20
-24.0010680499641
 30
0.0
 11
60.97076790803151
 21
-26.632419243335267
 31
0.0
  0
LINE
  8
0
 62
0
 10
60.97076790803152
 20
-13.18701911527867
 30
0.0
 11
60.97076790803152
 21
-26.63241924333527
 31
0.0
  0
LINE
  8
0
 62
0
 10
60.97076790803152
 20
-13.18701911527867
 30
0.0
 11
63.0466021316008
 21
-13.18701911527867
 31
0.0
  0
LINE
  8
0
 62
0
 10
63.0466021316008
 20
-13.18701911527867
 30
0.0
 11
63.04663649290471
 21
-24.001068049964104
 31
0.0
  0
LINE
  8
0
 62
0
 10
40.92182449290476
 20
-30.882315
 30
0.0
 11
40.921824492904825
 21
-34.432314999999996
 31
0.0
  0
LINE
  8
0
 62
0
 10
40.921824492904825
 20
-34.432314999999996
 30
0.0
 11
37.37182449290484
 21
-34.432314999999996
 31
0.0
  0
LINE
  8
0
 62
0
 10
37.37182449290484
 20
-34.432314999999996
 30
0.0
 11
37.37182449290478
 21
-30.882315
 31
0.0
  0
LINE
  8
0
 62
0
 10
37.37182449290478
 20
-30.882315
 30
0.0
 11
40.92182449290476
 21
-30.882315
 31
0.0
  0
LINE
  8
0
 62
0
 10
48.95522049290473
 20
-20.60142
 30
0.0
 11
48.955220492904694
 21
-24.15142
 31
0.0
  0
LINE
  8
0
 62
0
 10
48.955220492904694
 20
-24.15142
 30
0.0
 11
45.40522049290471
 21
-24.15142
 31
0.0
  0
LINE
  8
0
 62
0
 10
45.40522049290471
 20
-24.15142
 30
0.0
 11
45.405220492904746
 21
-20.60142
 31
0.0
  0
LINE
  8
0
 62
0
 10
45.405220492904746
 20
-20.60142
 30
0.0
 11
48.95522049290473
 21
-20.60142
 31
0.0
  0
LINE
  8
0
 62
0
 10
24.855032492904826
 20
-51.44410499999999
 30
0.0
 11
24.855032492904847
 21
-54.99410499999999
 31
0.0
  0
LINE
  8
0
 62
0
 10
24.855032492904847
 20
-54.99410499999999
 30
0.0
 11
21.30503249290486
 21
-54.99410499999999
 31
0.0
  0
LINE
  8
0
 62
0
 10
21.305032492904857
 20
-54.99410499999999
 30
0.0
 11
21.305032492904836
 21
-51.44410499999999
 31
0.0
  0
LINE
  8
0
 62
0
 10
21.305032492904836
 20
-51.44410499999999
 30
0.0
 11
24.855032492904822
 21
-51.44410499999999
 31
0.0
  0
LINE
  8
0
 62
0
 10
56.9886164929047
 20
-10.320524999999998
 30
0.0
 11
56.98861649290472
 21
-13.870524999999999
 31
0.0
  0
LINE
  8
0
 62
0
 10
56.98861649290472
 20
-13.870524999999999
 30
0.0
 11
53.438616492904735
 21
-13.870524999999999
 31
0.0
  0
LINE
  8
0
 62
0
 10
53.438616492904735
 20
-13.870524999999999
 30
0.0
 11
53.438616492904714
 21
-10.320524999999998
 31
0.0
  0
LINE
  8
0
 62
0
 10
53.438616492904714
 20
-10.320524999999998
 30
0.0
 11
56.9886164929047
 21
-10.320524999999998
 31
0.0
  0
LINE
  8
0
 62
0
 10
32.888428492904794
 20
-41.16320999999999
 30
0.0
 11
32.88842849290481
 21
-44.71320999999999
 31
0.0
  0
LINE
  8
0
 62
0
 10
32.88842849290481
 20
-44.71320999999999
 30
0.0
 11
29.33842849290482
 21
-44.71320999999999
 31
0.0
  0
LINE
  8
0
 62
0
 10
29.338428492904818
 20
-44.71320999999999
 30
0.0
 11
29.338428492904804
 21
-41.16320999999999
 31
0.0
  0
LINE
  8
0
 62
0
 10
29.338428492904804
 20
-41.16320999999999
 30
0.0
 11
32.888428492904794
 21
-41.16320999999999
 31
0.0
  0
LINE
  8
0
 62
0
 10
63.04658742939157
 20
-8.560000000000002
 30
0.0
 11
63.046595786971906
 21
-11.190263478139299
 31
0.0
  0
LINE
  8
0
 62
0
 10
60.97076790803152
 20
-11.190263478139299
 30
0.0
 11
63.0465957869719
 21
-11.190263478139299
 31
0.0
  0
LINE
  8
0
 62
0
 10
60.970767908031505
 20
-11.19026347813929
 30
0.0
 11
63.04658742939157
 21
-8.560000000000002
 31
0.0
  0
ENDBLK
  0
ENDSEC
  0
SECTION
  2
ENTITIES
  0
INSERT
  2
BODY070
  8
0
 62
0
 10
0.0
 20
0.0
 30
0.0
  0
ENDSEC
  0
EOF
