  0
SECTION
  2
HEADER
  9
$ACADVER
  1
AC1009
  9
$INSBASE
 10
0.0
 20
0.0
 30
0.0
  9
$EXTMIN
 10
0.0
 20
0.0
 30
0.0
  9
$EXTMAX
 10
0.0
 20
0.0
 30
0.0
  0
ENDSEC
  0
SECTION
  2
TABLES
  0
TABLE
  2
VPORT
 70
0
  0
ENDTAB
  0
TABLE
  2
LTYPE
 70
1
  0
LTYPE
  2
CONTINUOUS
 70
0
  3
Solid line
 72
65
 73
0
 40
0.0
  0
ENDTAB
  0
TABLE
  2
LAYER
 70
1
  0
LAYER
  2
0
 70
64
 62
7
  6
continuous
  0
ENDTAB
  0
TABLE
  2
STYLE
 70
1
  0
STYLE
  2
STANDARD
 70
0
 40
0
 41
1.0
 50
0.0
 71
0
 42
1
 3
ARIAL.TTF
 4

  0
ENDTAB
  0
TABLE
  2
VIEW
 70
0
  0
ENDTAB
  0
ENDSEC
  0
SECTION
  2
BLOCKS
  0
BLOCK
  8
0
  2
BODY079
 70
0
 10
0.0
 20
0.0
 30
0.0
  3
BODY079
  0
LINE
  8
0
 62
0
 10
-59.58386327163493
 20
4.576666010335701
 30
0.0
 11
-110.36157446093019
 21
69.63936315256822
 31
0.0
  0
LINE
  8
0
 62
0
 10
-59.583863271634925
 20
4.576666010335698
 30
0.0
 11
-58.350097682516534
 21
1.0000026699743678
 31
0.0
  0
LINE
  8
0
 62
0
 10
-110.36157446093019
 20
69.63936315256822
 30
0.0
 11
-110.36157446093019
 21
44.349113
 31
0.0
  0
LINE
  8
0
 62
0
 10
-58.32584467873109
 20
-13.842651000000002
 30
0.0
 11
-58.350097682516534
 21
1.0000026699743696
 31
0.0
  0
LINE
  8
0
 62
0
 10
-110.21638499999983
 20
44.349113
 30
0.0
 11
-110.36157446093019
 21
44.349113
 31
0.0
  0
LINE
  8
0
 62
0
 10
-58.32584467873109
 20
-13.842651000000002
 30
0.0
 11
-56.27523000000001
 21
-16.131840000000004
 31
0.0
  0
LINE
  8
0
 62
0
 10
-106.51638499999983
 20
44.349113
 30
0.0
 11
-110.21638499999983
 21
44.349113
 31
0.0
  0
LINE
  8
0
 62
0
 10
-56.27523000000001
 20
-17.730413000000002
 30
0.0
 11
-56.27523000000001
 21
-16.131840000000004
 31
0.0
  0
LINE
  8
0
 62
0
 10
-106.51638499999983
 20
40.649113
 30
0.0
 11
-106.51638499999983
 21
44.349113
 31
0.0
  0
LINE
  8
0
 62
0
 10
-56.27523000000001
 20
-19.009308
 30
0.0
 11
-56.27523000000001
 21
-17.730413000000002
 31
0.0
  0
LINE
  8
0
 62
0
 10
-110.21638499999983
 20
40.649113
 30
0.0
 11
-106.51638499999983
 21
40.649113
 31
0.0
  0
LINE
  8
0
 62
0
 10
-56.27523000000001
 20
-21.0
 30
0.0
 11
-56.27523000000001
 21
-19.009308
 31
0.0
  0
LINE
  8
0
 62
0
 10
-110.21638499999983
 20
40.649113
 30
0.0
 11
-110.35166199999999
 21
40.649113
 31
0.0
  0
LINE
  8
0
 62
0
 10
-58.32001500000001
 20
-21.0
 30
0.0
 11
-56.27523000000001
 21
-21.0
 31
0.0
  0
LINE
  8
0
 62
0
 10
-110.35166199999999
 20
36.500599
 30
0.0
 11
-110.35166199999999
 21
40.649113
 31
0.0
  0
LINE
  8
0
 62
0
 10
-58.32001500000001
 20
-17.41037
 30
0.0
 11
-58.32001500000001
 21
-21.0
 31
0.0
  0
LINE
  8
0
 62
0
 10
-65.47573558627226
 20
-21.000000000000007
 30
0.0
 11
-110.351662
 21
36.500599
 31
0.0
  0
LINE
  8
0
 62
0
 10
-62.076061
 20
-17.41037
 30
0.0
 11
-58.32001500000001
 21
-17.41037
 31
0.0
  0
LINE
  8
0
 62
0
 10
-65.47573558627226
 20
-21.000000000000007
 30
0.0
 11
-62.35336569266449
 21
-21.000000000000007
 31
0.0
  0
LINE
  8
0
 62
0
 10
-62.076061
 20
-17.41037
 30
0.0
 11
-62.076061
 21
-20.960369
 31
0.0
  0
LINE
  8
0
 62
0
 10
-62.35336569266448
 20
-21.000000000000007
 30
0.0
 11
-62.076061
 21
-21.0
 31
0.0
  0
LINE
  8
0
 62
0
 10
-62.076061
 20
-20.960369
 30
0.0
 11
-62.076061
 21
-21.0
 31
0.0
  0
LINE
  8
0
 62
0
 10
-88.38523678333414
 20
38.53400013649389
 30
0.0
 11
-99.00508147882617
 21
38.53400013649389
 31
0.0
  0
LINE
  8
0
 62
0
 10
-99.00508147882616
 20
38.53400013649389
 30
0.0
 11
-99.00508147882616
 21
51.995613851605924
 31
0.0
  0
LINE
  8
0
 62
0
 10
-88.38523678333414
 20
38.53400013649389
 30
0.0
 11
-99.00508147882616
 21
51.995613851605924
 31
0.0
  0
LINE
  8
0
 62
0
 10
-88.38523678333414
 20
23.078908790624176
 30
0.0
 11
-88.38523678333414
 21
36.534843821941294
 31
0.0
  0
LINE
  8
0
 62
0
 10
-88.38523678333414
 20
36.534843821941294
 30
0.0
 11
-99.00508147882617
 21
36.534843821941294
 31
0.0
  0
LINE
  8
0
 62
0
 10
-99.00508147882616
 20
36.534843821941294
 30
0.0
 11
-88.38523678333412
 21
23.078908790624176
 31
0.0
  0
LINE
  8
0
 62
0
 10
-86.80810568806825
 20
23.078908790624183
 30
0.0
 11
-76.1927408967878
 21
23.078908790624183
 31
0.0
  0
LINE
  8
0
 62
0
 10
-86.80810568806825
 20
23.078908790624183
 30
0.0
 11
-86.80810568806825
 21
36.53484382194129
 31
0.0
  0
LINE
  8
0
 62
0
 10
-76.19274089678783
 20
23.07890879062417
 30
0.0
 11
-86.80810568806828
 21
36.53484382194129
 31
0.0
  0
LINE
  8
0
 62
0
 10
-86.80810568806825
 20
21.080595805616404
 30
0.0
 11
-85.62134273411598
 21
19.57690100933239
 31
0.0
  0
LINE
  8
0
 62
0
 10
-85.62134273411598
 20
19.57690100933239
 30
0.0
 11
-76.19274089678783
 21
7.6299534026384634
 31
0.0
  0
LINE
  8
0
 62
0
 10
-76.19274089678781
 20
21.08059580561641
 30
0.0
 11
-76.19274089678781
 21
7.62995340263846
 31
0.0
  0
LINE
  8
0
 62
0
 10
-86.80810568806825
 20
21.08059580561641
 30
0.0
 11
-76.1927408967878
 21
21.08059580561641
 31
0.0
  0
LINE
  8
0
 62
0
 10
-74.6162751027988
 20
7.629953402638456
 30
0.0
 11
-74.6162751027988
 21
21.08059580561641
 31
0.0
  0
LINE
  8
0
 62
0
 10
-64.00508565722225
 20
7.629953402638456
 30
0.0
 11
-74.61627510279881
 21
21.080595805616404
 31
0.0
  0
LINE
  8
0
 62
0
 10
-74.6162751027988
 20
7.629953402638456
 30
0.0
 11
-64.00508565722225
 21
7.629953402638456
 31
0.0
  0
LINE
  8
0
 62
0
 10
-74.6162751027988
 20
5.632419243335271
 30
0.0
 11
-64.00508565722225
 21
5.632419243335271
 31
0.0
  0
LINE
  8
0
 62
0
 10
-64.00508565722225
 20
5.632419243335271
 30
0.0
 11
-64.00508565722225
 21
-7.8129808847213305
 31
0.0
  0
LINE
  8
0
 62
0
 10
-74.6162751027988
 20
5.632419243335271
 30
0.0
 11
-64.00508565722224
 21
-7.812980884721327
 31
0.0
  0
LINE
  8
0
 62
0
 10
-108.35364913406984
 20
48.379999999999995
 30
0.0
 11
-100.58287815613984
 21
38.53400013649389
 31
0.0
  0
LINE
  8
0
 62
0
 10
-100.58287815613983
 20
38.53400013649389
 30
0.0
 11
-100.58287815613983
 21
51.995613851605924
 31
0.0
  0
LINE
  8
0
 62
0
 10
-100.58287815613983
 20
51.995613851605924
 30
0.0
 11
-108.35550072777103
 21
51.995613851605924
 31
0.0
  0
LINE
  8
0
 62
0
 10
-108.35550072777103
 20
51.995613851605924
 30
0.0
 11
-108.35364913406984
 21
48.379999999999995
 31
0.0
  0
LINE
  8
0
 62
0
 10
-60.353365692664475
 20
3.0010680499641005
 30
0.0
 11
-62.42923427753768
 21
5.632419243335267
 31
0.0
  0
LINE
  8
0
 62
0
 10
-62.429234277537674
 20
-7.812980884721332
 30
0.0
 11
-62.429234277537674
 21
5.632419243335269
 31
0.0
  0
LINE
  8
0
 62
0
 10
-62.429234277537674
 20
-7.812980884721332
 30
0.0
 11
-60.353400053968386
 21
-7.812980884721332
 31
0.0
  0
LINE
  8
0
 62
0
 10
-60.353400053968386
 20
-7.812980884721332
 30
0.0
 11
-60.353365692664475
 21
3.0010680499641005
 31
0.0
  0
LINE
  8
0
 62
0
 10
-108.36157446093019
 20
63.85581499999999
 30
0.0
 11
-108.35652494870678
 21
53.995613851605924
 31
0.0
  0
LINE
  8
0
 62
0
 10
-100.58287815613983
 20
53.995613851605924
 30
0.0
 11
-108.35652494870678
 21
53.995613851605924
 31
0.0
  0
LINE
  8
0
 62
0
 10
-100.58287815613983
 20
53.99561385160591
 30
0.0
 11
-108.36157446093017
 21
63.85581499999999
 31
0.0
  0
LINE
  8
0
 62
0
 10
-98.4602876749285
 20
30.444122860798558
 30
0.0
 11
-98.41905136160688
 21
34.143893065346894
 31
0.0
  0
LINE
  8
0
 62
0
 10
-98.41905136160688
 20
34.143893065346894
 30
0.0
 11
-102.11905136160688
 21
34.143893065346894
 31
0.0
  0
LINE
  8
0
 62
0
 10
-102.11905136160688
 20
34.143893065346894
 30
0.0
 11
-102.1602876749285
 21
30.444122860798558
 31
0.0
  0
LINE
  8
0
 62
0
 10
-102.1602876749285
 20
30.444122860798558
 30
0.0
 11
-98.4602876749285
 21
30.444122860798558
 31
0.0
  0
LINE
  8
0
 62
0
 10
-90.4268916749285
 20
20.163227860790897
 30
0.0
 11
-90.3856553616069
 21
23.862998065339234
 31
0.0
  0
LINE
  8
0
 62
0
 10
-90.3856553616069
 20
23.862998065339234
 30
0.0
 11
-94.0856553616069
 21
23.862998065339234
 31
0.0
  0
LINE
  8
0
 62
0
 10
-94.08565536160688
 20
23.862998065339234
 30
0.0
 11
-94.1268916749285
 21
20.163227860790897
 31
0.0
  0
LINE
  8
0
 62
0
 10
-94.1268916749285
 20
20.163227860790897
 30
0.0
 11
-90.4268916749285
 21
20.163227860790897
 31
0.0
  0
LINE
  8
0
 62
0
 10
-74.31693452003958
 20
-0.3985621392014309
 30
0.0
 11
-74.29671946480413
 21
3.3013826376218423
 31
0.0
  0
LINE
  8
0
 62
0
 10
-74.29671946480413
 20
3.301382637621842
 30
0.0
 11
-77.99671946480413
 21
3.301382637621842
 31
0.0
  0
LINE
  8
0
 62
0
 10
-77.99671946480413
 20
3.301382637621842
 30
0.0
 11
-78.01693452003958
 21
-0.39856213920143135
 31
0.0
  0
LINE
  8
0
 62
0
 10
-78.01693452003958
 20
-0.3985621392014309
 30
0.0
 11
-74.31693452003958
 21
-0.3985621392014309
 31
0.0
  0
LINE
  8
0
 62
0
 10
-66.26138569267712
 20
-10.679472954377458
 30
0.0
 11
-66.26331453423373
 21
-6.979473457138269
 31
0.0
  0
LINE
  8
0
 62
0
 10
-66.26331453423373
 20
-6.979473457138271
 30
0.0
 11
-69.96331453423373
 21
-6.979473457138271
 31
0.0
  0
LINE
  8
0
 62
0
 10
-69.96331453423373
 20
-6.979473457138271
 30
0.0
 11
-69.96138569267711
 21
-10.67947295437746
 31
0.0
  0
LINE
  8
0
 62
0
 10
-69.96138569267711
 20
-10.679472954377458
 30
0.0
 11
-66.26138569267711
 21
-10.679472954377458
 31
0.0
  0
LINE
  8
0
 62
0
 10
-82.32817769267712
 20
9.882317045622543
 30
0.0
 11
-82.33010653423369
 21
13.582316542861733
 31
0.0
  0
LINE
  8
0
 62
0
 10
-82.33010653423368
 20
13.582316542861733
 30
0.0
 11
-86.03010653423368
 21
13.582316542861733
 31
0.0
  0
LINE
  8
0
 62
0
 10
-86.03010653423368
 20
13.582316542861733
 30
0.0
 11
-86.0281776926771
 21
9.882317045622543
 31
0.0
  0
LINE
  8
0
 62
0
 10
-86.0281776926771
 20
9.882317045622543
 30
0.0
 11
-82.3281776926771
 21
9.882317045622543
 31
0.0
  0
ENDBLK
  0
ENDSEC
  0
SECTION
  2
ENTITIES
  0
INSERT
  2
BODY079
  8
0
 62
0
 10
0.0
 20
0.0
 30
0.0
  0
ENDSEC
  0
EOF
