  0
SECTION
  2
HEADER
  9
$ACADVER
  1
AC1009
  9
$INSBASE
 10
0.0
 20
0.0
 30
0.0
  9
$EXTMIN
 10
0.0
 20
0.0
 30
0.0
  9
$EXTMAX
 10
0.0
 20
0.0
 30
0.0
  0
ENDSEC
  0
SECTION
  2
TABLES
  0
TABLE
  2
VPORT
 70
0
  0
ENDTAB
  0
TABLE
  2
LTYPE
 70
1
  0
LTYPE
  2
CONTINUOUS
 70
0
  3
Solid line
 72
65
 73
0
 40
0.0
  0
ENDTAB
  0
TABLE
  2
LAYER
 70
1
  0
LAYER
  2
0
 70
64
 62
7
  6
continuous
  0
ENDTAB
  0
TABLE
  2
STYLE
 70
1
  0
STYLE
  2
STANDARD
 70
0
 40
0
 41
1.0
 50
0.0
 71
0
 42
1
 3
ARIAL.TTF
 4

  0
ENDTAB
  0
TABLE
  2
VIEW
 70
0
  0
ENDTAB
  0
ENDSEC
  0
SECTION
  2
BLOCKS
  0
BLOCK
  8
0
  2
BODY
 70
0
 10
0.0
 20
0.0
 30
0.0
  3
BODY
  0
LINE
  8
0
 62
0
 10
85.0
 20
-35.208152801713084
 30
0.0
 11
85.00000000000001
 21
35.208152801713055
 31
0.0
  0
LINE
  8
0
 62
0
 10
85.0
 20
35.20815280171307
 30
0.0
 11
35.2081528017131
 21
84.99999999999997
 31
0.0
  0
LINE
  8
0
 62
0
 10
31.250000000000014
 20
-12.944173824159222
 30
0.0
 11
85.0
 21
-35.2081528017131
 31
0.0
  0
LINE
  8
0
 62
0
 10
31.25
 20
12.944173824159222
 30
0.0
 11
85.0
 21
35.208152801713055
 31
0.0
  0
LINE
  8
0
 62
0
 10
42.17499999999996
 20
-1.7499999999981748
 30
0.0
 11
46.04999999999996
 21
-1.7499999999981752
 31
0.0
  0
LINE
  8
0
 62
0
 10
46.04999999999996
 20
-1.7499999999981752
 30
0.0
 11
49.92499999999996
 21
-1.7499999999981757
 31
0.0
  0
LINE
  8
0
 62
0
 10
49.92499999999996
 20
-1.7499999999981757
 30
0.0
 11
49.92499999999996
 21
-5.551115123125783e-15
 31
0.0
  0
LINE
  8
0
 62
0
 10
49.92499999999996
 20
-5.551115123125783e-15
 30
0.0
 11
49.92499999999996
 21
1.7499999999999944
 31
0.0
  0
LINE
  8
0
 62
0
 10
49.92499999999996
 20
1.7499999999999944
 30
0.0
 11
46.049999
 21
1.749999999999995
 31
0.0
  0
LINE
  8
0
 62
0
 10
42.17499999999996
 20
1.7499999999999953
 30
0.0
 11
46.049999
 21
1.749999999999995
 31
0.0
  0
LINE
  8
0
 62
0
 10
42.17499999999996
 20
-4.6629367034256575e-15
 30
0.0
 11
42.17499999999996
 21
1.7499999999999951
 31
0.0
  0
LINE
  8
0
 62
0
 10
42.17499999999996
 20
-1.7499999999981748
 30
0.0
 11
42.17499999999996
 21
-4.6629367034256575e-15
 31
0.0
  0
LINE
  8
0
 62
0
 10
35.20815280171309
 20
-85.00000000000003
 30
0.0
 11
85.0
 21
-35.20815280171312
 31
0.0
  0
LINE
  8
0
 62
0
 10
-35.20815280171308
 20
-85.0
 30
0.0
 11
35.20815280171306
 21
-85.0
 31
0.0
  0
LINE
  8
0
 62
0
 10
35.208152801713084
 20
85.0
 30
0.0
 11
-35.208152801713055
 21
85.00000000000001
 31
0.0
  0
LINE
  8
0
 62
0
 10
-85.0
 20
-35.20815280171306
 30
0.0
 11
-35.208152801713105
 21
-84.99999999999997
 31
0.0
  0
LINE
  8
0
 62
0
 10
-35.20815280171307
 20
85.00000000000001
 30
0.0
 11
-84.99999999999999
 21
35.20815280171311
 31
0.0
  0
LINE
  8
0
 62
0
 10
-84.99999999999999
 20
35.2081528017131
 30
0.0
 11
-85.0
 21
-35.20815280171304
 31
0.0
  0
LINE
  8
0
 62
0
 10
-42.17499999999996
 20
1.7499999999981795
 30
0.0
 11
-46.04999999999996
 21
1.7499999999981803
 31
0.0
  0
LINE
  8
0
 62
0
 10
-46.04999999999996
 20
1.7499999999981803
 30
0.0
 11
-49.92499999999996
 21
1.7499999999981812
 31
0.0
  0
LINE
  8
0
 62
0
 10
-49.92499999999996
 20
1.7499999999981812
 30
0.0
 11
-49.92499999999996
 21
1.1102230246251565e-14
 31
0.0
  0
LINE
  8
0
 62
0
 10
-49.92499999999996
 20
1.1102230246251565e-14
 30
0.0
 11
-49.92499999999996
 21
-1.749999999999989
 31
0.0
  0
LINE
  8
0
 62
0
 10
-49.92499999999996
 20
-1.749999999999989
 30
0.0
 11
-46.049999
 21
-1.7499999999999898
 31
0.0
  0
LINE
  8
0
 62
0
 10
-42.17499999999996
 20
-1.7499999999999907
 30
0.0
 11
-46.049999
 21
-1.7499999999999898
 31
0.0
  0
LINE
  8
0
 62
0
 10
-42.17499999999996
 20
9.381384558082573e-15
 30
0.0
 11
-42.17499999999996
 21
-1.7499999999999907
 31
0.0
  0
LINE
  8
0
 62
0
 10
-42.17499999999996
 20
1.7499999999981795
 30
0.0
 11
-42.17499999999996
 21
9.325873406851315e-15
 31
0.0
  0
LINE
  8
0
 62
0
 10
-1.74999999999817
 20
-42.17499999999996
 30
0.0
 11
-1.74999999999817
 21
-46.04999999999996
 31
0.0
  0
LINE
  8
0
 62
0
 10
-1.7499999999981701
 20
-42.17499999999996
 30
0.0
 11
0.0
 21
-42.17499999999996
 31
0.0
  0
LINE
  8
0
 62
0
 10
-1.74999999999817
 20
-46.04999999999996
 30
0.0
 11
-1.74999999999817
 21
-49.92499999999996
 31
0.0
  0
LINE
  8
0
 62
0
 10
0.0
 20
-42.17499999999996
 30
0.0
 11
1.75
 21
-42.17499999999996
 31
0.0
  0
LINE
  8
0
 62
0
 10
-1.7499999999981701
 20
-49.92499999999996
 30
0.0
 11
0.0
 21
-49.92499999999996
 31
0.0
  0
LINE
  8
0
 62
0
 10
1.75
 20
-42.17499999999996
 30
0.0
 11
1.75
 21
-46.049999
 31
0.0
  0
LINE
  8
0
 62
0
 10
0.0
 20
-49.92499999999996
 30
0.0
 11
1.75
 21
-49.92499999999996
 31
0.0
  0
LINE
  8
0
 62
0
 10
1.75
 20
-49.92499999999996
 30
0.0
 11
1.75
 21
-46.049999
 31
0.0
  0
CIRCLE
  8
0
 62
0
 10
0.0
 20
0.0
 30
0.0
 40
27.0
  0
LINE
  8
0
 62
0
 10
1.7499999999981752
 20
42.17499999999996
 30
0.0
 11
1.7499999999981757
 21
46.04999999999996
 31
0.0
  0
LINE
  8
0
 62
0
 10
1.7499999999981755
 20
46.04999999999996
 30
0.0
 11
1.7499999999981761
 21
49.92499999999996
 31
0.0
  0
LINE
  8
0
 62
0
 10
1.7499999999981763
 20
49.92499999999996
 30
0.0
 11
6.217248937900877e-15
 21
49.92499999999996
 31
0.0
  0
LINE
  8
0
 62
0
 10
6.106226635438361e-15
 20
49.92499999999996
 30
0.0
 11
-1.7499999999999938
 21
49.92499999999996
 31
0.0
  0
LINE
  8
0
 62
0
 10
-1.7499999999999938
 20
49.92499999999996
 30
0.0
 11
-1.7499999999999942
 21
46.049999
 31
0.0
  0
LINE
  8
0
 62
0
 10
-1.749999999999995
 20
42.17499999999996
 30
0.0
 11
-1.7499999999999944
 21
46.049999
 31
0.0
  0
LINE
  8
0
 62
0
 10
5.162537064506978e-15
 20
42.17499999999996
 30
0.0
 11
-1.7499999999999947
 21
42.17499999999996
 31
0.0
  0
LINE
  8
0
 62
0
 10
1.7499999999981752
 20
42.17499999999996
 30
0.0
 11
5.10702591327572e-15
 21
42.17499999999996
 31
0.0
  0
LINE
  8
0
 62
0
 10
12.944173824159218
 20
31.25
 30
0.0
 11
35.2081528017131
 21
84.99999999999999
 31
0.0
  0
LINE
  8
0
 62
0
 10
12.944173824159225
 20
-31.25
 30
0.0
 11
35.20815280171306
 21
-85.0
 31
0.0
  0
LINE
  8
0
 62
0
 10
31.25
 20
-12.944173824159222
 30
0.0
 11
31.250000000000007
 21
12.944173824159222
 31
0.0
  0
CIRCLE
  8
0
 62
0
 10
82.454773
 20
-30.64528100000001
 30
0.0
 40
1.0
  0
CIRCLE
  8
0
 62
0
 10
63.724648
 20
-22.710976000000006
 30
0.0
 40
1.0
  0
CIRCLE
  8
0
 62
0
 10
81.413193
 20
-9.038680137685163e-15
 30
0.0
 40
1.0
  0
CIRCLE
  8
0
 62
0
 10
63.724648
 20
22.71097599999999
 30
0.0
 40
1.0
  0
CIRCLE
  8
0
 62
0
 10
34.544109
 20
-10.456896000000004
 30
0.0
 40
1.0
  0
CIRCLE
  8
0
 62
0
 10
34.104115
 20
-3.786317370746417e-15
 30
0.0
 40
1.0
  0
CIRCLE
  8
0
 62
0
 10
34.544109
 20
10.456895999999997
 30
0.0
 40
1.0
  0
LINE
  8
0
 62
0
 10
-35.20815280171308
 20
-85.0
 30
0.0
 11
-12.944173824159218
 21
-31.25
 31
0.0
  0
LINE
  8
0
 62
0
 10
-12.944173824159222
 20
31.25
 30
0.0
 11
-35.208152801713055
 21
85.0
 31
0.0
  0
LINE
  8
0
 62
0
 10
-31.250000000000004
 20
-12.944173824159218
 30
0.0
 11
-85.00000000000001
 21
-35.20815280171304
 31
0.0
  0
LINE
  8
0
 62
0
 10
-31.250000000000004
 20
12.944173824159222
 30
0.0
 11
-84.99999999999999
 21
35.20815280171311
 31
0.0
  0
LINE
  8
0
 62
0
 10
-12.944173824159218
 20
-31.25
 30
0.0
 11
12.944173824159225
 21
-31.250000000000004
 31
0.0
  0
LINE
  8
0
 62
0
 10
-31.25
 20
-12.944173824159213
 30
0.0
 11
-12.944173824159225
 21
-31.25
 31
0.0
  0
LINE
  8
0
 62
0
 10
-31.249999999999996
 20
12.944173824159225
 30
0.0
 11
-31.250000000000007
 21
-12.944173824159218
 31
0.0
  0
LINE
  8
0
 62
0
 10
-12.944173824159217
 20
31.25
 30
0.0
 11
-31.250000000000007
 21
12.944173824159222
 31
0.0
  0
LINE
  8
0
 62
0
 10
12.944173824159222
 20
31.25
 30
0.0
 11
-12.944173824159222
 21
31.250000000000007
 31
0.0
  0
LINE
  8
0
 62
0
 10
31.25
 20
12.944173824159218
 30
0.0
 11
12.944173824159222
 21
31.250000000000004
 31
0.0
  0
LINE
  8
0
 62
0
 10
12.944173824159227
 20
-31.250000000000007
 30
0.0
 11
31.250000000000014
 21
-12.944173824159225
 31
0.0
  0
CIRCLE
  8
0
 62
0
 10
57.56782084834917
 20
57.567820848349164
 30
0.0
 40
1.0
  0
CIRCLE
  8
0
 62
0
 10
24.115250982865856
 20
24.115250982865852
 30
0.0
 40
1.0
  0
CIRCLE
  8
0
 62
0
 10
29.001045592560835
 20
61.11921586649069
 30
0.0
 40
1.0
  0
CIRCLE
  8
0
 62
0
 10
17.032231652184763
 20
31.820515795709728
 30
0.0
 40
1.0
  0
CIRCLE
  8
0
 62
0
 10
61.1192158664907
 20
29.00104559256083
 30
0.0
 40
1.0
  0
CIRCLE
  8
0
 62
0
 10
79.97381513596471
 20
36.63484312303018
 30
0.0
 40
1.0
  0
CIRCLE
  8
0
 62
0
 10
31.82051579570973
 20
17.03223165218476
 30
0.0
 40
1.0
  0
CIRCLE
  8
0
 62
0
 10
57.56782084834918
 20
-57.56782084834918
 30
0.0
 40
1.0
  0
CIRCLE
  8
0
 62
0
 10
24.11525098286586
 20
-24.11525098286586
 30
0.0
 40
1.0
  0
CIRCLE
  8
0
 62
0
 10
61.11921586649072
 20
-29.001045592560846
 30
0.0
 40
1.0
  0
CIRCLE
  8
0
 62
0
 10
31.82051579570974
 20
-17.03223165218477
 30
0.0
 40
1.0
  0
CIRCLE
  8
0
 62
0
 10
29.001045592560846
 20
-61.11921586649072
 30
0.0
 40
1.0
  0
CIRCLE
  8
0
 62
0
 10
36.634843123030194
 20
-79.97381513596473
 30
0.0
 40
1.0
  0
CIRCLE
  8
0
 62
0
 10
17.03223165218477
 20
-31.82051579570974
 30
0.0
 40
1.0
  0
CIRCLE
  8
0
 62
0
 10
-30.645281
 20
-82.454773
 30
0.0
 40
1.0
  0
CIRCLE
  8
0
 62
0
 10
-22.710976
 20
-63.724648
 30
0.0
 40
1.0
  0
CIRCLE
  8
0
 62
0
 10
0.0
 20
-81.413193
 30
0.0
 40
1.0
  0
CIRCLE
  8
0
 62
0
 10
22.710976
 20
-63.724648
 30
0.0
 40
1.0
  0
CIRCLE
  8
0
 62
0
 10
-10.456896
 20
-34.544109
 30
0.0
 40
1.0
  0
CIRCLE
  8
0
 62
0
 10
0.0
 20
-34.104115
 30
0.0
 40
1.0
  0
CIRCLE
  8
0
 62
0
 10
10.456896
 20
-34.544109
 30
0.0
 40
1.0
  0
CIRCLE
  8
0
 62
0
 10
30.64528100000001
 20
82.454773
 30
0.0
 40
1.0
  0
CIRCLE
  8
0
 62
0
 10
22.710976000000006
 20
63.724648
 30
0.0
 40
1.0
  0
CIRCLE
  8
0
 62
0
 10
9.970240621581571e-15
 20
81.413193
 30
0.0
 40
1.0
  0
CIRCLE
  8
0
 62
0
 10
-22.71097599999999
 20
63.724648
 30
0.0
 40
1.0
  0
CIRCLE
  8
0
 62
0
 10
10.456896000000004
 20
34.544109
 30
0.0
 40
1.0
  0
CIRCLE
  8
0
 62
0
 10
4.176549527250323e-15
 20
34.104115
 30
0.0
 40
1.0
  0
CIRCLE
  8
0
 62
0
 10
-10.456895999999997
 20
34.544109
 30
0.0
 40
1.0
  0
CIRCLE
  8
0
 62
0
 10
-57.56782084834918
 20
-57.56782084834915
 30
0.0
 40
1.0
  0
CIRCLE
  8
0
 62
0
 10
-24.11525098286586
 20
-24.11525098286585
 30
0.0
 40
1.0
  0
CIRCLE
  8
0
 62
0
 10
-29.001045592560846
 20
-61.11921586649069
 30
0.0
 40
1.0
  0
CIRCLE
  8
0
 62
0
 10
-17.03223165218477
 20
-31.820515795709724
 30
0.0
 40
1.0
  0
CIRCLE
  8
0
 62
0
 10
-61.119215866490705
 20
-29.001045592560818
 30
0.0
 40
1.0
  0
CIRCLE
  8
0
 62
0
 10
-79.97381513596471
 20
-36.634843123030166
 30
0.0
 40
1.0
  0
CIRCLE
  8
0
 62
0
 10
-31.82051579570973
 20
-17.032231652184755
 30
0.0
 40
1.0
  0
CIRCLE
  8
0
 62
0
 10
-57.567820848349164
 20
57.56782084834918
 30
0.0
 40
1.0
  0
CIRCLE
  8
0
 62
0
 10
-24.115250982865852
 20
24.11525098286586
 30
0.0
 40
1.0
  0
CIRCLE
  8
0
 62
0
 10
-61.11921586649069
 20
29.001045592560843
 30
0.0
 40
1.0
  0
CIRCLE
  8
0
 62
0
 10
-31.82051579570973
 20
17.032231652184766
 30
0.0
 40
1.0
  0
CIRCLE
  8
0
 62
0
 10
-29.001045592560825
 20
61.119215866490705
 30
0.0
 40
1.0
  0
CIRCLE
  8
0
 62
0
 10
-36.63484312303018
 20
79.97381513596471
 30
0.0
 40
1.0
  0
CIRCLE
  8
0
 62
0
 10
-17.032231652184755
 20
31.820515795709735
 30
0.0
 40
1.0
  0
CIRCLE
  8
0
 62
0
 10
-82.454773
 20
30.64528100000002
 30
0.0
 40
1.0
  0
CIRCLE
  8
0
 62
0
 10
-63.724647999999995
 20
22.710976000000013
 30
0.0
 40
1.0
  0
CIRCLE
  8
0
 62
0
 10
-81.413193
 20
1.8077360275370326e-14
 30
0.0
 40
1.0
  0
CIRCLE
  8
0
 62
0
 10
-63.72464800000001
 20
-22.710975999999985
 30
0.0
 40
1.0
  0
CIRCLE
  8
0
 62
0
 10
-34.544109
 20
10.456896000000008
 30
0.0
 40
1.0
  0
CIRCLE
  8
0
 62
0
 10
-34.104115
 20
7.572634741492834e-15
 30
0.0
 40
1.0
  0
CIRCLE
  8
0
 62
0
 10
-34.544109
 20
-10.456895999999993
 30
0.0
 40
1.0
  0
ENDBLK
  0
ENDSEC
  0
SECTION
  2
ENTITIES
  0
INSERT
  2
BODY
  8
0
 62
0
 10
0.0
 20
0.0
 30
0.0
  0
ENDSEC
  0
EOF
