  0
SECTION
  2
HEADER
  9
$ACADVER
  1
AC1009
  9
$INSBASE
 10
0.0
 20
0.0
 30
0.0
  9
$EXTMIN
 10
0.0
 20
0.0
 30
0.0
  9
$EXTMAX
 10
0.0
 20
0.0
 30
0.0
  0
ENDSEC
  0
SECTION
  2
TABLES
  0
TABLE
  2
VPORT
 70
0
  0
ENDTAB
  0
TABLE
  2
LTYPE
 70
1
  0
LTYPE
  2
CONTINUOUS
 70
0
  3
Solid line
 72
65
 73
0
 40
0.0
  0
ENDTAB
  0
TABLE
  2
LAYER
 70
1
  0
LAYER
  2
0
 70
64
 62
7
  6
continuous
  0
ENDTAB
  0
TABLE
  2
STYLE
 70
1
  0
STYLE
  2
STANDARD
 70
0
 40
0
 41
1.0
 50
0.0
 71
0
 42
1
 3
ARIAL.TTF
 4

  0
ENDTAB
  0
TABLE
  2
VIEW
 70
0
  0
ENDTAB
  0
ENDSEC
  0
SECTION
  2
BLOCKS
  0
BLOCK
  8
0
  2
BODY014
 70
0
 10
0.0
 20
0.0
 30
0.0
  3
BODY014
  0
LINE
  8
0
 62
0
 10
-4.000000000000012
 20
33.05000000000001
 30
0.0
 11
-1.2434497875801753e-14
 21
33.05000000000001
 31
0.0
  0
LINE
  8
0
 62
0
 10
-4.000000000000012
 20
33.05000000000001
 30
0.0
 11
-111.20000000000002
 21
33.050000000000026
 31
0.0
  0
LINE
  8
0
 62
0
 10
-111.20000000000006
 20
33.050000000000026
 30
0.0
 11
-111.20000000000006
 21
42.050000000000026
 31
0.0
  0
LINE
  8
0
 62
0
 10
-111.20000000000005
 20
42.05000000000003
 30
0.0
 11
-115.20000000000005
 21
42.05000000000003
 31
0.0
  0
LINE
  8
0
 62
0
 10
-115.20000000000006
 20
46.05000000000003
 30
0.0
 11
-115.20000000000006
 21
42.05000000000003
 31
0.0
  0
LINE
  8
0
 62
0
 10
-115.20000000000006
 20
50.05000000000003
 30
0.0
 11
-115.20000000000006
 21
46.05000000000003
 31
0.0
  0
LINE
  8
0
 62
0
 10
-111.20000000000005
 20
50.05000000000003
 30
0.0
 11
-115.20000000000005
 21
50.05000000000003
 31
0.0
  0
LINE
  8
0
 62
0
 10
-111.20000000000006
 20
50.04999999999992
 30
0.0
 11
-111.20000000000006
 21
59.05000000000003
 31
0.0
  0
LINE
  8
0
 62
0
 10
-111.20000000000006
 20
59.05000000000004
 30
0.0
 11
-76.49698448653707
 21
59.05000000000003
 31
0.0
  0
LINE
  8
0
 62
0
 10
-64.52627025322776
 20
47.050000000000026
 30
0.0
 11
-76.49698448653706
 21
59.050000000000026
 31
0.0
  0
LINE
  8
0
 62
0
 10
-64.52627025322776
 20
47.050000000000026
 30
0.0
 11
11.799999999999955
 21
47.05000000000002
 31
0.0
  0
LINE
  8
0
 62
0
 10
11.799999999999992
 20
33.05000000000001
 30
0.0
 11
11.799999999999986
 21
47.05000000000001
 31
0.0
  0
LINE
  8
0
 62
0
 10
-1.101e-14
 20
33.05000000000001
 30
0.0
 11
11.799999999999986
 21
33.05000000000001
 31
0.0
  0
LINE
  8
0
 62
0
 10
-79.40005656237312
 20
57.02031500000003
 30
0.0
 11
-87.9858430000813
 21
57.02031500000003
 31
0.0
  0
LINE
  8
0
 62
0
 10
-87.98584300008132
 20
48.43452856237312
 30
0.0
 11
-87.98584300008132
 21
57.020315000000025
 31
0.0
  0
LINE
  8
0
 62
0
 10
-87.98584300000005
 20
48.43452856237312
 30
0.0
 11
-79.40005656237314
 21
57.020315000000025
 31
0.0
  0
LINE
  8
0
 62
0
 10
-79.40005656237312
 20
35.07968500000002
 30
0.0
 11
-87.9858430000813
 21
35.07968500000002
 31
0.0
  0
LINE
  8
0
 62
0
 10
-87.98584300008132
 20
43.665471437626934
 30
0.0
 11
-87.98584300008132
 21
35.079685000000026
 31
0.0
  0
LINE
  8
0
 62
0
 10
-87.98584300000005
 20
43.665471437626934
 30
0.0
 11
-79.40005656237314
 21
35.079685000000026
 31
0.0
  0
LINE
  8
0
 62
0
 10
-50.58106743778947
 20
35.05989500000002
 30
0.0
 11
-41.9952810000813
 21
35.05989500000002
 31
0.0
  0
LINE
  8
0
 62
0
 10
-41.9952810000813
 20
43.64568143762693
 30
0.0
 11
-41.9952810000813
 21
35.059895000000026
 31
0.0
  0
LINE
  8
0
 62
0
 10
-41.99528100016257
 20
43.64568143762693
 30
0.0
 11
-50.58106743778947
 21
35.059895000000026
 31
0.0
  0
LINE
  8
0
 62
0
 10
-55.40477556237313
 20
35.06979000000002
 30
0.0
 11
-63.990562000081304
 21
35.06979000000002
 31
0.0
  0
LINE
  8
0
 62
0
 10
-63.99056200008131
 20
43.655576437626934
 30
0.0
 11
-63.99056200008131
 21
35.069790000000026
 31
0.0
  0
LINE
  8
0
 62
0
 10
-63.99056200000004
 20
43.655576437626934
 30
0.0
 11
-55.40477556237314
 21
35.069790000000026
 31
0.0
  0
LINE
  8
0
 62
0
 10
-7.414213562373113
 20
35.05000000000001
 30
0.0
 11
-16.000000000081283
 21
35.05000000000001
 31
0.0
  0
LINE
  8
0
 62
0
 10
-16.00000000008129
 20
43.635786437626926
 30
0.0
 11
-16.000000000081286
 21
35.05000000000002
 31
0.0
  0
LINE
  8
0
 62
0
 10
-16.00000000000002
 20
43.635786437626926
 30
0.0
 11
-7.414213562373119
 21
35.05000000000002
 31
0.0
  0
LINE
  8
0
 62
0
 10
-6.000000000000018
 20
45.05000000000002
 30
0.0
 11
-6.000000000000015
 21
36.46421356237311
 31
0.0
  0
LINE
  8
0
 62
0
 10
-6.000000000000015
 20
36.464213562373104
 30
0.0
 11
-14.585786437708187
 21
45.05000000000001
 31
0.0
  0
LINE
  8
0
 62
0
 10
-6.000000000000018
 20
45.05000000000002
 30
0.0
 11
-14.585786437708189
 21
45.05000000000002
 31
0.0
  0
LINE
  8
0
 62
0
 10
-26.58578643778946
 20
35.05000000000001
 30
0.0
 11
-18.00000000008129
 21
35.05000000000001
 31
0.0
  0
LINE
  8
0
 62
0
 10
-18.00000000008129
 20
43.635786437626926
 30
0.0
 11
-18.000000000081286
 21
35.05000000000002
 31
0.0
  0
LINE
  8
0
 62
0
 10
-18.000000000162558
 20
43.635786437626926
 30
0.0
 11
-26.58578643778946
 21
35.05000000000002
 31
0.0
  0
LINE
  8
0
 62
0
 10
-98.57162943778948
 20
57.02031500000004
 30
0.0
 11
-89.98584300008132
 21
57.02031500000004
 31
0.0
  0
LINE
  8
0
 62
0
 10
-89.98584300008132
 20
48.43452856237312
 30
0.0
 11
-89.98584300008132
 21
57.020315000000025
 31
0.0
  0
LINE
  8
0
 62
0
 10
-89.98584300016259
 20
48.43452856237312
 30
0.0
 11
-98.57162943778948
 21
57.020315000000025
 31
0.0
  0
LINE
  8
0
 62
0
 10
-98.57162943778948
 20
35.079685000000026
 30
0.0
 11
-89.98584300008132
 21
35.079685000000026
 31
0.0
  0
LINE
  8
0
 62
0
 10
-89.98584300008132
 20
43.665471437626934
 30
0.0
 11
-89.98584300008132
 21
35.079685000000026
 31
0.0
  0
LINE
  8
0
 62
0
 10
-89.98584300016259
 20
43.665471437626934
 30
0.0
 11
-98.57162943778948
 21
35.079685000000026
 31
0.0
  0
LINE
  8
0
 62
0
 10
-74.57634843778948
 20
35.06979000000002
 30
0.0
 11
-65.99056200008131
 21
35.06979000000002
 31
0.0
  0
LINE
  8
0
 62
0
 10
-65.99056200008131
 20
43.655576437626934
 30
0.0
 11
-65.99056200008131
 21
35.069790000000026
 31
0.0
  0
LINE
  8
0
 62
0
 10
-65.99056200016257
 20
43.655576437626934
 30
0.0
 11
-74.57634843778948
 21
35.069790000000026
 31
0.0
  0
LINE
  8
0
 62
0
 10
-31.409494562373123
 20
35.05989500000001
 30
0.0
 11
-39.99528100008129
 21
35.05989500000001
 31
0.0
  0
LINE
  8
0
 62
0
 10
-39.99528100008129
 20
43.64568143762693
 30
0.0
 11
-39.99528100008129
 21
35.059895000000026
 31
0.0
  0
LINE
  8
0
 62
0
 10
-39.99528100000003
 20
43.64568143762693
 30
0.0
 11
-31.409494562373126
 21
35.059895000000026
 31
0.0
  0
LINE
  8
0
 62
0
 10
-53.99056200000003
 20
45.069790000000026
 30
0.0
 11
-53.99056200000003
 21
36.48400356237312
 31
0.0
  0
LINE
  8
0
 62
0
 10
-53.99056200000003
 20
36.48400356237311
 30
0.0
 11
-62.57634843770784
 21
45.06979000000002
 31
0.0
  0
LINE
  8
0
 62
0
 10
-53.99056200000003
 20
45.069790000000026
 30
0.0
 11
-62.57634843770784
 21
45.069790000000026
 31
0.0
  0
LINE
  8
0
 62
0
 10
-28.000000000162565
 20
45.05000000000002
 30
0.0
 11
-28.00000000016256
 21
36.46421356237311
 31
0.0
  0
LINE
  8
0
 62
0
 10
-28.00000000016256
 20
36.464213562373104
 30
0.0
 11
-19.414213562535654
 21
45.05000000000001
 31
0.0
  0
LINE
  8
0
 62
0
 10
-28.000000000162565
 20
45.05000000000002
 30
0.0
 11
-19.414213562535657
 21
45.05000000000002
 31
0.0
  0
LINE
  8
0
 62
0
 10
-99.98584300016257
 20
47.02031500000003
 30
0.0
 11
-99.98584300016257
 21
55.60610143762694
 31
0.0
  0
LINE
  8
0
 62
0
 10
-99.98584300016257
 20
55.60610143762694
 30
0.0
 11
-91.40005656253567
 21
47.02031500000003
 31
0.0
  0
LINE
  8
0
 62
0
 10
-99.98584300016257
 20
47.02031500000003
 30
0.0
 11
-91.40005656253567
 21
47.02031500000003
 31
0.0
  0
LINE
  8
0
 62
0
 10
-77.98584300000003
 20
47.020315000000025
 30
0.0
 11
-77.98584300000003
 21
55.60610143762693
 31
0.0
  0
LINE
  8
0
 62
0
 10
-77.98584300000003
 20
55.60610143762693
 30
0.0
 11
-86.57162943762694
 21
47.020315000000025
 31
0.0
  0
LINE
  8
0
 62
0
 10
-77.98584300000003
 20
47.020315000000025
 30
0.0
 11
-86.57162943762694
 21
47.020315000000025
 31
0.0
  0
LINE
  8
0
 62
0
 10
-99.98584300016257
 20
45.07968500000003
 30
0.0
 11
-99.98584300016257
 21
36.493898562373126
 31
0.0
  0
LINE
  8
0
 62
0
 10
-99.98584300016257
 20
36.49389856237312
 30
0.0
 11
-91.40005656253567
 21
45.079685000000026
 31
0.0
  0
LINE
  8
0
 62
0
 10
-99.98584300016257
 20
45.07968500000003
 30
0.0
 11
-91.40005656253567
 21
45.07968500000003
 31
0.0
  0
LINE
  8
0
 62
0
 10
-77.98584300000003
 20
45.079685000000026
 30
0.0
 11
-77.98584300000003
 21
36.49389856237312
 31
0.0
  0
LINE
  8
0
 62
0
 10
-77.98584300000003
 20
36.49389856237311
 30
0.0
 11
-86.57162943762694
 21
45.07968500000002
 31
0.0
  0
LINE
  8
0
 62
0
 10
-77.98584300000003
 20
45.079685000000026
 30
0.0
 11
-86.57162943762694
 21
45.079685000000026
 31
0.0
  0
LINE
  8
0
 62
0
 10
-51.99528100016257
 20
45.059895000000026
 30
0.0
 11
-51.99528100016257
 21
36.47410856237312
 31
0.0
  0
LINE
  8
0
 62
0
 10
-51.99528100016257
 20
36.47410856237311
 30
0.0
 11
-43.40949456253566
 21
45.05989500000002
 31
0.0
  0
LINE
  8
0
 62
0
 10
-51.99528100016257
 20
45.059895000000026
 30
0.0
 11
-43.40949456253566
 21
45.059895000000026
 31
0.0
  0
LINE
  8
0
 62
0
 10
-29.995281000000027
 20
45.05989500000002
 30
0.0
 11
-29.995281000000023
 21
36.47410856237311
 31
0.0
  0
LINE
  8
0
 62
0
 10
-29.995281000000023
 20
36.474108562373104
 30
0.0
 11
-38.58106743762693
 21
45.05989500000001
 31
0.0
  0
LINE
  8
0
 62
0
 10
-29.995281000000027
 20
45.05989500000002
 30
0.0
 11
-38.581067437626935
 21
45.05989500000002
 31
0.0
  0
LINE
  8
0
 62
0
 10
-75.99056200016257
 20
47.030210000000025
 30
0.0
 11
-75.99056200016257
 21
55.61599643762693
 31
0.0
  0
LINE
  8
0
 62
0
 10
-75.99056200016257
 20
55.61599643762693
 30
0.0
 11
-67.40477556253568
 21
47.050000000000026
 31
0.0
  0
LINE
  8
0
 62
0
 10
-75.99056200016257
 20
47.030210000000025
 30
0.0
 11
-67.40477556253568
 21
47.050000000000026
 31
0.0
  0
LINE
  8
0
 62
0
 10
-75.99056200016257
 20
45.069790000000026
 30
0.0
 11
-75.99056200016257
 21
36.48400356237312
 31
0.0
  0
LINE
  8
0
 62
0
 10
-75.99056200016257
 20
36.48400356237311
 30
0.0
 11
-67.40477556253568
 21
45.06979000000002
 31
0.0
  0
LINE
  8
0
 62
0
 10
-75.99056200016257
 20
45.069790000000026
 30
0.0
 11
-67.40477556253568
 21
45.069790000000026
 31
0.0
  0
LINE
  8
0
 62
0
 10
1.7999999999999858
 20
45.05000000000002
 30
0.0
 11
1.7999999999999887
 21
36.48978543174107
 31
0.0
  0
LINE
  8
0
 62
0
 10
8.385786437626978
 20
45.05000000000002
 30
0.0
 11
1.79999999999999
 21
36.48978543174107
 31
0.0
  0
LINE
  8
0
 62
0
 10
1.7999999999999858
 20
45.05000000000002
 30
0.0
 11
8.385786437626974
 21
45.05000000000002
 31
0.0
  0
LINE
  8
0
 62
0
 10
3.238736652845635
 20
35.10052777250052
 30
0.0
 11
9.79999999999999
 21
35.10052777250052
 31
0.0
  0
LINE
  8
0
 62
0
 10
9.800000000000033
 20
43.635786437626884
 30
0.0
 11
9.799999999999994
 21
35.10052777250053
 31
0.0
  0
LINE
  8
0
 62
0
 10
9.800000000000033
 20
43.635786437626884
 30
0.0
 11
3.2387366528456347
 21
35.10052777250053
 31
0.0
  0
LINE
  8
0
 62
0
 10
-101.98584300016257
 20
47.02849296997276
 30
0.0
 11
-101.98584300016257
 21
55.61427946765421
 31
0.0
  0
LINE
  8
0
 62
0
 10
-107.78578643762697
 20
47.02849296997276
 30
0.0
 11
-101.98584300016257
 21
55.61427946765421
 31
0.0
  0
LINE
  8
0
 62
0
 10
-107.78578643762697
 20
47.02849296997276
 30
0.0
 11
-101.98584300016257
 21
47.02849296997276
 31
0.0
  0
LINE
  8
0
 62
0
 10
-109.20000000000006
 20
48.44270653234586
 30
0.0
 11
-109.20000000000006
 21
57.028493030027306
 31
0.0
  0
LINE
  8
0
 62
0
 10
-109.20000000000006
 20
57.02849303002731
 30
0.0
 11
-103.40005656253567
 21
57.02849303002731
 31
0.0
  0
LINE
  8
0
 62
0
 10
-103.40005656253567
 20
57.02849303002731
 30
0.0
 11
-109.20000000000006
 21
48.442706532345866
 31
0.0
  0
LINE
  8
0
 62
0
 10
-109.20000000000006
 20
43.65729340759967
 30
0.0
 11
-109.20000000000006
 21
35.07150696997276
 31
0.0
  0
LINE
  8
0
 62
0
 10
-109.20000000000006
 20
35.07150696997275
 30
0.0
 11
-103.40005656253567
 21
35.07150696997275
 31
0.0
  0
LINE
  8
0
 62
0
 10
-103.40005656253567
 20
35.07150696997275
 30
0.0
 11
-109.20000000000006
 21
43.65729340759966
 31
0.0
  0
LINE
  8
0
 62
0
 10
-101.98584300016257
 20
45.02849296997276
 30
0.0
 11
-101.98584300016257
 21
36.48572053234586
 31
0.0
  0
LINE
  8
0
 62
0
 10
-107.74404266540957
 20
45.02849296997276
 30
0.0
 11
-101.98584300016257
 21
36.48572053234586
 31
0.0
  0
LINE
  8
0
 62
0
 10
-107.74404266540957
 20
45.02849296997276
 30
0.0
 11
-101.98584300016257
 21
45.02849296997276
 31
0.0
  0
LINE
  8
0
 62
0
 10
-4.000000000000015
 20
39.05000000000001
 30
0.0
 11
-1.509903313490213e-14
 21
39.05000000000001
 31
0.0
  0
LINE
  8
0
 62
0
 10
-1.301e-14
 20
39.05000000000001
 30
0.0
 11
-1.499e-14
 21
45.05000000000001
 31
0.0
  0
LINE
  8
0
 62
0
 10
-4.000000000000017
 20
45.05000000000002
 30
0.0
 11
-1.687538997430238e-14
 21
45.05000000000002
 31
0.0
  0
LINE
  8
0
 62
0
 10
-4.000000000000015
 20
39.05000000000001
 30
0.0
 11
-4.000000000000017
 21
45.05000000000001
 31
0.0
  0
ENDBLK
  0
ENDSEC
  0
SECTION
  2
ENTITIES
  0
INSERT
  2
BODY014
  8
0
 62
0
 10
0.0
 20
0.0
 30
0.0
  0
ENDSEC
  0
EOF
