  0
SECTION
  2
HEADER
  9
$ACADVER
  1
AC1009
  9
$INSBASE
 10
0.0
 20
0.0
 30
0.0
  9
$EXTMIN
 10
0.0
 20
0.0
 30
0.0
  9
$EXTMAX
 10
0.0
 20
0.0
 30
0.0
  0
ENDSEC
  0
SECTION
  2
TABLES
  0
TABLE
  2
VPORT
 70
0
  0
ENDTAB
  0
TABLE
  2
LTYPE
 70
1
  0
LTYPE
  2
CONTINUOUS
 70
0
  3
Solid line
 72
65
 73
0
 40
0.0
  0
ENDTAB
  0
TABLE
  2
LAYER
 70
1
  0
LAYER
  2
0
 70
64
 62
7
  6
continuous
  0
ENDTAB
  0
TABLE
  2
STYLE
 70
1
  0
STYLE
  2
STANDARD
 70
0
 40
0
 41
1.0
 50
0.0
 71
0
 42
1
 3
ARIAL.TTF
 4

  0
ENDTAB
  0
TABLE
  2
VIEW
 70
0
  0
ENDTAB
  0
ENDSEC
  0
SECTION
  2
BLOCKS
  0
BLOCK
  8
0
  2
BODY001
 70
0
 10
0.0
 20
0.0
 30
0.0
  3
BODY001
  0
LINE
  8
0
 62
0
 10
42.8057552307227
 20
-37.59316343156904
 30
0.0
 11
42.8057552307227
 21
-53.383163431569045
 31
0.0
  0
LINE
  8
0
 62
0
 10
42.8057552307227
 20
-37.59316343156904
 30
0.0
 11
38.8057552307207
 21
-37.59316343156904
 31
0.0
  0
LINE
  8
0
 62
0
 10
42.8057552307227
 20
-53.383163431569045
 30
0.0
 11
92.60021476187936
 21
-103.17762296272572
 31
0.0
  0
LINE
  8
0
 62
0
 10
38.8057552307207
 20
-37.59316343156904
 30
0.0
 11
38.8057552307207
 21
-35.83316343156904
 31
0.0
  0
LINE
  8
0
 62
0
 10
-108.58870430043598
 20
-103.17762296272572
 30
0.0
 11
92.60021476187936
 21
-103.17762296272572
 31
0.0
  0
LINE
  8
0
 62
0
 10
38.8057552307207
 20
-35.83316343156904
 30
0.0
 11
38.8057552307207
 21
-34.07316343156904
 31
0.0
  0
LINE
  8
0
 62
0
 10
-108.58870430043598
 20
-103.17762296272572
 30
0.0
 11
-58.7942447692793
 21
-53.38316343156904
 31
0.0
  0
LINE
  8
0
 62
0
 10
38.8057552307207
 20
-34.07316343156904
 30
0.0
 11
42.8057552307207
 21
-34.07316343156904
 31
0.0
  0
LINE
  8
0
 62
0
 10
-58.7942447692793
 20
-37.55316343156903
 30
0.0
 11
-58.7942447692793
 21
-53.38316343156904
 31
0.0
  0
LINE
  8
0
 62
0
 10
42.8057552307207
 20
-2.3031634315690432
 30
0.0
 11
42.8057552307207
 21
-34.07316343156904
 31
0.0
  0
LINE
  8
0
 62
0
 10
-58.7942447692793
 20
-37.55316343156903
 30
0.0
 11
-54.7942447692793
 21
-37.55316343156903
 31
0.0
  0
LINE
  8
0
 62
0
 10
38.8057552307207
 20
-2.3031634315690432
 30
0.0
 11
42.8057552307207
 21
-2.3031634315690432
 31
0.0
  0
LINE
  8
0
 62
0
 10
-54.7942447692793
 20
-37.55316343156903
 30
0.0
 11
-54.7942447692793
 21
-35.79316343156903
 31
0.0
  0
LINE
  8
0
 62
0
 10
38.8057552307207
 20
-0.5431634315690432
 30
0.0
 11
38.8057552307207
 21
-2.3031634315690432
 31
0.0
  0
LINE
  8
0
 62
0
 10
-54.7942447692793
 20
-35.79316343156903
 30
0.0
 11
-54.7942447692793
 21
-34.03316343156903
 31
0.0
  0
LINE
  8
0
 62
0
 10
38.8057552307207
 20
1.2168365684309563
 30
0.0
 11
38.8057552307207
 21
-0.5431634315690432
 31
0.0
  0
LINE
  8
0
 62
0
 10
-54.7942447692793
 20
-34.03316343156903
 30
0.0
 11
-58.7942447692793
 21
-34.03316343156903
 31
0.0
  0
LINE
  8
0
 62
0
 10
42.8057552307207
 20
1.2168365684309563
 30
0.0
 11
38.8057552307207
 21
1.2168365684309563
 31
0.0
  0
LINE
  8
0
 62
0
 10
-58.7942447692793
 20
-2.2631634315690285
 30
0.0
 11
-58.7942447692793
 21
-34.03316343156903
 31
0.0
  0
LINE
  8
0
 62
0
 10
42.8057552307207
 20
17.036836568430957
 30
0.0
 11
42.8057552307207
 21
1.2168365684309563
 31
0.0
  0
LINE
  8
0
 62
0
 10
-54.7942447692793
 20
-2.2631634315690285
 30
0.0
 11
-58.7942447692793
 21
-2.2631634315690285
 31
0.0
  0
LINE
  8
0
 62
0
 10
92.60021476187737
 20
66.83129609958765
 30
0.0
 11
42.8057552307207
 21
17.036836568430957
 31
0.0
  0
LINE
  8
0
 62
0
 10
-54.7942447692793
 20
-0.5031634315690285
 30
0.0
 11
-54.7942447692793
 21
-2.2631634315690285
 31
0.0
  0
LINE
  8
0
 62
0
 10
-108.58870430043598
 20
66.83129609958765
 30
0.0
 11
92.60021476187737
 21
66.83129609958765
 31
0.0
  0
LINE
  8
0
 62
0
 10
-54.7942447692793
 20
1.2568365684309715
 30
0.0
 11
-54.7942447692793
 21
-0.5031634315690285
 31
0.0
  0
LINE
  8
0
 62
0
 10
-108.58870430043598
 20
66.83129609958765
 30
0.0
 11
-58.794244769279295
 21
17.036836568430964
 31
0.0
  0
LINE
  8
0
 62
0
 10
-58.7942447692793
 20
1.2568365684309715
 30
0.0
 11
-54.7942447692793
 21
1.2568365684309715
 31
0.0
  0
LINE
  8
0
 62
0
 10
-58.7942447692793
 20
17.03683656843097
 30
0.0
 11
-58.7942447692793
 21
1.2568365684309715
 31
0.0
  0
LINE
  8
0
 62
0
 10
1.006295971974243
 20
-27.968929
 30
0.0
 11
1.0062956995660546
 21
-9.968929
 31
0.0
  0
LINE
  8
0
 62
0
 10
1.0062956995660546
 20
-9.968929
 30
0.0
 11
-16.993704300433947
 21
-9.968929
 31
0.0
  0
LINE
  8
0
 62
0
 10
-16.993704300433947
 20
-9.968929
 30
0.0
 11
-16.993704300433947
 21
-27.968929
 31
0.0
  0
LINE
  8
0
 62
0
 10
-16.993704300433947
 20
-27.968929
 30
0.0
 11
1.006295971974243
 21
-27.968929
 31
0.0
  0
ENDBLK
  0
ENDSEC
  0
SECTION
  2
ENTITIES
  0
INSERT
  2
BODY001
  8
0
 62
0
 10
0.0
 20
0.0
 30
0.0
  0
ENDSEC
  0
EOF
