  0
SECTION
  2
HEADER
  9
$ACADVER
  1
AC1009
  9
$INSBASE
 10
0.0
 20
0.0
 30
0.0
  9
$EXTMIN
 10
0.0
 20
0.0
 30
0.0
  9
$EXTMAX
 10
0.0
 20
0.0
 30
0.0
  0
ENDSEC
  0
SECTION
  2
TABLES
  0
TABLE
  2
VPORT
 70
0
  0
ENDTAB
  0
TABLE
  2
LTYPE
 70
1
  0
LTYPE
  2
CONTINUOUS
 70
0
  3
Solid line
 72
65
 73
0
 40
0.0
  0
ENDTAB
  0
TABLE
  2
LAYER
 70
1
  0
LAYER
  2
0
 70
64
 62
7
  6
continuous
  0
ENDTAB
  0
TABLE
  2
STYLE
 70
1
  0
STYLE
  2
STANDARD
 70
0
 40
0
 41
1.0
 50
0.0
 71
0
 42
1
 3
ARIAL.TTF
 4

  0
ENDTAB
  0
TABLE
  2
VIEW
 70
0
  0
ENDTAB
  0
ENDSEC
  0
SECTION
  2
BLOCKS
  0
BLOCK
  8
0
  2
BODY001
 70
0
 10
0.0
 20
0.0
 30
0.0
  3
BODY001
  0
LINE
  8
0
 62
0
 10
137.39368764917498
 20
-37.66086142346092
 30
0.0
 11
137.39368764917498
 21
-53.45086142346092
 31
0.0
  0
LINE
  8
0
 62
0
 10
137.39368764917498
 20
-37.66086142346092
 30
0.0
 11
133.393687649173
 21
-37.66086142346092
 31
0.0
  0
LINE
  8
0
 62
0
 10
137.39368764917498
 20
-53.45086142346092
 30
0.0
 11
187.18814718033167
 21
-103.2453209546176
 31
0.0
  0
LINE
  8
0
 62
0
 10
133.393687649173
 20
-37.66086142346092
 30
0.0
 11
133.393687649173
 21
-35.90086142346092
 31
0.0
  0
LINE
  8
0
 62
0
 10
-115.60077188198369
 20
-103.2453209546176
 30
0.0
 11
187.18814718033167
 21
-103.2453209546176
 31
0.0
  0
LINE
  8
0
 62
0
 10
133.393687649173
 20
-35.90086142346092
 30
0.0
 11
133.393687649173
 21
-34.14086142346092
 31
0.0
  0
LINE
  8
0
 62
0
 10
-115.60077188198369
 20
-103.2453209546176
 30
0.0
 11
-65.806312350827
 21
-53.45086142346092
 31
0.0
  0
LINE
  8
0
 62
0
 10
133.393687649173
 20
-34.14086142346092
 30
0.0
 11
137.393687649173
 21
-34.14086142346092
 31
0.0
  0
LINE
  8
0
 62
0
 10
-65.80631235082701
 20
-37.620861423460916
 30
0.0
 11
-65.80631235082701
 21
-53.45086142346093
 31
0.0
  0
LINE
  8
0
 62
0
 10
137.393687649173
 20
-2.370861423460919
 30
0.0
 11
137.393687649173
 21
-34.14086142346092
 31
0.0
  0
LINE
  8
0
 62
0
 10
-65.80631235082701
 20
-37.620861423460916
 30
0.0
 11
-61.806312350827014
 21
-37.620861423460916
 31
0.0
  0
LINE
  8
0
 62
0
 10
133.393687649173
 20
-2.370861423460919
 30
0.0
 11
137.393687649173
 21
-2.370861423460919
 31
0.0
  0
LINE
  8
0
 62
0
 10
-61.806312350827014
 20
-37.620861423460916
 30
0.0
 11
-61.806312350827014
 21
-35.86086142346091
 31
0.0
  0
LINE
  8
0
 62
0
 10
133.393687649173
 20
-0.6108614234609191
 30
0.0
 11
133.393687649173
 21
-2.370861423460919
 31
0.0
  0
LINE
  8
0
 62
0
 10
-61.806312350827014
 20
-35.86086142346091
 30
0.0
 11
-61.806312350827014
 21
-34.10086142346091
 31
0.0
  0
LINE
  8
0
 62
0
 10
133.393687649173
 20
1.1491385765390802
 30
0.0
 11
133.393687649173
 21
-0.6108614234609191
 31
0.0
  0
LINE
  8
0
 62
0
 10
-61.806312350827014
 20
-34.10086142346091
 30
0.0
 11
-65.80631235082701
 21
-34.10086142346091
 31
0.0
  0
LINE
  8
0
 62
0
 10
137.393687649173
 20
1.1491385765390802
 30
0.0
 11
133.393687649173
 21
1.1491385765390802
 31
0.0
  0
LINE
  8
0
 62
0
 10
-65.80631235082701
 20
-2.330861423460913
 30
0.0
 11
-65.80631235082701
 21
-34.10086142346091
 31
0.0
  0
LINE
  8
0
 62
0
 10
137.393687649173
 20
16.96913857653908
 30
0.0
 11
137.393687649173
 21
1.1491385765390802
 31
0.0
  0
LINE
  8
0
 62
0
 10
-61.806312350827014
 20
-2.330861423460913
 30
0.0
 11
-65.80631235082701
 21
-2.330861423460913
 31
0.0
  0
LINE
  8
0
 62
0
 10
187.18814718032962
 20
66.76359810769576
 30
0.0
 11
137.393687649173
 21
16.969138576539073
 31
0.0
  0
LINE
  8
0
 62
0
 10
-61.806312350827014
 20
-0.5708614234609131
 30
0.0
 11
-61.806312350827014
 21
-2.330861423460913
 31
0.0
  0
LINE
  8
0
 62
0
 10
-115.60077188198369
 20
66.76359810769576
 30
0.0
 11
187.18814718032962
 21
66.76359810769576
 31
0.0
  0
LINE
  8
0
 62
0
 10
-61.806312350827014
 20
1.1891385765390865
 30
0.0
 11
-61.806312350827014
 21
-0.5708614234609131
 31
0.0
  0
LINE
  8
0
 62
0
 10
-115.60077188198369
 20
66.76359810769576
 30
0.0
 11
-65.806312350827
 21
16.96913857653908
 31
0.0
  0
LINE
  8
0
 62
0
 10
-65.80631235082701
 20
1.1891385765390865
 30
0.0
 11
-61.806312350827014
 21
1.1891385765390865
 31
0.0
  0
LINE
  8
0
 62
0
 10
-65.80631235082701
 20
16.969138576539088
 30
0.0
 11
-65.80631235082701
 21
1.1891385765390865
 31
0.0
  0
LINE
  8
0
 62
0
 10
44.79426815842006
 20
-27.241401892304232
 30
0.0
 11
44.79422811801839
 21
-9.241401892304232
 31
0.0
  0
LINE
  8
0
 62
0
 10
44.79422811801839
 20
-9.241401892304232
 30
0.0
 11
26.79422811801839
 21
-9.241401892304232
 31
0.0
  0
LINE
  8
0
 62
0
 10
26.79422811801839
 20
-9.241401892304232
 30
0.0
 11
26.79422811801839
 21
-27.241401892304232
 31
0.0
  0
LINE
  8
0
 62
0
 10
26.79422811801839
 20
-27.241401892304232
 30
0.0
 11
44.79426815842006
 21
-27.241401892304232
 31
0.0
  0
ENDBLK
  0
ENDSEC
  0
SECTION
  2
ENTITIES
  0
INSERT
  2
BODY001
  8
0
 62
0
 10
0.0
 20
0.0
 30
0.0
  0
ENDSEC
  0
EOF
