  0
SECTION
  2
HEADER
  9
$ACADVER
  1
AC1009
  9
$INSBASE
 10
0.0
 20
0.0
 30
0.0
  9
$EXTMIN
 10
0.0
 20
0.0
 30
0.0
  9
$EXTMAX
 10
0.0
 20
0.0
 30
0.0
  0
ENDSEC
  0
SECTION
  2
TABLES
  0
TABLE
  2
VPORT
 70
0
  0
ENDTAB
  0
TABLE
  2
LTYPE
 70
1
  0
LTYPE
  2
CONTINUOUS
 70
0
  3
Solid line
 72
65
 73
0
 40
0.0
  0
ENDTAB
  0
TABLE
  2
LAYER
 70
1
  0
LAYER
  2
0
 70
64
 62
7
  6
continuous
  0
ENDTAB
  0
TABLE
  2
STYLE
 70
1
  0
STYLE
  2
STANDARD
 70
0
 40
0
 41
1.0
 50
0.0
 71
0
 42
1
 3
ARIAL.TTF
 4

  0
ENDTAB
  0
TABLE
  2
VIEW
 70
0
  0
ENDTAB
  0
ENDSEC
  0
SECTION
  2
BLOCKS
  0
BLOCK
  8
0
  2
BODY
 70
0
 10
0.0
 20
0.0
 30
0.0
  3
BODY
  0
ARC
  8
0
 62
0
 10
-7.5000000000000995
 20
0.0
 30
0.0
 40
80.0
 50
90.0
 51
98.72864556601118
  0
LINE
  8
0
 62
0
 10
-19.640400654012524
 20
79.07345111957645
 30
0.0
 11
-18.94922774108656
 21
75.15361474428721
 31
0.0
  0
LINE
  8
0
 62
0
 10
-18.94922774108656
 20
75.15361474428722
 30
0.0
 11
-22.4452952642799
 21
74.53716371356963
 31
0.0
  0
LINE
  8
0
 62
0
 10
-23.136468177205895
 20
78.45700008885905
 30
0.0
 11
-22.4452952642799
 21
74.53716371356961
 31
0.0
  0
ARC
  8
0
 62
0
 10
-7.5000000000000995
 20
0.0
 30
0.0
 40
80.0
 50
101.27135443398318
 51
118.72864556601188
  0
LINE
  8
0
 62
0
 10
-45.95295799313287
 20
70.15247694542491
 30
0.0
 11
-43.9628049082796
 21
66.70543068761911
 31
0.0
  0
LINE
  8
0
 62
0
 10
-43.9628049082796
 20
66.70543068761911
 30
0.0
 11
-47.03719509171436
 21
64.93043068761911
 31
0.0
  0
LINE
  8
0
 62
0
 10
-49.027348176567685
 20
68.37747694542502
 30
0.0
 11
-47.03719509171436
 21
64.93043068761912
 31
0.0
  0
ARC
  8
0
 62
0
 10
-7.5000000000000995
 20
0.0
 30
0.0
 40
80.0
 50
121.27135443398348
 51
138.72864556601235
  0
LINE
  8
0
 62
0
 10
-67.62752109306237
 20
52.77007871136218
 30
0.0
 11
-64.57842966984646
 21
50.2115872227159
 31
0.0
  0
LINE
  8
0
 62
0
 10
-64.57842966984646
 20
50.21158722271589
 30
0.0
 11
-66.86032568423367
 21
47.49212944964352
 31
0.0
  0
LINE
  8
0
 62
0
 10
-69.90941710744968
 20
50.050620938289896
 30
0.0
 11
-66.86032568423367
 21
47.49212944964353
 31
0.0
  0
ARC
  8
0
 62
0
 10
-7.5000000000000995
 20
0.0
 30
0.0
 40
80.0
 50
141.2713544339829
 51
158.72864556601218
  0
LINE
  8
0
 62
0
 10
-82.04981776146664
 20
29.022830181292264
 30
0.0
 11
-78.30955342532474
 21
27.66148529464917
 31
0.0
  0
LINE
  8
0
 62
0
 10
-78.30955342532474
 20
27.66148529464917
 30
0.0
 11
-79.52372493413087
 21
24.3255764908592
 31
0.0
  0
LINE
  8
0
 62
0
 10
-83.26398927027282
 20
25.686921377502312
 30
0.0
 11
-79.52372493413085
 21
24.3255764908592
 31
0.0
  0
ARC
  8
0
 62
0
 10
-7.5000000000000995
 20
0.0
 30
0.0
 40
80.0
 50
161.27135443398444
 51
178.72864556601195
  0
LINE
  8
0
 62
0
 10
-87.4803061697066
 20
1.7750000000035355
 30
0.0
 11
-83.5
 21
1.7750000000035355
 31
0.0
  0
LINE
  8
0
 62
0
 10
-83.5
 20
1.7750000000035355
 30
0.0
 11
-83.5
 21
-1.7749999999964643
 31
0.0
  0
LINE
  8
0
 62
0
 10
-87.48030616970674
 20
-1.7749999999964643
 30
0.0
 11
-83.5
 21
-1.7749999999964643
 31
0.0
  0
ARC
  8
0
 62
0
 10
-7.5000000000000995
 20
0.0
 30
0.0
 40
80.0
 50
-178.72864556601712
 51
-161.27135443398953
  0
LINE
  8
0
 62
0
 10
-83.2639892702751
 20
-25.686921377495548
 30
0.0
 11
-79.5237249341333
 21
-24.325576490852495
 31
0.0
  0
LINE
  8
0
 62
0
 10
-79.5237249341333
 20
-24.325576490852498
 30
0.0
 11
-78.30955342532718
 21
-27.661485294642475
 31
0.0
  0
LINE
  8
0
 62
0
 10
-82.04981776146923
 20
-29.022830181285606
 30
0.0
 11
-78.30955342532718
 21
-27.661485294642468
 31
0.0
  0
ARC
  8
0
 62
0
 10
-7.5000000000000995
 20
0.0
 30
0.0
 40
80.0
 50
-158.7286455660173
 51
-141.271354433988
  0
LINE
  8
0
 62
0
 10
-69.90941710745412
 20
-50.05062093828433
 30
0.0
 11
-66.86032568423822
 21
-47.492129449638064
 31
0.0
  0
LINE
  8
0
 62
0
 10
-66.86032568423822
 20
-47.492129449638064
 30
0.0
 11
-64.578429669851
 21
-50.211587222710435
 31
0.0
  0
LINE
  8
0
 62
0
 10
-67.62752109306705
 20
-52.77007871135682
 30
0.0
 11
-64.578429669851
 21
-50.211587222710435
 31
0.0
  0
ARC
  8
0
 62
0
 10
-7.5000000000000995
 20
0.0
 30
0.0
 40
80.0
 50
-138.72864556601738
 51
-121.27135443398856
  0
LINE
  8
0
 62
0
 10
-49.02734817657374
 20
-68.37747694542135
 30
0.0
 11
-47.037195091720484
 21
-64.93043068761558
 31
0.0
  0
LINE
  8
0
 62
0
 10
-47.037195091720484
 20
-64.93043068761558
 30
0.0
 11
-43.962804908285726
 21
-66.70543068761559
 31
0.0
  0
LINE
  8
0
 62
0
 10
-45.95295799313907
 20
-70.1524769454215
 30
0.0
 11
-43.962804908285726
 21
-66.70543068761557
 31
0.0
  0
ARC
  8
0
 62
0
 10
-7.5000000000000995
 20
0.0
 30
0.0
 40
80.0
 50
-118.72864556601691
 51
-101.27135443398828
  0
LINE
  8
0
 62
0
 10
-23.136468177212866
 20
-78.45700008885765
 30
0.0
 11
-22.445295264286894
 21
-74.53716371356838
 31
0.0
  0
LINE
  8
0
 62
0
 10
-22.445295264286898
 20
-74.53716371356839
 30
0.0
 11
-18.94922774109356
 21
-75.15361474428599
 31
0.0
  0
LINE
  8
0
 62
0
 10
-19.640400654019555
 20
-79.0734511195754
 30
0.0
 11
-18.949227741093555
 21
-75.15361474428597
 31
0.0
  0
ARC
  8
0
 62
0
 10
-7.5000000000000995
 20
0.0
 30
0.0
 40
80.0
 50
-98.72864556601628
 51
-90.00000000000001
  0
LINE
  8
0
 62
0
 10
-7.5000000000000995
 20
-80.0
 30
0.0
 11
-7.5000000000000995
 21
0.0
 31
0.0
  0
LINE
  8
0
 62
0
 10
-7.5000000000000995
 20
0.0
 30
0.0
 11
-7.5000000000000995
 21
80.0
 31
0.0
  0
CIRCLE
  8
0
 62
0
 10
-23.5
 20
0.0
 30
0.0
 40
10.0
  0
ENDBLK
  0
BLOCK
  8
0
  2
BODY025
 70
0
 10
0.0
 20
0.0
 30
0.0
  3
BODY025
  0
LINE
  8
0
 62
0
 10
-96.09420046217309
 20
-9.667405000000265
 30
0.0
 11
-94.17592646217307
 21
-15.27901900000026
 31
0.0
  0
LINE
  8
0
 62
0
 10
-94.17592646217307
 20
-15.27901900000026
 30
0.0
 11
-68.4088824621731
 21
-10.735596000000182
 31
0.0
  0
LINE
  8
0
 62
0
 10
-67.65454846217311
 20
-3.2700590000001792
 30
0.0
 11
-68.40888246217308
 21
-10.735596000000182
 31
0.0
  0
LINE
  8
0
 62
0
 10
-67.65454846217311
 20
-3.2700590000001792
 30
0.0
 11
-60.42317246217311
 21
-2.294395000000158
 31
0.0
  0
LINE
  8
0
 62
0
 10
-60.42317246217311
 20
-2.294395000000158
 30
0.0
 11
-60.42317246217313
 21
2.3029089999998424
 31
0.0
  0
LINE
  8
0
 62
0
 10
-67.65456346217313
 20
3.2785729999998208
 30
0.0
 11
-60.42317246217313
 21
2.3029089999998424
 31
0.0
  0
LINE
  8
0
 62
0
 10
-67.65456346217313
 20
3.2785729999998208
 30
0.0
 11
-68.40890546217315
 21
10.735595999999818
 31
0.0
  0
LINE
  8
0
 62
0
 10
-94.17594146217316
 20
15.27901899999974
 30
0.0
 11
-68.40890546217314
 21
10.735595999999816
 31
0.0
  0
LINE
  8
0
 62
0
 10
-96.09421546217314
 20
9.667404999999736
 30
0.0
 11
-94.17594146217316
 21
15.279018999999742
 31
0.0
  0
LINE
  8
0
 62
0
 10
-100.51121546217314
 20
6.641238999999722
 30
0.0
 11
-96.09421546217315
 21
9.667404999999736
 31
0.0
  0
LINE
  8
0
 62
0
 10
-100.5112154621731
 20
-6.632725000000278
 30
0.0
 11
-100.51121546217314
 21
6.641238999999722
 31
0.0
  0
LINE
  8
0
 62
0
 10
-96.09420046217309
 20
-9.667405000000265
 30
0.0
 11
-100.5112154621731
 21
-6.632725000000278
 31
0.0
  0
LINE
  8
0
 62
0
 10
-87.12904246217312
 20
-1.7750000000002364
 30
0.0
 11
-83.57904246217312
 21
-1.7750000000002257
 31
0.0
  0
LINE
  8
0
 62
0
 10
-83.57904246217312
 20
-1.775000000000226
 30
0.0
 11
-83.57904246217313
 21
1.7749999999997739
 31
0.0
  0
LINE
  8
0
 62
0
 10
-83.57904246217313
 20
1.7749999999997739
 30
0.0
 11
-87.12904246217313
 21
1.7749999999997632
 31
0.0
  0
LINE
  8
0
 62
0
 10
-87.12904246217313
 20
1.7749999999997634
 30
0.0
 11
-87.12904246217312
 21
-1.7750000000002364
 31
0.0
  0
ENDBLK
  0
ENDSEC
  0
SECTION
  2
ENTITIES
  0
INSERT
  2
BODY
  8
0
 62
0
 10
0.0
 20
0.0
 30
0.0
  0
INSERT
  2
BODY025
  8
0
 62
0
 10
0.0
 20
0.0
 30
0.0
  0
ENDSEC
  0
EOF
