  0
SECTION
  2
HEADER
  9
$ACADVER
  1
AC1009
  9
$INSBASE
 10
0.0
 20
0.0
 30
0.0
  9
$EXTMIN
 10
0.0
 20
0.0
 30
0.0
  9
$EXTMAX
 10
0.0
 20
0.0
 30
0.0
  0
ENDSEC
  0
SECTION
  2
TABLES
  0
TABLE
  2
VPORT
 70
0
  0
ENDTAB
  0
TABLE
  2
LTYPE
 70
1
  0
LTYPE
  2
CONTINUOUS
 70
0
  3
Solid line
 72
65
 73
0
 40
0.0
  0
ENDTAB
  0
TABLE
  2
LAYER
 70
1
  0
LAYER
  2
0
 70
64
 62
7
  6
continuous
  0
ENDTAB
  0
TABLE
  2
STYLE
 70
1
  0
STYLE
  2
STANDARD
 70
0
 40
0
 41
1.0
 50
0.0
 71
0
 42
1
 3
ARIAL.TTF
 4

  0
ENDTAB
  0
TABLE
  2
VIEW
 70
0
  0
ENDTAB
  0
ENDSEC
  0
SECTION
  2
BLOCKS
  0
BLOCK
  8
0
  2
BODY
 70
0
 10
0.0
 20
0.0
 30
0.0
  3
BODY
  0
LINE
  8
0
 62
0
 10
-8.49999865130039
 20
-35.20999991570623
 30
0.0
 11
8.500001348698643
 21
-35.20999991570635
 31
0.0
  0
LINE
  8
0
 62
0
 10
-8.499998651300391
 20
-35.209999915706234
 30
0.0
 11
-12.499998651300164
 21
-31.209999915706206
 31
0.0
  0
LINE
  8
0
 62
0
 10
8.500001348698643
 20
-35.209999915706355
 30
0.0
 11
12.500001348698419
 21
-31.209999915706376
 31
0.0
  0
LINE
  8
0
 62
0
 10
-12.499998651300164
 20
31.21000008429379
 30
0.0
 11
-12.499998651300164
 21
-31.2099999157062
 31
0.0
  0
LINE
  8
0
 62
0
 10
12.500001348698415
 20
-31.20999991570638
 30
0.0
 11
12.500001348698415
 21
31.210000084293604
 31
0.0
  0
LINE
  8
0
 62
0
 10
-12.499998651300164
 20
31.210000084293785
 30
0.0
 11
-8.499998651300391
 21
35.21000008429376
 31
0.0
  0
LINE
  8
0
 62
0
 10
12.500001348698413
 20
31.210000084293604
 30
0.0
 11
8.50000134869864
 21
35.21000008429363
 31
0.0
  0
LINE
  8
0
 62
0
 10
8.500001348698644
 20
35.21000008429363
 30
0.0
 11
-8.499998651300391
 21
35.21000008429375
 31
0.0
  0
LINE
  8
0
 62
0
 10
1.2053003486990617
 20
-16.563361915706302
 30
0.0
 11
8.30000134869866
 21
-29.795785915706347
 31
0.0
  0
LINE
  8
0
 62
0
 10
8.300001348698657
 20
-3.6768859157063556
 30
0.0
 11
1.2053003486990592
 21
-16.563361915706302
 31
0.0
  0
LINE
  8
0
 62
0
 10
8.300001348698657
 20
-29.79578591570635
 30
0.0
 11
8.300001348698657
 21
-3.6768859157063574
 31
0.0
  0
LINE
  8
0
 62
0
 10
-7.085788651300466
 20
-1.9167249157062496
 30
0.0
 11
7.08579134869873
 21
-1.9167249157063502
 31
0.0
  0
LINE
  8
0
 62
0
 10
7.08579134869873
 20
-1.9167249157063504
 30
0.0
 11
1.3486991283784278e-06
 21
-14.434138915706296
 31
0.0
  0
LINE
  8
0
 62
0
 10
-7.085788651300466
 20
-1.9167249157062496
 30
0.0
 11
1.3486991292666062e-06
 21
-14.434138915706296
 31
0.0
  0
LINE
  8
0
 62
0
 10
-7.085788651300468
 20
-31.20999891570624
 30
0.0
 11
1.348699131042963e-06
 21
-18.692584915706295
 31
0.0
  0
LINE
  8
0
 62
0
 10
7.085791348698728
 20
-31.20999891570634
 30
0.0
 11
1.3486991292666062e-06
 21
-18.69258491570629
 31
0.0
  0
LINE
  8
0
 62
0
 10
-7.085788651300468
 20
-31.20999891570624
 30
0.0
 11
7.085791348698728
 21
-31.20999891570634
 31
0.0
  0
LINE
  8
0
 62
0
 10
-1.2052976513008014
 20
-16.563361915706288
 30
0.0
 11
-8.299998651300406
 21
-29.795785915706233
 31
0.0
  0
LINE
  8
0
 62
0
 10
-8.299998651300406
 20
-29.79578591570623
 30
0.0
 11
-8.299998651300406
 21
-3.6768859157062366
 31
0.0
  0
LINE
  8
0
 62
0
 10
-8.299998651300406
 20
-3.6768859157062375
 30
0.0
 11
-1.2052976513008016
 21
-16.563361915706285
 31
0.0
  0
LINE
  8
0
 62
0
 10
-7.085788651300466
 20
1.9167250842937558
 30
0.0
 11
1.3486991283784278e-06
 21
14.4341390842937
 31
0.0
  0
LINE
  8
0
 62
0
 10
7.08579134869873
 20
1.916725084293655
 30
0.0
 11
1.3486991283784278e-06
 21
14.434139084293703
 31
0.0
  0
LINE
  8
0
 62
0
 10
-7.085788651300466
 20
1.9167250842937558
 30
0.0
 11
7.08579134869873
 21
1.9167250842936552
 31
0.0
  0
LINE
  8
0
 62
0
 10
8.500008348698646
 20
29.795786084293635
 30
0.0
 11
8.500008348698646
 21
3.676886084293642
 31
0.0
  0
LINE
  8
0
 62
0
 10
8.500008348698646
 20
3.6768860842936415
 30
0.0
 11
1.205300348699061
 21
16.56336208429369
 31
0.0
  0
LINE
  8
0
 62
0
 10
1.2053003486990617
 20
16.563362084293693
 30
0.0
 11
8.500008348698646
 21
29.79578608429364
 31
0.0
  0
LINE
  8
0
 62
0
 10
-7.085788651300468
 20
31.209999084293745
 30
0.0
 11
7.085791348698728
 21
31.209999084293646
 31
0.0
  0
LINE
  8
0
 62
0
 10
7.085791348698728
 20
31.209999084293646
 30
0.0
 11
1.3486991292666062e-06
 21
18.6925850842937
 31
0.0
  0
LINE
  8
0
 62
0
 10
-7.085788651300468
 20
31.209999084293745
 30
0.0
 11
1.348699131042963e-06
 21
18.692585084293697
 31
0.0
  0
LINE
  8
0
 62
0
 10
-8.500005651300388
 20
3.6768860842937623
 30
0.0
 11
-1.2052976513008025
 21
16.563362084293708
 31
0.0
  0
LINE
  8
0
 62
0
 10
-8.500005651300388
 20
29.795786084293756
 30
0.0
 11
-8.500005651300388
 21
3.6768860842937627
 31
0.0
  0
LINE
  8
0
 62
0
 10
-1.2052976513008014
 20
16.563362084293708
 30
0.0
 11
-8.500005651300388
 21
29.795786084293752
 31
0.0
  0
ENDBLK
  0
BLOCK
  8
0
  2
BODY004
 70
0
 10
0.0
 20
0.0
 30
0.0
  3
BODY004
  0
LINE
  8
0
 62
0
 10
-8.499998651300393
 20
-106.70999991570622
 30
0.0
 11
8.500001348698639
 21
-106.70999991570635
 31
0.0
  0
LINE
  8
0
 62
0
 10
-8.499998651300393
 20
-106.7099999157062
 30
0.0
 11
-12.499998651300167
 21
-102.70999991570618
 31
0.0
  0
LINE
  8
0
 62
0
 10
8.500001348698639
 20
-106.70999991570633
 30
0.0
 11
12.500001348698417
 21
-102.70999991570635
 31
0.0
  0
LINE
  8
0
 62
0
 10
-12.499998651300167
 20
-40.2899999157062
 30
0.0
 11
-12.499998651300167
 21
-102.70999991570619
 31
0.0
  0
LINE
  8
0
 62
0
 10
12.500001348698412
 20
-102.70999991570636
 30
0.0
 11
12.500001348698412
 21
-40.289999915706375
 31
0.0
  0
LINE
  8
0
 62
0
 10
-12.499998651300167
 20
-40.289999915706204
 30
0.0
 11
-8.499998651300391
 21
-36.289999915706225
 31
0.0
  0
LINE
  8
0
 62
0
 10
12.500001348698415
 20
-40.28999991570638
 30
0.0
 11
8.50000134869864
 21
-36.28999991570635
 31
0.0
  0
LINE
  8
0
 62
0
 10
8.50000134869864
 20
-36.28999991570635
 30
0.0
 11
-8.499998651300391
 21
-36.28999991570623
 31
0.0
  0
LINE
  8
0
 62
0
 10
7.085792348698727
 20
-102.70999891570632
 30
0.0
 11
8.300001348698652
 21
-101.29578391570634
 31
0.0
  0
LINE
  8
0
 62
0
 10
-7.085790651300469
 20
-102.70999891570621
 30
0.0
 11
7.085792348698726
 21
-102.70999891570631
 31
0.0
  0
LINE
  8
0
 62
0
 10
-7.085790651300469
 20
-102.70999891570621
 30
0.0
 11
8.30000134869865
 21
-75.17688791570632
 31
0.0
  0
LINE
  8
0
 62
0
 10
8.30000134869865
 20
-101.29578391570632
 30
0.0
 11
8.30000134869865
 21
-75.17688791570633
 31
0.0
  0
LINE
  8
0
 62
0
 10
-7.08578965130047
 20
-73.41672491570623
 30
0.0
 11
7.085792348698726
 21
-73.41672491570633
 31
0.0
  0
LINE
  8
0
 62
0
 10
-8.299998651300402
 20
-101.29578391570621
 30
0.0
 11
7.085792348698728
 21
-73.41672491570631
 31
0.0
  0
LINE
  8
0
 62
0
 10
-8.299998651300402
 20
-101.29578391570621
 30
0.0
 11
-8.299998651300402
 21
-75.17688791570622
 31
0.0
  0
LINE
  8
0
 62
0
 10
-8.299998651300402
 20
-75.17688791570623
 30
0.0
 11
-7.085789651300468
 21
-73.41672491570624
 31
0.0
  0
LINE
  8
0
 62
0
 10
8.30000134869865
 20
-41.70421591570635
 30
0.0
 11
8.30000134869865
 21
-67.82311191570633
 31
0.0
  0
LINE
  8
0
 62
0
 10
-7.085790651300469
 20
-40.290000915706244
 30
0.0
 11
8.30000134869865
 21
-67.82311191570635
 31
0.0
  0
LINE
  8
0
 62
0
 10
-7.085790651300469
 20
-40.290000915706244
 30
0.0
 11
7.085792348698726
 21
-40.290000915706344
 31
0.0
  0
LINE
  8
0
 62
0
 10
7.085792348698727
 20
-40.290000915706344
 30
0.0
 11
8.300001348698652
 21
-41.70421591570635
 31
0.0
  0
LINE
  8
0
 62
0
 10
-8.299998651300402
 20
-67.82311191570622
 30
0.0
 11
-7.085789651300468
 21
-69.58327491570623
 31
0.0
  0
LINE
  8
0
 62
0
 10
-8.299998651300402
 20
-41.704215915706236
 30
0.0
 11
-8.299998651300402
 21
-67.82311191570622
 31
0.0
  0
LINE
  8
0
 62
0
 10
-8.299998651300402
 20
-41.704215915706236
 30
0.0
 11
7.085792348698728
 21
-69.58327491570634
 31
0.0
  0
LINE
  8
0
 62
0
 10
-7.08578965130047
 20
-69.58327491570623
 30
0.0
 11
7.085792348698726
 21
-69.58327491570633
 31
0.0
  0
ENDBLK
  0
ENDSEC
  0
SECTION
  2
ENTITIES
  0
INSERT
  2
BODY
  8
0
 62
0
 10
0.0
 20
0.0
 30
0.0
  0
INSERT
  2
BODY004
  8
0
 62
0
 10
0.0
 20
0.0
 30
0.0
  0
ENDSEC
  0
EOF
