  0
SECTION
  2
HEADER
  9
$ACADVER
  1
AC1009
  9
$INSBASE
 10
0.0
 20
0.0
 30
0.0
  9
$EXTMIN
 10
0.0
 20
0.0
 30
0.0
  9
$EXTMAX
 10
0.0
 20
0.0
 30
0.0
  0
ENDSEC
  0
SECTION
  2
TABLES
  0
TABLE
  2
VPORT
 70
0
  0
ENDTAB
  0
TABLE
  2
LTYPE
 70
1
  0
LTYPE
  2
CONTINUOUS
 70
0
  3
Solid line
 72
65
 73
0
 40
0.0
  0
ENDTAB
  0
TABLE
  2
LAYER
 70
1
  0
LAYER
  2
0
 70
64
 62
7
  6
continuous
  0
ENDTAB
  0
TABLE
  2
STYLE
 70
1
  0
STYLE
  2
STANDARD
 70
0
 40
0
 41
1.0
 50
0.0
 71
0
 42
1
 3
ARIAL.TTF
 4

  0
ENDTAB
  0
TABLE
  2
VIEW
 70
0
  0
ENDTAB
  0
ENDSEC
  0
SECTION
  2
BLOCKS
  0
BLOCK
  8
0
  2
PAD003
 70
0
 10
0.0
 20
0.0
 30
0.0
  3
PAD003
  0
LINE
  8
0
 62
0
 10
-32.0
 20
23.99999999999762
 30
0.0
 11
-32.0
 21
3.775000000000002
 31
0.0
  0
LINE
  8
0
 62
0
 10
-31.999999999999996
 20
3.775000000000002
 30
0.0
 11
-27.999999999999996
 21
3.775000000000002
 31
0.0
  0
LINE
  8
0
 62
0
 10
-27.999999999999996
 20
3.775000000000002
 30
0.0
 11
-27.999999999999996
 21
2.220446049250313e-15
 31
0.0
  0
LINE
  8
0
 62
0
 10
-27.999999999999996
 20
2e-15
 30
0.0
 11
-27.999999999999996
 21
-3.774999999999997
 31
0.0
  0
LINE
  8
0
 62
0
 10
-27.999999999999996
 20
-3.7749999999999964
 30
0.0
 11
-32.0
 21
-3.7749999999999964
 31
0.0
  0
LINE
  8
0
 62
0
 10
-32.0
 20
-3.7749999999999964
 30
0.0
 11
-32.0
 21
-23.999999999999996
 31
0.0
  0
LINE
  8
0
 62
0
 10
-32.0
 20
-23.999999999997613
 30
0.0
 11
-32.0
 21
-27.999999999997613
 31
0.0
  0
LINE
  8
0
 62
0
 10
-32.0
 20
-27.999999999997613
 30
0.0
 11
-3.75
 21
-27.976289946470807
 31
0.0
  0
LINE
  8
0
 62
0
 10
-3.749999999999999
 20
-23.976289946471088
 30
0.0
 11
-3.749999999999999
 21
-27.976289946470807
 31
0.0
  0
LINE
  8
0
 62
0
 10
1e-15
 20
-23.976289946471088
 30
0.0
 11
-3.749999999999999
 21
-23.976289946471088
 31
0.0
  0
LINE
  8
0
 62
0
 10
3.7500000000000018
 20
-23.976289946471088
 30
0.0
 11
8.881784197001252e-16
 21
-23.976289946471088
 31
0.0
  0
LINE
  8
0
 62
0
 10
3.7500000000000018
 20
-27.976289946471088
 30
0.0
 11
3.7500000000000018
 21
-23.976289946471088
 31
0.0
  0
LINE
  8
0
 62
0
 10
3.7500000000000018
 20
-27.976289946471088
 30
0.0
 11
32.00000000000001
 21
-27.999999999999996
 31
0.0
  0
LINE
  8
0
 62
0
 10
32.0
 20
-23.999999999999996
 30
0.0
 11
32.0
 21
-27.999999999999996
 31
0.0
  0
LINE
  8
0
 62
0
 10
32.0
 20
-23.999999999999996
 30
0.0
 11
32.0
 21
-3.774999999999995
 31
0.0
  0
LINE
  8
0
 62
0
 10
28.0
 20
-3.7749999999999964
 30
0.0
 11
32.0
 21
-3.7749999999999964
 31
0.0
  0
LINE
  8
0
 62
0
 10
28.0
 20
2e-15
 30
0.0
 11
28.0
 21
-3.774999999999997
 31
0.0
  0
LINE
  8
0
 62
0
 10
28.0
 20
3.7750000000000017
 30
0.0
 11
28.0
 21
2.6645352591003757e-15
 31
0.0
  0
LINE
  8
0
 62
0
 10
32.0
 20
3.7750000000000017
 30
0.0
 11
28.0
 21
3.7750000000000017
 31
0.0
  0
LINE
  8
0
 62
0
 10
32.0
 20
3.7750000000000017
 30
0.0
 11
32.0
 21
24.000000000000004
 31
0.0
  0
LINE
  8
0
 62
0
 10
32.0
 20
24.000000000000004
 30
0.0
 11
32.0
 21
28.000000000000004
 31
0.0
  0
LINE
  8
0
 62
0
 10
3.7500000000000018
 20
27.976289946471095
 30
0.0
 11
32.00000000000001
 21
28.000000000000004
 31
0.0
  0
LINE
  8
0
 62
0
 10
3.7500000000000018
 20
27.976289946471095
 30
0.0
 11
3.7500000000000018
 21
23.976289946471095
 31
0.0
  0
LINE
  8
0
 62
0
 10
3.7500000000000018
 20
23.976289946471095
 30
0.0
 11
8.881784197001252e-16
 21
23.976289946471095
 31
0.0
  0
LINE
  8
0
 62
0
 10
1e-15
 20
23.976289946471095
 30
0.0
 11
-3.749999999999999
 21
23.976289946471095
 31
0.0
  0
LINE
  8
0
 62
0
 10
-3.749999999999999
 20
23.976289946471095
 30
0.0
 11
-3.749999999999999
 21
27.976289946470814
 31
0.0
  0
LINE
  8
0
 62
0
 10
-32.0
 20
27.99999999999762
 30
0.0
 11
-3.75
 21
27.976289946470814
 31
0.0
  0
LINE
  8
0
 62
0
 10
-32.0
 20
23.99999999999762
 30
0.0
 11
-32.0
 21
27.99999999999762
 31
0.0
  0
ENDBLK
  0
ENDSEC
  0
SECTION
  2
ENTITIES
  0
INSERT
  2
PAD003
  8
0
 62
0
 10
0.0
 20
0.0
 30
0.0
  0
ENDSEC
  0
EOF
