  0
SECTION
  2
HEADER
  9
$ACADVER
  1
AC1009
  9
$INSBASE
 10
0.0
 20
0.0
 30
0.0
  9
$EXTMIN
 10
0.0
 20
0.0
 30
0.0
  9
$EXTMAX
 10
0.0
 20
0.0
 30
0.0
  0
ENDSEC
  0
SECTION
  2
TABLES
  0
TABLE
  2
VPORT
 70
0
  0
ENDTAB
  0
TABLE
  2
LTYPE
 70
1
  0
LTYPE
  2
CONTINUOUS
 70
0
  3
Solid line
 72
65
 73
0
 40
0.0
  0
ENDTAB
  0
TABLE
  2
LAYER
 70
1
  0
LAYER
  2
0
 70
64
 62
7
  6
continuous
  0
ENDTAB
  0
TABLE
  2
STYLE
 70
1
  0
STYLE
  2
STANDARD
 70
0
 40
0
 41
1.0
 50
0.0
 71
0
 42
1
 3
ARIAL.TTF
 4

  0
ENDTAB
  0
TABLE
  2
VIEW
 70
0
  0
ENDTAB
  0
ENDSEC
  0
SECTION
  2
BLOCKS
  0
BLOCK
  8
0
  2
FUSION001
 70
0
 10
0.0
 20
0.0
 30
0.0
  3
FUSION001
  0
LINE
  8
0
 62
0
 10
-70.41774082739605
 20
120.209999
 30
0.0
 11
-70.41815280171308
 21
120.209999
 31
0.0
  0
LINE
  8
0
 62
0
 10
-70.41741423435809
 20
120.209999
 30
0.0
 11
-70.41774082739605
 21
120.209999
 31
0.0
  0
LINE
  8
0
 62
0
 10
0.0
 20
120.209999
 30
0.0
 11
-70.41741423435809
 21
120.209999
 31
0.0
  0
LINE
  8
0
 62
0
 10
-120.20970798305476
 20
70.41844481865246
 30
0.0
 11
-120.20999999999998
 21
70.41815280171309
 31
0.0
  0
LINE
  8
0
 62
0
 10
-120.20947804689148
 20
70.41867475481112
 30
0.0
 11
-120.2097079830547
 21
70.41844481865252
 31
0.0
  0
LINE
  8
0
 62
0
 10
-70.41815280171308
 20
120.209999
 30
0.0
 11
-120.20947804689149
 21
70.41867475481111
 31
0.0
  0
LINE
  8
0
 62
0
 10
-70.41774082739605
 20
120.209999
 30
0.0
 11
-70.41777088985702
 21
120.20996893776183
 31
0.0
  0
LINE
  8
0
 62
0
 10
-70.41777088985705
 20
120.20996893776181
 30
0.0
 11
-70.41814000000001
 21
120.2099689391297
 31
0.0
  0
LINE
  8
0
 62
0
 10
-70.41803189030787
 20
120.20970793924543
 30
0.0
 11
-70.41814000000001
 21
120.20996893912968
 31
0.0
  0
LINE
  8
0
 62
0
 10
-70.41803189030789
 20
120.20970793924543
 30
0.0
 11
-120.20944698358045
 21
70.41866188755965
 31
0.0
  0
LINE
  8
0
 62
0
 10
-120.20947804689149
 20
70.41867475481114
 30
0.0
 11
-120.20944698358045
 21
70.41866188755967
 31
0.0
  0
LINE
  8
0
 62
0
 10
-70.41740178199838
 20
120.20996893639395
 30
0.0
 11
-70.41777088985705
 21
120.20996893776181
 31
0.0
  0
LINE
  8
0
 62
0
 10
-70.41741423435809
 20
120.209999
 30
0.0
 11
-70.41740178199836
 21
120.20996893639395
 31
0.0
  0
LINE
  8
0
 62
0
 10
-120.209999
 20
0.0
 30
0.0
 11
0.0
 21
0.0
 31
0.0
  0
LINE
  8
0
 62
0
 10
-120.20999999999998
 20
70.41815280171309
 30
0.0
 11
-120.209999
 21
0.0
 31
0.0
  0
LINE
  8
0
 62
0
 10
-120.20970798305471
 20
70.41844481865246
 30
0.0
 11
-120.20970798321751
 21
70.41840088985705
 31
0.0
  0
LINE
  8
0
 62
0
 10
-120.20970798321753
 20
70.41840088985705
 30
0.0
 11
-120.20996898446987
 21
70.4181398905392
 31
0.0
  0
LINE
  8
0
 62
0
 10
-120.20970798458539
 20
70.41803178084756
 30
0.0
 11
-120.20996898446987
 21
70.4181398905392
 31
0.0
  0
LINE
  8
0
 62
0
 10
-120.20970798458539
 20
70.41803178084754
 30
0.0
 11
-120.2099689391297
 21
0.0018599999999935335
 31
0.0
  0
LINE
  8
0
 62
0
 10
-63.83549967781863
 20
23.35292980374086
 30
0.0
 11
-120.2099689391297
 21
0.0018599999999935335
 31
0.0
  0
LINE
  8
0
 62
0
 10
-63.83549967781863
 20
47.06707019625914
 30
0.0
 11
-63.83549967781863
 21
23.35292980374086
 31
0.0
  0
LINE
  8
0
 62
0
 10
-47.067070196259145
 20
63.835499677818646
 30
0.0
 11
-63.83549967781863
 21
47.06707019625915
 31
0.0
  0
LINE
  8
0
 62
0
 10
-23.352929803740857
 20
63.83549967781863
 30
0.0
 11
-47.06707019625914
 21
63.83549967781863
 31
0.0
  0
LINE
  8
0
 62
0
 10
-0.0012300000000067257
 20
120.20970798184965
 30
0.0
 11
-23.352929803740857
 21
63.835499677818646
 31
0.0
  0
LINE
  8
0
 62
0
 10
-0.0012300000000067257
 20
120.20970798184965
 30
0.0
 11
-70.41740178199838
 21
120.20996893639395
 31
0.0
  0
LINE
  8
0
 62
0
 10
0.0
 20
0.0
 30
0.0
 11
0.0
 21
120.209999
 31
0.0
  0
CIRCLE
  8
0
 62
0
 10
-35.21
 20
35.21
 30
0.0
 40
26.4
  0
LINE
  8
0
 62
0
 10
70.41815280171312
 20
120.20999999999997
 30
0.0
 11
2.842170943040401e-14
 21
120.209999
 31
0.0
  0
LINE
  8
0
 62
0
 10
-77.385
 20
33.46
 30
0.0
 11
-77.385
 21
36.96
 31
0.0
  0
LINE
  8
0
 62
0
 10
-85.135
 20
33.46
 30
0.0
 11
-77.385
 21
33.46
 31
0.0
  0
LINE
  8
0
 62
0
 10
-77.385
 20
36.96
 30
0.0
 11
-85.135
 21
36.96
 31
0.0
  0
LINE
  8
0
 62
0
 10
-85.135
 20
36.96
 30
0.0
 11
-85.135
 21
33.46
 31
0.0
  0
LINE
  8
0
 62
0
 10
-36.959999999999994
 20
77.38499999999999
 30
0.0
 11
-33.459999999999994
 21
77.38499999999999
 31
0.0
  0
LINE
  8
0
 62
0
 10
-33.459999999999994
 20
77.38499999999999
 30
0.0
 11
-33.459999999999994
 21
85.13499999999999
 31
0.0
  0
LINE
  8
0
 62
0
 10
-33.459999999999994
 20
85.13499999999999
 30
0.0
 11
-36.959999999999994
 21
85.13499999999999
 31
0.0
  0
LINE
  8
0
 62
0
 10
-36.959999999999994
 20
85.13499999999999
 30
0.0
 11
-36.959999999999994
 21
77.38499999999999
 31
0.0
  0
LINE
  8
0
 62
0
 10
-120.20944698358045
 20
70.41866188755965
 30
0.0
 11
-120.20970798321753
 21
70.41840088985705
 31
0.0
  0
LINE
  8
0
 62
0
 10
-70.41740178199836
 20
120.20996893639395
 30
0.0
 11
-47.067070196259145
 21
63.83549967781864
 31
0.0
  0
LINE
  8
0
 62
0
 10
-47.06707019625914
 20
63.835499677818625
 30
0.0
 11
-70.41803189030787
 21
120.20970793924543
 31
0.0
  0
LINE
  8
0
 62
0
 10
-70.41777088985702
 20
120.20996893776183
 30
0.0
 11
-70.41803189030789
 21
120.20970793924543
 31
0.0
  0
LINE
  8
0
 62
0
 10
0.0
 20
0.0
 30
0.0
 11
0.0
 21
-120.209999
 31
0.0
  0
LINE
  8
0
 62
0
 10
-70.41815280171306
 20
-120.21
 30
0.0
 11
2.842170943040401e-14
 21
-120.209999
 31
0.0
  0
LINE
  8
0
 62
0
 10
-70.41844481865243
 20
-120.20970798305477
 30
0.0
 11
-70.41815280171306
 21
-120.21000000000001
 31
0.0
  0
LINE
  8
0
 62
0
 10
-70.41844481865243
 20
-120.20970798305473
 30
0.0
 11
-70.41840088985703
 21
-120.20970798321753
 31
0.0
  0
LINE
  8
0
 62
0
 10
-70.4184008898571
 20
-120.20970798321756
 30
0.0
 11
-70.41813989053924
 21
-120.2099689844699
 31
0.0
  0
LINE
  8
0
 62
0
 10
-70.41803178084757
 20
-120.2097079845854
 30
0.0
 11
-70.4181398905392
 21
-120.20996898446987
 31
0.0
  0
LINE
  8
0
 62
0
 10
-70.41803178084751
 20
-120.2097079845854
 30
0.0
 11
-0.0018599999999651118
 21
-120.2099689391297
 31
0.0
  0
LINE
  8
0
 62
0
 10
-23.352929803740846
 20
-63.83549967781864
 30
0.0
 11
-0.0018599999999651118
 21
-120.2099689391297
 31
0.0
  0
LINE
  8
0
 62
0
 10
-47.067070196259124
 20
-63.83549967781864
 30
0.0
 11
-23.352929803740846
 21
-63.83549967781863
 31
0.0
  0
LINE
  8
0
 62
0
 10
-63.83549967781865
 20
-47.067070196259166
 30
0.0
 11
-47.06707019625916
 21
-63.83549967781866
 31
0.0
  0
LINE
  8
0
 62
0
 10
-63.83549967781862
 20
-23.352929803740864
 30
0.0
 11
-63.83549967781861
 21
-47.06707019625914
 31
0.0
  0
LINE
  8
0
 62
0
 10
-120.20970798184962
 20
-0.0012300000000209366
 30
0.0
 11
-63.83549967781861
 21
-23.352929803740864
 31
0.0
  0
LINE
  8
0
 62
0
 10
-120.20970798184962
 20
-0.0012300000000209366
 30
0.0
 11
-120.2099689363939
 21
-70.4174017819984
 31
0.0
  0
LINE
  8
0
 62
0
 10
-120.20999900000005
 20
-70.41741423435813
 30
0.0
 11
-120.209968936394
 21
-70.41740178199841
 31
0.0
  0
LINE
  8
0
 62
0
 10
-120.209999
 20
-2.6691981735993408e-14
 30
0.0
 11
-120.20999899999998
 21
-70.41741423435812
 31
0.0
  0
CIRCLE
  8
0
 62
0
 10
-35.209999999999994
 20
-35.21000000000001
 30
0.0
 40
26.4
  0
LINE
  8
0
 62
0
 10
70.41844481865249
 20
120.20970798305473
 30
0.0
 11
70.4181528017131
 21
120.20999999999998
 31
0.0
  0
LINE
  8
0
 62
0
 10
70.41844481865249
 20
120.2097079830547
 30
0.0
 11
70.41840088985708
 21
120.2097079832175
 31
0.0
  0
LINE
  8
0
 62
0
 10
70.41840088985714
 20
120.20970798321753
 30
0.0
 11
70.4181398905393
 21
120.20996898446987
 31
0.0
  0
LINE
  8
0
 62
0
 10
70.4180317808476
 20
120.20970798458538
 30
0.0
 11
70.41813989053924
 21
120.20996898446985
 31
0.0
  0
LINE
  8
0
 62
0
 10
70.41803178084757
 20
120.20970798458538
 30
0.0
 11
0.0018600000000219552
 21
120.2099689391297
 31
0.0
  0
LINE
  8
0
 62
0
 10
23.352929803740874
 20
63.835499677818625
 30
0.0
 11
0.0018600000000219552
 21
120.2099689391297
 31
0.0
  0
LINE
  8
0
 62
0
 10
47.06707019625915
 20
63.835499677818625
 30
0.0
 11
23.352929803740874
 21
63.83549967781863
 31
0.0
  0
LINE
  8
0
 62
0
 10
63.83549967781868
 20
47.067070196259145
 30
0.0
 11
47.067070196259195
 21
63.83549967781864
 31
0.0
  0
LINE
  8
0
 62
0
 10
63.83549967781863
 20
23.352929803740835
 30
0.0
 11
63.83549967781864
 21
47.06707019625911
 31
0.0
  0
LINE
  8
0
 62
0
 10
120.20970798184963
 20
0.0012299999999640931
 30
0.0
 11
63.83549967781864
 21
23.352929803740835
 31
0.0
  0
LINE
  8
0
 62
0
 10
120.20970798184963
 20
0.0012299999999640931
 30
0.0
 11
120.20996893639395
 21
70.41740178199834
 31
0.0
  0
LINE
  8
0
 62
0
 10
120.20999900000008
 20
70.41741423435809
 30
0.0
 11
120.20996893639403
 21
70.41740178199836
 31
0.0
  0
LINE
  8
0
 62
0
 10
120.209999
 20
-2.6691981735993408e-14
 30
0.0
 11
120.20999900000001
 21
70.41741423435806
 31
0.0
  0
LINE
  8
0
 62
0
 10
0.0
 20
0.0
 30
0.0
 11
120.209999
 21
-2.6691981735993408e-14
 31
0.0
  0
CIRCLE
  8
0
 62
0
 10
35.21000000000001
 20
35.209999999999994
 30
0.0
 40
26.4
  0
LINE
  8
0
 62
0
 10
70.41867475481115
 20
120.20947804689146
 30
0.0
 11
70.41844481865255
 21
120.2097079830547
 31
0.0
  0
LINE
  8
0
 62
0
 10
120.20999900000001
 20
70.41815280171305
 30
0.0
 11
70.41867475481112
 21
120.20947804689146
 31
0.0
  0
LINE
  8
0
 62
0
 10
120.20999900000001
 20
70.41774082739602
 30
0.0
 11
120.20999900000001
 21
70.41815280171305
 31
0.0
  0
LINE
  8
0
 62
0
 10
120.20999900000001
 20
70.41741423435806
 30
0.0
 11
120.20999900000001
 21
70.41774082739602
 31
0.0
  0
LINE
  8
0
 62
0
 10
33.460000000000015
 20
77.38499999999999
 30
0.0
 11
36.960000000000015
 21
77.38499999999999
 31
0.0
  0
LINE
  8
0
 62
0
 10
33.46000000000002
 20
85.13499999999999
 30
0.0
 11
33.46000000000002
 21
77.38499999999999
 31
0.0
  0
LINE
  8
0
 62
0
 10
36.960000000000015
 20
77.38499999999999
 30
0.0
 11
36.960000000000015
 21
85.13499999999999
 31
0.0
  0
LINE
  8
0
 62
0
 10
36.96000000000002
 20
85.13499999999999
 30
0.0
 11
33.46000000000002
 21
85.13499999999999
 31
0.0
  0
LINE
  8
0
 62
0
 10
77.385
 20
36.95999999999997
 30
0.0
 11
77.385
 21
33.45999999999997
 31
0.0
  0
LINE
  8
0
 62
0
 10
77.385
 20
33.45999999999997
 30
0.0
 11
85.135
 21
33.45999999999997
 31
0.0
  0
LINE
  8
0
 62
0
 10
85.135
 20
33.459999999999965
 30
0.0
 11
85.135
 21
36.959999999999965
 31
0.0
  0
LINE
  8
0
 62
0
 10
85.135
 20
36.959999999999965
 30
0.0
 11
77.385
 21
36.959999999999965
 31
0.0
  0
LINE
  8
0
 62
0
 10
-120.20999899999998
 20
-70.41774082739607
 30
0.0
 11
-120.20999899999998
 21
-70.4181528017131
 31
0.0
  0
LINE
  8
0
 62
0
 10
-120.20999899999998
 20
-70.41741423435812
 30
0.0
 11
-120.20999899999998
 21
-70.41774082739607
 31
0.0
  0
LINE
  8
0
 62
0
 10
-70.4186747548111
 20
-120.20947804689149
 30
0.0
 11
-70.41844481865249
 21
-120.20970798305471
 31
0.0
  0
LINE
  8
0
 62
0
 10
-120.20999899999998
 20
-70.4181528017131
 30
0.0
 11
-70.4186747548111
 21
-120.2094780468915
 31
0.0
  0
LINE
  8
0
 62
0
 10
-33.45999999999999
 20
-77.38500000000002
 30
0.0
 11
-36.95999999999999
 21
-77.38500000000002
 31
0.0
  0
LINE
  8
0
 62
0
 10
-33.45999999999998
 20
-85.13500000000002
 30
0.0
 11
-33.45999999999998
 21
-77.38500000000002
 31
0.0
  0
LINE
  8
0
 62
0
 10
-36.95999999999999
 20
-77.38500000000002
 30
0.0
 11
-36.95999999999999
 21
-85.13500000000002
 31
0.0
  0
LINE
  8
0
 62
0
 10
-36.95999999999998
 20
-85.13500000000002
 30
0.0
 11
-33.45999999999998
 21
-85.13500000000002
 31
0.0
  0
LINE
  8
0
 62
0
 10
-77.38499999999999
 20
-36.96
 30
0.0
 11
-77.38499999999999
 21
-33.46
 31
0.0
  0
LINE
  8
0
 62
0
 10
-77.38499999999999
 20
-33.46
 30
0.0
 11
-85.13499999999999
 21
-33.46
 31
0.0
  0
LINE
  8
0
 62
0
 10
-85.13499999999999
 20
-33.46000000000001
 30
0.0
 11
-85.13499999999999
 21
-36.96000000000001
 31
0.0
  0
LINE
  8
0
 62
0
 10
-85.13499999999999
 20
-36.96000000000001
 30
0.0
 11
-77.38499999999999
 21
-36.96000000000001
 31
0.0
  0
LINE
  8
0
 62
0
 10
-63.835499677818646
 20
47.06707019625915
 30
0.0
 11
-120.20970798458539
 21
70.41803178084756
 31
0.0
  0
LINE
  8
0
 62
0
 10
-120.20944698358045
 20
70.41866188755967
 30
0.0
 11
-63.83549967781863
 21
47.06707019625914
 31
0.0
  0
LINE
  8
0
 62
0
 10
-120.20970798321751
 20
70.41840088985705
 30
0.0
 11
-120.20970798458539
 21
70.41803178084754
 31
0.0
  0
LINE
  8
0
 62
0
 10
120.20999999999998
 20
-70.41815280171309
 30
0.0
 11
120.209999
 21
0.0
 31
0.0
  0
LINE
  8
0
 62
0
 10
120.20970798305476
 20
-70.41844481865246
 30
0.0
 11
120.20999999999998
 21
-70.41815280171309
 31
0.0
  0
LINE
  8
0
 62
0
 10
120.20970798305471
 20
-70.41844481865246
 30
0.0
 11
120.20970798321751
 21
-70.41840088985705
 31
0.0
  0
LINE
  8
0
 62
0
 10
120.20970798321756
 20
-70.41840088985711
 30
0.0
 11
120.2099689844699
 21
-70.41813989053925
 31
0.0
  0
LINE
  8
0
 62
0
 10
120.2097079845854
 20
-70.4180317808476
 30
0.0
 11
120.20996898446988
 21
-70.41813989053922
 31
0.0
  0
LINE
  8
0
 62
0
 10
120.20970798458539
 20
-70.41803178084754
 30
0.0
 11
120.2099689391297
 21
-0.0018599999999935335
 31
0.0
  0
LINE
  8
0
 62
0
 10
63.83549967781863
 20
-23.35292980374086
 30
0.0
 11
120.2099689391297
 21
-0.0018599999999935335
 31
0.0
  0
LINE
  8
0
 62
0
 10
63.83549967781863
 20
-47.06707019625914
 30
0.0
 11
63.83549967781863
 21
-23.35292980374086
 31
0.0
  0
LINE
  8
0
 62
0
 10
47.06707019625915
 20
-63.835499677818675
 30
0.0
 11
63.835499677818646
 21
-47.06707019625918
 31
0.0
  0
LINE
  8
0
 62
0
 10
23.35292980374085
 20
-63.835499677818625
 30
0.0
 11
47.067070196259124
 21
-63.835499677818625
 31
0.0
  0
LINE
  8
0
 62
0
 10
0.0012299999999925149
 20
-120.20970798184963
 30
0.0
 11
23.35292980374085
 21
-63.83549967781863
 31
0.0
  0
LINE
  8
0
 62
0
 10
0.0012299999999925149
 20
-120.20970798184963
 30
0.0
 11
70.41740178199836
 21
-120.20996893639393
 31
0.0
  0
LINE
  8
0
 62
0
 10
70.41741423435812
 20
-120.20999900000005
 30
0.0
 11
70.4174017819984
 21
-120.209968936394
 31
0.0
  0
LINE
  8
0
 62
0
 10
0.0
 20
-120.209999
 30
0.0
 11
70.41741423435809
 21
-120.209999
 31
0.0
  0
CIRCLE
  8
0
 62
0
 10
35.21
 20
-35.21
 30
0.0
 40
26.4
  0
LINE
  8
0
 62
0
 10
70.41866188755975
 20
120.20944698358046
 30
0.0
 11
70.41840088985714
 21
120.20970798321753
 31
0.0
  0
LINE
  8
0
 62
0
 10
70.41867475481116
 20
120.20947804689148
 30
0.0
 11
70.4186618875597
 21
120.20944698358043
 31
0.0
  0
LINE
  8
0
 62
0
 10
120.20999900000008
 20
70.41774082739605
 30
0.0
 11
120.20996893776191
 21
70.41777088985702
 31
0.0
  0
LINE
  8
0
 62
0
 10
120.20996893776183
 20
70.41777088985701
 30
0.0
 11
120.20996893912971
 21
70.41813999999997
 31
0.0
  0
LINE
  8
0
 62
0
 10
120.20970793924545
 20
70.41803189030783
 30
0.0
 11
120.20996893912971
 21
70.41813999999997
 31
0.0
  0
LINE
  8
0
 62
0
 10
120.20970793924552
 20
70.41803189030789
 30
0.0
 11
70.41866188755975
 21
120.20944698358046
 31
0.0
  0
LINE
  8
0
 62
0
 10
120.20996893639395
 20
70.41740178199834
 30
0.0
 11
120.20996893776183
 21
70.41777088985701
 31
0.0
  0
LINE
  8
0
 62
0
 10
70.41774082739605
 20
-120.209999
 30
0.0
 11
70.41815280171308
 21
-120.209999
 31
0.0
  0
LINE
  8
0
 62
0
 10
70.41741423435809
 20
-120.209999
 30
0.0
 11
70.41774082739605
 21
-120.209999
 31
0.0
  0
LINE
  8
0
 62
0
 10
120.20947804689148
 20
-70.41867475481112
 30
0.0
 11
120.2097079830547
 21
-70.41844481865252
 31
0.0
  0
LINE
  8
0
 62
0
 10
70.41815280171308
 20
-120.209999
 30
0.0
 11
120.20947804689149
 21
-70.41867475481111
 31
0.0
  0
LINE
  8
0
 62
0
 10
77.385
 20
-33.46
 30
0.0
 11
77.385
 21
-36.96
 31
0.0
  0
LINE
  8
0
 62
0
 10
85.135
 20
-33.46
 30
0.0
 11
77.385
 21
-33.46
 31
0.0
  0
LINE
  8
0
 62
0
 10
77.385
 20
-36.96
 30
0.0
 11
85.135
 21
-36.96
 31
0.0
  0
LINE
  8
0
 62
0
 10
85.135
 20
-36.96
 30
0.0
 11
85.135
 21
-33.46
 31
0.0
  0
LINE
  8
0
 62
0
 10
36.95999999999999
 20
-77.385
 30
0.0
 11
33.45999999999999
 21
-77.385
 31
0.0
  0
LINE
  8
0
 62
0
 10
33.45999999999999
 20
-77.385
 30
0.0
 11
33.45999999999999
 21
-85.135
 31
0.0
  0
LINE
  8
0
 62
0
 10
33.45999999999999
 20
-85.135
 30
0.0
 11
36.95999999999999
 21
-85.135
 31
0.0
  0
LINE
  8
0
 62
0
 10
36.95999999999999
 20
-85.135
 30
0.0
 11
36.95999999999999
 21
-77.385
 31
0.0
  0
LINE
  8
0
 62
0
 10
47.06707019625919
 20
63.835499677818646
 30
0.0
 11
70.4180317808476
 21
120.20970798458538
 31
0.0
  0
LINE
  8
0
 62
0
 10
120.20996893639403
 20
70.41740178199836
 30
0.0
 11
63.83549967781874
 21
47.06707019625916
 31
0.0
  0
LINE
  8
0
 62
0
 10
-120.20999900000005
 20
-70.41774082739609
 30
0.0
 11
-120.20996893776189
 21
-70.41777088985707
 31
0.0
  0
LINE
  8
0
 62
0
 10
-120.20996893776179
 20
-70.41777088985707
 30
0.0
 11
-120.20996893912967
 21
-70.41814000000002
 31
0.0
  0
LINE
  8
0
 62
0
 10
-120.20970793924542
 20
-70.41803189030789
 30
0.0
 11
-120.20996893912968
 21
-70.41814000000002
 31
0.0
  0
LINE
  8
0
 62
0
 10
-120.20970793924549
 20
-70.41803189030793
 30
0.0
 11
-70.4186618875597
 21
-120.20944698358049
 31
0.0
  0
LINE
  8
0
 62
0
 10
-70.41867475481111
 20
-120.2094780468915
 30
0.0
 11
-70.41866188755964
 21
-120.20944698358046
 31
0.0
  0
LINE
  8
0
 62
0
 10
-120.2099689363939
 20
-70.4174017819984
 30
0.0
 11
-120.20996893776179
 21
-70.41777088985707
 31
0.0
  0
LINE
  8
0
 62
0
 10
-70.4186618875597
 20
-120.20944698358049
 30
0.0
 11
-70.4184008898571
 21
-120.20970798321756
 31
0.0
  0
LINE
  8
0
 62
0
 10
-47.067070196259166
 20
-63.83549967781866
 30
0.0
 11
-70.41803178084757
 21
-120.2097079845854
 31
0.0
  0
LINE
  8
0
 62
0
 10
-120.209968936394
 20
-70.41740178199841
 30
0.0
 11
-63.83549967781872
 21
-47.06707019625918
 31
0.0
  0
CIRCLE
  8
0
 62
0
 10
-116.344147
 20
64.35025
 30
0.0
 40
1.0
  0
CIRCLE
  8
0
 62
0
 10
-6.069749999999999
 20
116.34414700000002
 30
0.0
 40
1.0
  0
CIRCLE
  8
0
 62
0
 10
-71.9752371490149
 20
113.18577390995752
 30
0.0
 40
1.0
  0
LINE
  8
0
 62
0
 10
-70.41840088985703
 20
-120.20970798321753
 30
0.0
 11
-70.41803178084751
 21
-120.2097079845854
 31
0.0
  0
LINE
  8
0
 62
0
 10
-70.41866188755964
 20
-120.20944698358046
 30
0.0
 11
-47.067070196259124
 21
-63.83549967781864
 31
0.0
  0
LINE
  8
0
 62
0
 10
-63.83549967781862
 20
-47.06707019625914
 30
0.0
 11
-120.20970793924542
 21
-70.41803189030789
 31
0.0
  0
LINE
  8
0
 62
0
 10
70.41840088985708
 20
120.2097079832175
 30
0.0
 11
70.41803178084757
 21
120.20970798458538
 31
0.0
  0
LINE
  8
0
 62
0
 10
70.4186618875597
 20
120.20944698358043
 30
0.0
 11
47.06707019625915
 21
63.835499677818625
 31
0.0
  0
LINE
  8
0
 62
0
 10
63.83549967781863
 20
47.06707019625911
 30
0.0
 11
120.20970793924545
 21
70.41803189030783
 31
0.0
  0
LINE
  8
0
 62
0
 10
120.20996893776191
 20
70.41777088985702
 30
0.0
 11
120.20970793924552
 21
70.41803189030789
 31
0.0
  0
LINE
  8
0
 62
0
 10
70.41774082739607
 20
-120.20999900000005
 30
0.0
 11
70.41777088985705
 21
-120.20996893776189
 31
0.0
  0
LINE
  8
0
 62
0
 10
70.41777088985704
 20
-120.20996893776181
 30
0.0
 11
70.41814
 21
-120.2099689391297
 31
0.0
  0
LINE
  8
0
 62
0
 10
70.41803189030786
 20
-120.20970793924543
 30
0.0
 11
70.41814
 21
-120.20996893912968
 31
0.0
  0
LINE
  8
0
 62
0
 10
70.41803189030792
 20
-120.20970793924549
 30
0.0
 11
120.20944698358048
 21
-70.41866188755971
 31
0.0
  0
LINE
  8
0
 62
0
 10
120.20947804689149
 20
-70.41867475481114
 30
0.0
 11
120.20944698358045
 21
-70.41866188755967
 31
0.0
  0
LINE
  8
0
 62
0
 10
70.41740178199836
 20
-120.20996893639393
 30
0.0
 11
70.41777088985704
 21
-120.20996893776181
 31
0.0
  0
LINE
  8
0
 62
0
 10
120.20944698358048
 20
-70.41866188755971
 30
0.0
 11
120.20970798321756
 21
-70.41840088985711
 31
0.0
  0
LINE
  8
0
 62
0
 10
63.83549967781866
 20
-47.06707019625918
 30
0.0
 11
120.2097079845854
 21
-70.4180317808476
 31
0.0
  0
LINE
  8
0
 62
0
 10
70.4174017819984
 20
-120.209968936394
 30
0.0
 11
47.06707019625918
 21
-63.83549967781871
 31
0.0
  0
CIRCLE
  8
0
 62
0
 10
64.35025000000003
 20
116.34414699999999
 30
0.0
 40
1.0
  0
CIRCLE
  8
0
 62
0
 10
116.344147
 20
6.0697499999999565
 30
0.0
 40
1.0
  0
LINE
  8
0
 62
0
 10
-120.20996893776189
 20
-70.41777088985707
 30
0.0
 11
-120.20970793924549
 21
-70.41803189030793
 31
0.0
  0
CIRCLE
  8
0
 62
0
 10
-64.35024999999997
 20
-116.34414700000002
 30
0.0
 40
1.0
  0
CIRCLE
  8
0
 62
0
 10
-116.34414699999999
 20
-6.069750000000013
 30
0.0
 40
1.0
  0
LINE
  8
0
 62
0
 10
120.20970798321751
 20
-70.41840088985705
 30
0.0
 11
120.20970798458539
 21
-70.41803178084754
 31
0.0
  0
LINE
  8
0
 62
0
 10
120.20944698358045
 20
-70.41866188755967
 30
0.0
 11
63.83549967781863
 21
-47.06707019625914
 31
0.0
  0
LINE
  8
0
 62
0
 10
47.067070196259124
 20
-63.835499677818625
 30
0.0
 11
70.41803189030786
 21
-120.20970793924543
 31
0.0
  0
CIRCLE
  8
0
 62
0
 10
-113.18577390995756
 20
-71.97523714901494
 30
0.0
 40
1.0000000000000004
  0
CIRCLE
  8
0
 62
0
 10
113.18577390995759
 20
71.9752371490149
 30
0.0
 40
1.0000000000000004
  0
LINE
  8
0
 62
0
 10
70.41777088985705
 20
-120.20996893776189
 30
0.0
 11
70.41803189030792
 21
-120.20970793924549
 31
0.0
  0
CIRCLE
  8
0
 62
0
 10
116.344147
 20
-64.35025
 30
0.0
 40
1.0
  0
CIRCLE
  8
0
 62
0
 10
6.069749999999985
 20
-116.344147
 30
0.0
 40
1.0
  0
CIRCLE
  8
0
 62
0
 10
71.97523714901493
 20
-113.18577390995758
 30
0.0
 40
1.0000000000000004
  0
ENDBLK
  0
ENDSEC
  0
SECTION
  2
ENTITIES
  0
INSERT
  2
FUSION001
  8
0
 62
0
 10
0.0
 20
0.0
 30
0.0
  0
ENDSEC
  0
EOF
