  0
SECTION
  2
HEADER
  9
$ACADVER
  1
AC1009
  9
$INSBASE
 10
0.0
 20
0.0
 30
0.0
  9
$EXTMIN
 10
0.0
 20
0.0
 30
0.0
  9
$EXTMAX
 10
0.0
 20
0.0
 30
0.0
  0
ENDSEC
  0
SECTION
  2
TABLES
  0
TABLE
  2
VPORT
 70
0
  0
ENDTAB
  0
TABLE
  2
LTYPE
 70
1
  0
LTYPE
  2
CONTINUOUS
 70
0
  3
Solid line
 72
65
 73
0
 40
0.0
  0
ENDTAB
  0
TABLE
  2
LAYER
 70
1
  0
LAYER
  2
0
 70
64
 62
7
  6
continuous
  0
ENDTAB
  0
TABLE
  2
STYLE
 70
1
  0
STYLE
  2
STANDARD
 70
0
 40
0
 41
1.0
 50
0.0
 71
0
 42
1
 3
ARIAL.TTF
 4

  0
ENDTAB
  0
TABLE
  2
VIEW
 70
0
  0
ENDTAB
  0
ENDSEC
  0
SECTION
  2
BLOCKS
  0
BLOCK
  8
0
  2
BODY032
 70
0
 10
0.0
 20
0.0
 30
0.0
  3
BODY032
  0
LINE
  8
0
 62
0
 10
-85.00040399999999
 20
35.21189640085661
 30
0.0
 11
-85.000404
 21
19.38189640085661
 31
0.0
  0
LINE
  8
0
 62
0
 10
-85.000404
 20
19.38189640085661
 30
0.0
 11
-89.000404
 21
19.381896400856615
 31
0.0
  0
LINE
  8
0
 62
0
 10
-89.000404
 20
19.381896400856615
 30
0.0
 11
-89.000404
 21
17.606896400856616
 31
0.0
  0
LINE
  8
0
 62
0
 10
-89.00040400000002
 20
17.606896400856616
 30
0.0
 11
-89.00040400000002
 21
15.831896400856614
 31
0.0
  0
LINE
  8
0
 62
0
 10
-89.00040400000002
 20
15.831896400856614
 30
0.0
 11
-84.999997
 21
15.831896400856609
 31
0.0
  0
LINE
  8
0
 62
0
 10
-84.999997
 20
15.831896400856609
 30
0.0
 11
-84.99999700000002
 21
-15.829071999999902
 31
0.0
  0
LINE
  8
0
 62
0
 10
-89.00000000000004
 20
-15.829071999999904
 30
0.0
 11
-84.99999700000002
 21
-15.82907199999991
 31
0.0
  0
LINE
  8
0
 62
0
 10
-89.00000000000004
 20
-17.60548420043048
 30
0.0
 11
-89.00000000000004
 21
-15.829071999999904
 31
0.0
  0
LINE
  8
0
 62
0
 10
-89.00000000000006
 20
-19.381896400861056
 30
0.0
 11
-89.00000000000006
 21
-17.60548420043048
 31
0.0
  0
LINE
  8
0
 62
0
 10
-85.00039600000004
 20
-19.38189640086106
 30
0.0
 11
-89.00000000000006
 21
-19.381896400861056
 31
0.0
  0
LINE
  8
0
 62
0
 10
-85.00039600000004
 20
-19.38189640086106
 30
0.0
 11
-85.00039600000005
 21
-35.21189640086106
 31
0.0
  0
LINE
  8
0
 62
0
 10
-155.42039600000004
 20
-35.21189640086099
 30
0.0
 11
-85.00039600000005
 21
-35.211896400861065
 31
0.0
  0
LINE
  8
0
 62
0
 10
-156.83923200000007
 20
-36.63020134965093
 30
0.0
 11
-155.42039600000004
 21
-35.21189640086098
 31
0.0
  0
LINE
  8
0
 62
0
 10
-156.83923200000007
 20
-36.63020134965093
 30
0.0
 11
-156.83923800000014
 21
-107.05020134965093
 31
0.0
  0
LINE
  8
0
 62
0
 10
-172.66923800000015
 20
-107.05020134965095
 30
0.0
 11
-156.83923800000014
 21
-107.05020134965096
 31
0.0
  0
LINE
  8
0
 62
0
 10
-172.66923800000015
 20
-107.05020134965095
 30
0.0
 11
-172.67112536145575
 21
-103.05020176877044
 31
0.0
  0
LINE
  8
0
 62
0
 10
-172.67112536145575
 20
-103.05020176877044
 30
0.0
 11
-174.44612536145576
 21
-103.05020176890743
 31
0.0
  0
LINE
  8
0
 62
0
 10
-174.44612536145576
 20
-103.05020176890741
 30
0.0
 11
-176.22112536145576
 21
-103.05020176904442
 31
0.0
  0
LINE
  8
0
 62
0
 10
-176.22112536145576
 20
-103.05020176904442
 30
0.0
 11
-176.22113900000014
 21
-107.05014699999982
 31
0.0
  0
LINE
  8
0
 62
0
 10
-207.87928400000018
 20
-107.0501469999998
 30
0.0
 11
-176.22113900000016
 21
-107.05014699999982
 31
0.0
  0
LINE
  8
0
 62
0
 10
-207.87927816316886
 20
-103.05020177148803
 30
0.0
 11
-207.87928400000018
 21
-107.0501469999998
 31
0.0
  0
LINE
  8
0
 62
0
 10
-209.6542781631689
 20
-103.05020177162504
 30
0.0
 11
-207.87927816316886
 21
-103.05020177148803
 31
0.0
  0
LINE
  8
0
 62
0
 10
-211.42927816316887
 20
-103.05020177176205
 30
0.0
 11
-209.6542781631689
 21
-103.05020177162503
 31
0.0
  0
LINE
  8
0
 62
0
 10
-211.42923800000017
 20
-107.04977999999979
 30
0.0
 11
-211.42927816316887
 21
-103.05020177176205
 31
0.0
  0
LINE
  8
0
 62
0
 10
-227.25923800000018
 20
-107.04978299999975
 30
0.0
 11
-211.42923800000017
 21
-107.04977999999979
 31
0.0
  0
LINE
  8
0
 62
0
 10
-227.2592380000001
 20
-36.629782999999726
 30
0.0
 11
-227.25923800000018
 21
-107.04978299999974
 31
0.0
  0
LINE
  8
0
 62
0
 10
-228.68039600000006
 20
-35.21188961083717
 30
0.0
 11
-227.2592380000001
 21
-36.629782999999726
 31
0.0
  0
LINE
  8
0
 62
0
 10
-299.1003960000001
 20
-35.21188961083709
 30
0.0
 11
-228.6803960000001
 21
-35.21188961083717
 31
0.0
  0
LINE
  8
0
 62
0
 10
-299.10039600000005
 20
-19.379076400856256
 30
0.0
 11
-299.10039600000005
 21
-35.21188961083709
 31
0.0
  0
LINE
  8
0
 62
0
 10
-299.10039600000005
 20
-19.379076400856256
 30
0.0
 11
-295.1004035405329
 21
-19.37907640085626
 31
0.0
  0
LINE
  8
0
 62
0
 10
-295.1004035405329
 20
-19.37907640085626
 30
0.0
 11
-295.1004035405329
 21
-17.604050200427967
 31
0.0
  0
LINE
  8
0
 62
0
 10
-295.1004035405329
 20
-17.604050200427967
 30
0.0
 11
-295.1004035405329
 21
-15.829023999999675
 31
0.0
  0
LINE
  8
0
 62
0
 10
-295.1004035405329
 20
-15.829023999999675
 30
0.0
 11
-299.10036400000007
 21
-15.829023999999672
 31
0.0
  0
LINE
  8
0
 62
0
 10
-299.10036400000007
 20
15.829132000000335
 30
0.0
 11
-299.1003640000001
 21
-15.829023999999663
 31
0.0
  0
LINE
  8
0
 62
0
 10
-295.1004035405329
 20
15.82913200000033
 30
0.0
 11
-299.10036400000007
 21
15.829132000000333
 31
0.0
  0
LINE
  8
0
 62
0
 10
-295.1004035405329
 20
17.605514200428587
 30
0.0
 11
-295.1004035405329
 21
15.82913200000033
 31
0.0
  0
LINE
  8
0
 62
0
 10
-295.1004035405329
 20
19.381896400856842
 30
0.0
 11
-295.1004035405329
 21
17.605514200428587
 31
0.0
  0
LINE
  8
0
 62
0
 10
-299.1004040000001
 20
19.381896400856846
 30
0.0
 11
-295.1004035405329
 21
19.381896400856842
 31
0.0
  0
LINE
  8
0
 62
0
 10
-299.100404
 20
35.21189640085685
 30
0.0
 11
-299.100404
 21
19.381896400856853
 31
0.0
  0
LINE
  8
0
 62
0
 10
-228.68040400000004
 20
35.211913000000266
 30
0.0
 11
-299.100404
 21
35.21189640085685
 31
0.0
  0
LINE
  8
0
 62
0
 10
-228.68040400000004
 20
35.211913000000266
 30
0.0
 11
-227.259238
 21
36.63021700000027
 31
0.0
  0
LINE
  8
0
 62
0
 10
-227.259238
 20
36.63021700000027
 30
0.0
 11
-227.25923799999993
 21
107.05021700000029
 31
0.0
  0
LINE
  8
0
 62
0
 10
-227.25923799999993
 20
107.0502170000003
 30
0.0
 11
-211.42923799999994
 21
107.05021700000029
 31
0.0
  0
LINE
  8
0
 62
0
 10
-211.42923799999994
 20
107.05021700000029
 30
0.0
 11
-211.42927816316865
 21
103.05020177176253
 31
0.0
  0
LINE
  8
0
 62
0
 10
-211.42927816316865
 20
103.05020177176253
 30
0.0
 11
-209.65427816316867
 21
103.05020177162551
 31
0.0
  0
LINE
  8
0
 62
0
 10
-209.65427816316867
 20
103.0502017716255
 30
0.0
 11
-207.87927816316864
 21
103.05020177148849
 31
0.0
  0
LINE
  8
0
 62
0
 10
-207.87927816316864
 20
103.05020177148849
 30
0.0
 11
-207.87925699999994
 21
107.05023800000025
 31
0.0
  0
LINE
  8
0
 62
0
 10
-207.87925699999994
 20
107.05023800000025
 30
0.0
 11
-176.22110099999995
 21
107.05023800000022
 31
0.0
  0
LINE
  8
0
 62
0
 10
-176.22112536145553
 20
103.05020176904482
 30
0.0
 11
-176.22110099999992
 21
107.05023800000022
 31
0.0
  0
LINE
  8
0
 62
0
 10
-174.44612536145553
 20
103.05020176890781
 30
0.0
 11
-176.22112536145553
 21
103.05020176904482
 31
0.0
  0
LINE
  8
0
 62
0
 10
-172.67112536145552
 20
103.0502017687708
 30
0.0
 11
-174.44612536145553
 21
103.0502017689078
 31
0.0
  0
LINE
  8
0
 62
0
 10
-172.66923799999992
 20
107.0497986503491
 30
0.0
 11
-172.67112536145552
 21
103.0502017687708
 31
0.0
  0
LINE
  8
0
 62
0
 10
-172.66923799999992
 20
107.0497986503491
 30
0.0
 11
-156.8392379999999
 21
107.04979865034909
 31
0.0
  0
LINE
  8
0
 62
0
 10
-156.8392379999999
 20
107.04979865034909
 30
0.0
 11
-156.839232
 21
36.62979865034909
 31
0.0
  0
LINE
  8
0
 62
0
 10
-156.839232
 20
36.62979865034907
 30
0.0
 11
-155.42040400000002
 21
35.21190200000019
 31
0.0
  0
LINE
  8
0
 62
0
 10
-85.00040399999999
 20
35.21189640085661
 30
0.0
 11
-155.42040400000002
 21
35.21190200000018
 31
0.0
  0
LINE
  8
0
 62
0
 10
-201.55020177026648
 20
-9.499999999999776
 30
0.0
 11
-182.55020177026648
 21
-9.499999999999797
 31
0.0
  0
LINE
  8
0
 62
0
 10
-182.55020177026645
 20
-9.499999999999797
 30
0.0
 11
-182.55020177026643
 21
9.500000000000203
 31
0.0
  0
LINE
  8
0
 62
0
 10
-182.55020177026645
 20
9.500000000000206
 30
0.0
 11
-201.55020177026645
 21
9.500000000000227
 31
0.0
  0
LINE
  8
0
 62
0
 10
-201.55020177026648
 20
9.500000000000227
 30
0.0
 11
-201.5502017702665
 21
-9.499999999999773
 31
0.0
  0
ENDBLK
  0
ENDSEC
  0
SECTION
  2
ENTITIES
  0
INSERT
  2
BODY032
  8
0
 62
0
 10
0.0
 20
0.0
 30
0.0
  0
ENDSEC
  0
EOF
