  0
SECTION
  2
HEADER
  9
$ACADVER
  1
AC1009
  9
$INSBASE
 10
0.0
 20
0.0
 30
0.0
  9
$EXTMIN
 10
0.0
 20
0.0
 30
0.0
  9
$EXTMAX
 10
0.0
 20
0.0
 30
0.0
  0
ENDSEC
  0
SECTION
  2
TABLES
  0
TABLE
  2
VPORT
 70
0
  0
ENDTAB
  0
TABLE
  2
LTYPE
 70
1
  0
LTYPE
  2
CONTINUOUS
 70
0
  3
Solid line
 72
65
 73
0
 40
0.0
  0
ENDTAB
  0
TABLE
  2
LAYER
 70
1
  0
LAYER
  2
0
 70
64
 62
7
  6
continuous
  0
ENDTAB
  0
TABLE
  2
STYLE
 70
1
  0
STYLE
  2
STANDARD
 70
0
 40
0
 41
1.0
 50
0.0
 71
0
 42
1
 3
ARIAL.TTF
 4

  0
ENDTAB
  0
TABLE
  2
VIEW
 70
0
  0
ENDTAB
  0
ENDSEC
  0
SECTION
  2
BLOCKS
  0
BLOCK
  8
0
  2
BODY032
 70
0
 10
0.0
 20
0.0
 30
0.0
  3
BODY032
  0
LINE
  8
0
 62
0
 10
-236.39184719828688
 20
-186.60000000000005
 30
0.0
 11
-236.39184719828702
 21
-85.00000000000006
 31
0.0
  0
LINE
  8
0
 62
0
 10
-236.391847198287
 20
-85.00000000000004
 30
0.0
 11
-225.1989870863971
 21
-73.80713988811016
 31
0.0
  0
LINE
  8
0
 62
0
 10
-225.19898708639712
 20
-73.80713988811017
 30
0.0
 11
-222.3705728060085
 21
-76.6355798550983
 31
0.0
  0
LINE
  8
0
 62
0
 10
-222.3705728060085
 20
-76.63557985509831
 30
0.0
 11
-221.11545826930552
 21
-75.3804653185891
 31
0.0
  0
LINE
  8
0
 62
0
 10
-221.11545826930552
 20
-75.38046531858907
 30
0.0
 11
-219.8603437326025
 21
-74.1253507820798
 31
0.0
  0
LINE
  8
0
 62
0
 10
-219.86034373260247
 20
-74.12535078207982
 30
0.0
 11
-222.6887822172617
 21
-71.29689792452959
 31
0.0
  0
LINE
  8
0
 62
0
 10
-222.68878221726172
 20
-71.29689792452959
 30
0.0
 11
-200.30308542980012
 21
-48.91120113706801
 31
0.0
  0
LINE
  8
0
 62
0
 10
-197.47464920494335
 20
-51.73965625787652
 30
0.0
 11
-200.30308542980012
 21
-48.911201137068005
 31
0.0
  0
LINE
  8
0
 62
0
 10
-196.21953466824036
 20
-50.48454172136728
 30
0.0
 11
-197.47464920494338
 21
-51.739656257876526
 31
0.0
  0
LINE
  8
0
 62
0
 10
-194.96442013153737
 20
-49.229427184858025
 30
0.0
 11
-196.21953466824036
 21
-50.48454172136728
 31
0.0
  0
LINE
  8
0
 62
0
 10
-197.7928471641997
 20
-46.40098549888461
 30
0.0
 11
-194.96442013153737
 21
-49.229427184858025
 31
0.0
  0
LINE
  8
0
 62
0
 10
-197.7928471641997
 20
-46.40098549888461
 30
0.0
 11
-186.60000230600284
 21
-35.20814064068773
 31
0.0
  0
LINE
  8
0
 62
0
 10
-186.6000023060028
 20
-35.20814064068773
 30
0.0
 11
-85.00000014021
 21
-35.20814559043524
 31
0.0
  0
LINE
  8
0
 62
0
 10
-85.00000014021003
 20
-35.20814559043522
 30
0.0
 11
-73.8071492015005
 21
-46.40099652914476
 31
0.0
  0
LINE
  8
0
 62
0
 10
-73.8071492015005
 20
-46.40099652914476
 30
0.0
 11
-76.63557632624668
 21
-49.229423653890954
 31
0.0
  0
LINE
  8
0
 62
0
 10
-76.63557632624668
 20
-49.22942365389095
 30
0.0
 11
-75.38046178964056
 21
-50.48453819049707
 31
0.0
  0
LINE
  8
0
 62
0
 10
-75.38046178964056
 20
-50.48453819049707
 30
0.0
 11
-74.12534725303445
 21
-51.73965272710319
 31
0.0
  0
LINE
  8
0
 62
0
 10
-74.12534725303445
 20
-51.73965272710319
 30
0.0
 11
-71.29692154250182
 21
-48.911227016570564
 31
0.0
  0
LINE
  8
0
 62
0
 10
-71.29692154250182
 20
-48.911227016570564
 30
0.0
 11
-48.91123012844611
 21
-71.29691843062628
 31
0.0
  0
LINE
  8
0
 62
0
 10
-51.739659374512655
 20
-74.12534767669283
 30
0.0
 11
-48.91123012844611
 21
-71.29691843062628
 31
0.0
  0
LINE
  8
0
 62
0
 10
-50.484546605673486
 20
-75.38046044553201
 30
0.0
 11
-51.739659374512655
 21
-74.12534767669284
 31
0.0
  0
LINE
  8
0
 62
0
 10
-49.22943383683432
 20
-76.63557321437118
 30
0.0
 11
-50.484546605673486
 21
-75.38046044553201
 31
0.0
  0
LINE
  8
0
 62
0
 10
-46.40100459076777
 20
-73.80714396830463
 30
0.0
 11
-49.22943383683432
 21
-76.63557321437118
 31
0.0
  0
LINE
  8
0
 62
0
 10
-46.40100459076777
 20
-73.80714396830463
 30
0.0
 11
-35.20815831835732
 21
-84.99999024071508
 31
0.0
  0
LINE
  8
0
 62
0
 10
-35.20815831835732
 20
-84.99999024071508
 30
0.0
 11
-35.208152801713034
 21
-186.60000000000002
 31
0.0
  0
LINE
  8
0
 62
0
 10
-35.20815280171301
 20
-186.60000000000002
 30
0.0
 11
-46.401007581641096
 21
-197.7928547799281
 31
0.0
  0
LINE
  8
0
 62
0
 10
-46.401007581641096
 20
-197.7928547799281
 30
0.0
 11
-49.2294271848581
 21
-194.96442013153734
 31
0.0
  0
LINE
  8
0
 62
0
 10
-49.22942718485811
 20
-194.96442013153734
 30
0.0
 11
-50.48454172136737
 21
-196.21953466824033
 31
0.0
  0
LINE
  8
0
 62
0
 10
-50.48454172136738
 20
-196.21953466824033
 30
0.0
 11
-51.739656257876625
 21
-197.47464920494332
 31
0.0
  0
LINE
  8
0
 62
0
 10
-51.73965625787662
 20
-197.47464920494332
 30
0.0
 11
-48.91125487718348
 21
-200.3030628023831
 31
0.0
  0
LINE
  8
0
 62
0
 10
-71.29694317936371
 20
-222.6887511045633
 30
0.0
 11
-48.911254877183495
 21
-200.3030628023831
 31
0.0
  0
LINE
  8
0
 62
0
 10
-74.1253507820799
 20
-219.86034373260247
 30
0.0
 11
-71.29694317936368
 21
-222.68875110456332
 31
0.0
  0
LINE
  8
0
 62
0
 10
-75.38046531858919
 20
-221.11545826930546
 30
0.0
 11
-74.12535078207992
 21
-219.86034373260244
 31
0.0
  0
LINE
  8
0
 62
0
 10
-76.6355798550984
 20
-222.37057280600848
 30
0.0
 11
-75.38046531858919
 21
-221.1154582693055
 31
0.0
  0
LINE
  8
0
 62
0
 10
-73.80715881754712
 20
-225.1989822990959
 30
0.0
 11
-76.63557985509843
 21
-222.37057280600848
 31
0.0
  0
LINE
  8
0
 62
0
 10
-85.0000227676271
 20
-236.39184624917587
 30
0.0
 11
-73.8071588175471
 21
-225.1989822990959
 31
0.0
  0
LINE
  8
0
 62
0
 10
-85.0000227676271
 20
-236.39184624917587
 30
0.0
 11
-186.6
 21
-236.39184719828697
 31
0.0
  0
LINE
  8
0
 62
0
 10
-197.79284726296564
 20
-225.1989999353213
 30
0.0
 11
-186.59999999999997
 21
-236.39184719828697
 31
0.0
  0
LINE
  8
0
 62
0
 10
-197.79284726296564
 20
-225.1989999353213
 30
0.0
 11
-194.9644201382196
 21
-222.37057281057525
 31
0.0
  0
LINE
  8
0
 62
0
 10
-194.96442013821962
 20
-222.37057281057525
 30
0.0
 11
-196.21954577670505
 21
-221.11544717208983
 31
0.0
  0
LINE
  8
0
 62
0
 10
-196.21954577670505
 20
-221.11544717208983
 30
0.0
 11
-197.47467141519047
 21
-219.8603215336044
 31
0.0
  0
LINE
  8
0
 62
0
 10
-197.47467141519047
 20
-219.8603215336044
 30
0.0
 11
-200.30308542980018
 21
-222.6887355482141
 31
0.0
  0
LINE
  8
0
 62
0
 10
-222.68878151015497
 20
-200.3030394678593
 30
0.0
 11
-200.30308542980018
 21
-222.6887355482141
 31
0.0
  0
LINE
  8
0
 62
0
 10
-219.8603674955453
 20
-197.4746254532496
 30
0.0
 11
-222.688781510155
 21
-200.3030394678593
 31
0.0
  0
LINE
  8
0
 62
0
 10
-221.1154701530603
 20
-196.21952279573458
 30
0.0
 11
-219.86036749554526
 21
-197.47462545324962
 31
0.0
  0
LINE
  8
0
 62
0
 10
-222.37057281057534
 20
-194.96442013821954
 30
0.0
 11
-221.1154701530603
 21
-196.21952279573458
 31
0.0
  0
LINE
  8
0
 62
0
 10
-225.19899993532135
 20
-197.79284726296558
 30
0.0
 11
-222.3705728105753
 21
-194.96442013821954
 31
0.0
  0
LINE
  8
0
 62
0
 10
-236.39184719828688
 20
-186.60000000000005
 30
0.0
 11
-225.19899993532135
 21
-197.79284726296558
 31
0.0
  0
LINE
  8
0
 62
0
 10
-135.80000000000013
 20
-149.23502884254444
 30
0.0
 11
-122.36497115745571
 21
-135.80000000000004
 31
0.0
  0
LINE
  8
0
 62
0
 10
-122.3649711574557
 20
-135.80000000000004
 30
0.0
 11
-135.8000000000001
 21
-122.36497115745563
 31
0.0
  0
LINE
  8
0
 62
0
 10
-135.8000000000001
 20
-122.36497115745564
 30
0.0
 11
-149.2350288425445
 21
-135.80000000000004
 31
0.0
  0
LINE
  8
0
 62
0
 10
-149.23502884254452
 20
-135.80000000000004
 30
0.0
 11
-135.80000000000013
 21
-149.23502884254444
 31
0.0
  0
ENDBLK
  0
ENDSEC
  0
SECTION
  2
ENTITIES
  0
INSERT
  2
BODY032
  8
0
 62
0
 10
0.0
 20
0.0
 30
0.0
  0
ENDSEC
  0
EOF
